{
.formatVersion = 3;
axes = (
{
name = Weight;
tag = wght;
}
);
classes = (
{
code = "S Sacute Scaron";
name = _S_Both;
},
{
code = "T Tcedilla Tcaron Tcommaaccent";
name = _T_Both;
},
{
code = "U Uogonek Umacron Uring Uhungarumlaut Ugrave Uacute Ucircumflex Udieresis";
name = _U_Both;
},
{
code = W;
name = _W_Both;
},
{
code = "Y Yacute Ydieresis";
name = _Y_Both;
},
{
code = "Z Zacute Zdotaccent Zcaron";
name = _Z_Both;
},
{
code = "g gbreve gcommaaccent";
name = _g_Both;
},
{
code = "i iogonek igrave iacute icircumflex idieresis imacron";
name = _i_Both;
},
{
code = "s scaron sacute";
name = _s_both;
},
{
code = "t tcedilla tcaron tcommaaccent";
name = _t_Both;
},
{
code = "u uogonek ugrave uacute ucircumflex udieresis umacron uring uhungarumlaut";
name = _u_Both;
},
{
code = w;
name = _w_Both;
},
{
code = "y ydieresis yacute";
name = _y_Both;
},
{
code = "z zacute zdotaccent zcaron";
name = _z_Both;
},
{
code = "quoteleft quotedblleft";
name = _quoteleft_Both;
},
{
code = "quoteright quotedblright";
name = _quoteright_Both;
},
{
code = "quotesingle quotedbl";
name = _quotesingl_Both;
},
{
code = "guilsinglleft guillemetleft";
name = _guilsinglleft_Both;
},
{
code = "guilsinglright guillemetright";
name = _guilsinglright_Both;
},
{
code = hyphen;
name = _hyphen_Both;
},
{
code = "period comma";
name = _period_Both;
},
{
code = B;
name = _B_Both;
},
{
code = F;
name = _F_Both;
},
{
code = "H I";
name = _H_Both;
},
{
code = J;
name = _J_Both;
},
{
code = M;
name = _M_Both;
},
{
code = P;
name = _P_Both;
},
{
code = V;
name = _V_Both;
},
{
code = X;
name = _X_Both;
},
{
code = j;
name = _j_Both;
},
{
code = v;
name = _v_Both;
},
{
code = x;
name = _x_Both;
},
{
code = exclam;
name = _exclam_Both;
},
{
code = question;
name = _question_Both;
},
{
code = ampersand;
name = _ampersand_Both;
},
{
code = asterisk;
name = _asterisk_Both;
},
{
code = questiondown;
name = _questiondown_Both;
},
{
code = exclamdown;
name = _exclamdown_Both;
}
);
familyName = Jenssen;

glyphs = (
{
glyphname = slash;
layers = (
{
layerId = "C8089C2F-C663-459E-AF34-3AEDB7904EA9";
shapes = (
{
closed = 1;
nodes = (
(100,-308,l),
(252,-308,l),
(793,1602,l),
(641,1602,l)
);
}
);
width = 906;
},
{
layerId = "B30F41D4-F94E-4E62-9315-7D5BF3371191";
shapes = (
{
closed = 1;
nodes = (
(109,-308,l),
(205,-308,l),
(746,1602,l),
(650,1602,l)
);
}
);
width = 868;
},
{
layerId = "E5022B42-6572-4579-AE6E-2F10A1751A6E";
shapes = (
{
closed = 1;
nodes = (
(76,-308,l),
(377,-308,l),
(918,1602,l),
(617,1602,l)
);
}
);
width = 1009;
},
{
layerId = "09C3E491-E9AE-4DC0-8F4F-6A6E8897705E";
shapes = (
{
closed = 1;
nodes = (
(80,-308,l),
(355,-308,l),
(896,1602,l),
(621,1602,l)
);
}
);
width = 991;
}
);
unicode = 47;
},
{
glyphname = quotesingle;
layers = (
{
background = {
shapes = (
{
closed = 1;
nodes = (
(174,1018,l),
(342,1159,o),
(421,1314,o),
(421,1435,cs),
(421,1563,o),
(350,1609,o),
(286,1609,cs),
(196,1609,o),
(162,1527,o),
(162,1482,cs),
(162,1468,o),
(165,1439,o),
(175,1424,c),
(219,1415,o),
(279,1383,o),
(307,1359,c),
(291,1275,o),
(215,1145,o),
(129,1053,c)
);
}
);
};
layerId = "C8089C2F-C663-459E-AF34-3AEDB7904EA9";
shapes = (
{
closed = 1;
nodes = (
(192,964,l),
(382,1124,o),
(460,1292,o),
(460,1420,cs),
(460,1558,o),
(380,1612,o),
(306,1612,cs),
(210,1612,o),
(160,1528,o),
(160,1464,cs),
(160,1446,o),
(164,1416,o),
(174,1398,c),
(222,1388,o),
(284,1354,o),
(314,1326,c),
(296,1234,o),
(220,1106,o),
(130,1008,c)
);
}
);
width = 600;
},
{
layerId = "B30F41D4-F94E-4E62-9315-7D5BF3371191";
shapes = (
{
closed = 1;
nodes = (
(157,1117,l),
(293,1228,o),
(367,1361,o),
(367,1467,cs),
(367,1576,o),
(309,1612,o),
(259,1612,cs),
(181,1612,o),
(164,1539,o),
(164,1511,cs),
(164,1502,o),
(166,1476,o),
(174,1467,c),
(211,1459,o),
(264,1429,o),
(289,1410,c),
(276,1343,o),
(205,1221,o),
(130,1141,c)
);
}
);
width = 507;
},
{
layerId = "E5022B42-6572-4579-AE6E-2F10A1751A6E";
shapes = (
{
closed = 1;
nodes = (
(265,700,l),
(560,954,o),
(635,1186,o),
(635,1346,cs),
(635,1535,o),
(510,1624,o),
(389,1624,cs),
(265,1624,o),
(136,1530,o),
(136,1376,cs),
(136,1339,o),
(143,1303,o),
(153,1270,c),
(220,1254,o),
(293,1213,o),
(335,1165,c),
(305,1032,o),
(229,915,o),
(118,789,c)
);
}
);
width = 763;
},
{
layerId = "09C3E491-E9AE-4DC0-8F4F-6A6E8897705E";
shapes = (
{
closed = 1;
nodes = (
(252,747,l),
(528,984,o),
(604,1205,o),
(604,1359,cs),
(604,1539,o),
(487,1622,o),
(374,1622,cs),
(255,1622,o),
(140,1530,o),
(140,1392,cs),
(140,1358,o),
(147,1323,o),
(157,1293,c),
(220,1278,o),
(291,1238,o),
(331,1194,c),
(303,1068,o),
(227,949,o),
(120,828,c)
);
}
);
width = 734;
}
);
unicode = 39;
},
{
glyphname = hyphen;
layers = (
{
background = {
shapes = (
{
closed = 1;
nodes = (
(140,496,l),
(806,496,l),
(858,648,l),
(192,648,l)
);
},
{
closed = 1;
nodes = (
(150,659,l),
(150,524,l),
(997,524,l),
(997,659,l)
);
}
);
};
layerId = "C8089C2F-C663-459E-AF34-3AEDB7904EA9";
shapes = (
{
closed = 1;
nodes = (
(150,659,l),
(150,524,l),
(837,524,l),
(837,659,l)
);
}
);
width = 987;
},
{
layerId = "B30F41D4-F94E-4E62-9315-7D5BF3371191";
shapes = (
{
closed = 1;
nodes = (
(150,632,l),
(150,551,l),
(837,551,l),
(837,632,l)
);
}
);
width = 987;
},
{
background = {
shapes = (
{
closed = 1;
nodes = (
(140,496,l),
(806,496,l),
(858,648,l),
(192,648,l)
);
},
{
closed = 1;
nodes = (
(150,659,l),
(150,524,l),
(997,524,l),
(997,659,l)
);
}
);
};
layerId = "E5022B42-6572-4579-AE6E-2F10A1751A6E";
shapes = (
{
closed = 1;
nodes = (
(150,732,l),
(150,451,l),
(836,451,l),
(836,732,l)
);
}
);
width = 986;
},
{
layerId = "09C3E491-E9AE-4DC0-8F4F-6A6E8897705E";
shapes = (
{
closed = 1;
nodes = (
(150,719,l),
(150,464,l),
(836,464,l),
(836,719,l)
);
}
);
width = 986;
}
);
unicode = 45;
},
{
glyphname = semicolon;
layers = (
{
background = {
shapes = (
{
closed = 1;
nodes = (
(401,684,o),
(453,748,o),
(453,811,cs),
(453,879,o),
(398,945,o),
(324,945,cs),
(249,945,o),
(197,878,o),
(197,812,cs),
(197,747,o),
(252,684,o),
(326,684,cs)
);
},
{
closed = 1;
nodes = (
(217,-350,l),
(385,-210,o),
(464,-55,o),
(464,67,cs),
(464,194,o),
(393,241,o),
(329,241,cs),
(239,241,o),
(205,159,o),
(205,113,cs),
(205,99,o),
(208,71,o),
(218,56,c),
(262,47,o),
(322,14,o),
(350,-10,c),
(334,-93,o),
(258,-223,o),
(172,-316,c)
);
}
);
};
layerId = "C8089C2F-C663-459E-AF34-3AEDB7904EA9";
shapes = (
{
closed = 1;
nodes = (
(426,672,o),
(490,742,o),
(490,820,cs),
(490,900,o),
(426,972,o),
(342,972,cs),
(258,972,o),
(194,900,o),
(194,820,cs),
(194,742,o),
(258,672,o),
(342,672,cs)
);
},
{
closed = 1;
nodes = (
(232,-368,l),
(422,-208,o),
(500,-40,o),
(500,88,cs),
(500,226,o),
(420,280,o),
(346,280,cs),
(250,280,o),
(200,196,o),
(200,132,cs),
(200,114,o),
(204,84,o),
(214,66,c),
(262,56,o),
(324,22,o),
(354,-6,c),
(336,-98,o),
(260,-226,o),
(170,-324,c)
);
}
);
width = 700;
},
{
layerId = "B30F41D4-F94E-4E62-9315-7D5BF3371191";
shapes = (
{
closed = 1;
nodes = (
(377,719,o),
(419,757,o),
(419,811,cs),
(419,864,o),
(377,899,o),
(327,899,cs),
(278,899,o),
(236,864,o),
(236,811,cs),
(236,757,o),
(278,719,o),
(327,719,cs)
);
},
{
closed = 1;
nodes = (
(219,-335,l),
(355,-224,o),
(429,-91,o),
(429,15,cs),
(429,124,o),
(371,160,o),
(321,160,cs),
(243,160,o),
(225,87,o),
(225,59,cs),
(225,50,o),
(228,24,o),
(236,15,c),
(273,7,o),
(326,-23,o),
(350,-42,c),
(338,-109,o),
(267,-231,o),
(192,-311,c)
);
}
);
width = 655;
},
{
background = {
shapes = (
{
closed = 1;
nodes = (
(232,-370,l),
(422,-210,o),
(500,-42,o),
(500,86,cs),
(500,224,o),
(420,278,o),
(346,278,cs),
(250,278,o),
(200,194,o),
(200,130,cs),
(200,112,o),
(204,82,o),
(214,64,c),
(262,54,o),
(324,20,o),
(354,-8,c),
(336,-100,o),
(260,-228,o),
(170,-326,c)
);
}
);
};
layerId = "E5022B42-6572-4579-AE6E-2F10A1751A6E";
shapes = (
{
closed = 1;
nodes = (
(545,614,o),
(670,713,o),
(670,861,cs),
(670,1002,o),
(560,1103,o),
(430,1103,cs),
(299,1103,o),
(177,1005,o),
(177,857,cs),
(177,715,o),
(287,614,o),
(417,614,cs)
);
},
{
closed = 1;
nodes = (
(305,-454,l),
(600,-201,o),
(675,32,o),
(675,191,cs),
(675,381,o),
(550,470,o),
(429,470,cs),
(305,470,o),
(176,376,o),
(176,222,cs),
(176,185,o),
(183,149,o),
(193,116,c),
(260,100,o),
(333,59,o),
(375,11,c),
(345,-122,o),
(269,-239,o),
(158,-365,c)
);
}
);
width = 851;
},
{
layerId = "09C3E491-E9AE-4DC0-8F4F-6A6E8897705E";
shapes = (
{
closed = 1;
nodes = (
(524,624,o),
(638,718,o),
(638,854,cs),
(638,984,o),
(536,1080,o),
(414,1080,cs),
(292,1080,o),
(180,986,o),
(180,850,cs),
(180,720,o),
(282,624,o),
(404,624,cs)
);
},
{
closed = 1;
nodes = (
(292,-439,l),
(568,-202,o),
(644,19,o),
(644,173,cs),
(644,353,o),
(527,436,o),
(414,436,cs),
(295,436,o),
(180,344,o),
(180,206,cs),
(180,172,o),
(187,137,o),
(197,107,c),
(260,92,o),
(331,52,o),
(371,8,c),
(343,-118,o),
(267,-237,o),
(160,-358,c)
);
}
);
width = 824;
}
);
unicode = 59;
},
{
glyphname = equal;
layers = (
{
background = {
shapes = (
{
closed = 1;
nodes = (
(200,328,l),
(1154,328,l),
(1192,502,l),
(222,480,l)
);
},
{
closed = 1;
nodes = (
(200,712,l),
(1154,712,l),
(1192,888,l),
(222,864,l)
);
}
);
};
layerId = "C8089C2F-C663-459E-AF34-3AEDB7904EA9";
shapes = (
{
closed = 1;
nodes = (
(200,454,l),
(200,319,l),
(1173,319,l),
(1173,454,l)
);
},
{
closed = 1;
nodes = (
(200,864,l),
(200,729,l),
(1173,729,l),
(1173,864,l)
);
}
);
width = 1373;
},
{
layerId = "B30F41D4-F94E-4E62-9315-7D5BF3371191";
shapes = (
{
closed = 1;
nodes = (
(200,443,l),
(200,363,l),
(1155,363,l),
(1155,443,l)
);
},
{
closed = 1;
nodes = (
(200,819,l),
(200,738,l),
(1155,738,l),
(1155,819,l)
);
}
);
width = 1355;
},
{
background = {
shapes = (
{
closed = 1;
nodes = (
(200,328,l),
(1154,328,l),
(1192,502,l),
(222,480,l)
);
},
{
closed = 1;
nodes = (
(200,712,l),
(1154,712,l),
(1192,888,l),
(222,864,l)
);
}
);
};
layerId = "E5022B42-6572-4579-AE6E-2F10A1751A6E";
shapes = (
{
closed = 1;
nodes = (
(200,481,l),
(200,200,l),
(1222,200,l),
(1222,481,l)
);
},
{
closed = 1;
nodes = (
(200,986,l),
(200,705,l),
(1222,705,l),
(1222,986,l)
);
}
);
width = 1422;
},
{
layerId = "09C3E491-E9AE-4DC0-8F4F-6A6E8897705E";
shapes = (
{
closed = 1;
nodes = (
(200,476,l),
(200,221,l),
(1213,221,l),
(1213,476,l)
);
},
{
closed = 1;
nodes = (
(200,964,l),
(200,709,l),
(1213,709,l),
(1213,964,l)
);
}
);
width = 1413;
}
);
unicode = 61;
},
{
glyphname = bracketleft;
layers = (
{
background = {
shapes = (
{
closed = 1;
nodes = (
(250,-374,l),
(762,-374,l),
(790,-222,l),
(436,-238,l),
(436,1420,l),
(762,1420,l),
(790,1576,l),
(250,1554,l)
);
},
{
closed = 1;
nodes = (
(624,1592,l),
(368,1320,o),
(236,980,o),
(236,580,cs),
(236,180,o),
(368,-126,o),
(624,-398,c),
(720,-322,l),
(524,-90,o),
(436,226,o),
(436,596,cs),
(436,964,o),
(524,1286,o),
(720,1516,c)
);
}
);
};
layerId = "C8089C2F-C663-459E-AF34-3AEDB7904EA9";
shapes = (
{
closed = 1;
nodes = (
(250,-358,l),
(764,-358,l),
(764,-223,l),
(385,-223,l),
(385,1467,l),
(764,1467,l),
(764,1602,l),
(250,1602,l)
);
}
);
width = 894;
},
{
layerId = "B30F41D4-F94E-4E62-9315-7D5BF3371191";
shapes = (
{
closed = 1;
nodes = (
(254,-358,l),
(719,-358,l),
(719,-278,l),
(325,-278,l),
(325,1522,l),
(719,1522,l),
(719,1602,l),
(254,1602,l)
);
}
);
width = 858;
},
{
background = {
shapes = (
{
closed = 1;
nodes = (
(250,-374,l),
(762,-374,l),
(790,-222,l),
(436,-238,l),
(436,1420,l),
(762,1420,l),
(790,1576,l),
(250,1554,l)
);
},
{
closed = 1;
nodes = (
(624,1592,l),
(368,1320,o),
(236,980,o),
(236,580,cs),
(236,180,o),
(368,-126,o),
(624,-398,c),
(720,-322,l),
(524,-90,o),
(436,226,o),
(436,596,cs),
(436,964,o),
(524,1286,o),
(720,1516,c)
);
}
);
};
layerId = "E5022B42-6572-4579-AE6E-2F10A1751A6E";
shapes = (
{
closed = 1;
nodes = (
(238,-358,l),
(886,-358,l),
(886,-77,l),
(543,-77,l),
(543,1321,l),
(886,1321,l),
(886,1602,l),
(238,1602,l)
);
}
);
width = 991;
},
{
layerId = "09C3E491-E9AE-4DC0-8F4F-6A6E8897705E";
shapes = (
{
closed = 1;
nodes = (
(240,-358,l),
(864,-358,l),
(864,-103,l),
(515,-103,l),
(515,1347,l),
(864,1347,l),
(864,1602,l),
(240,1602,l)
);
}
);
width = 974;
}
);
rightKerningGroup = _parenleft_Left;
unicode = 91;
},
{
glyphname = asciitilde;
layers = (
{
background = {
shapes = (
{
closed = 1;
nodes = (
(717,455,o),
(655,817,o),
(425,817,cs),
(296,817,o),
(85,699,o),
(106,361,c),
(211,361,l),
(201,588,o),
(295,723,o),
(401,723,cs),
(574,723,o),
(653,361,o),
(856,361,cs),
(998,361,o),
(1209,470,o),
(1189,817,c),
(1084,817,l),
(1094,585,o),
(997,455,o),
(893,455,cs)
);
}
);
};
layerId = "C8089C2F-C663-459E-AF34-3AEDB7904EA9";
shapes = (
{
closed = 1;
nodes = (
(745,480,o),
(692,824,o),
(452,824,cs),
(312,824,o),
(104,707,o),
(121,354,c),
(256,354,l),
(248,574,o),
(330,698,o),
(429,698,cs),
(593,698,o),
(660,354,o),
(879,354,c),
(1029,354,o),
(1237,464,o),
(1221,824,c),
(1086,824,l),
(1094,600,o),
(1010,480,o),
(912,480,cs)
);
}
);
width = 1342;
},
{
layerId = "B30F41D4-F94E-4E62-9315-7D5BF3371191";
shapes = (
{
closed = 1;
nodes = (
(687,435,o),
(623,811,o),
(403,811,cs),
(277,811,o),
(69,687,o),
(94,367,c),
(174,367,l),
(163,599,o),
(275,743,o),
(387,743,cs),
(568,743,o),
(647,367,o),
(837,367,cs),
(973,367,o),
(1186,475,o),
(1163,811,c),
(1082,811,l),
(1094,573,o),
(977,435,o),
(868,435,cs)
);
}
);
width = 1257;
},
{
background = {
shapes = (
{
closed = 1;
nodes = (
(745,480,o),
(692,824,o),
(452,824,cs),
(312,824,o),
(104,707,o),
(121,354,c),
(256,354,l),
(248,574,o),
(330,698,o),
(429,698,cs),
(593,698,o),
(660,354,o),
(879,354,cs),
(1029,354,o),
(1237,464,o),
(1221,824,c),
(1086,824,l),
(1094,600,o),
(1010,480,o),
(912,480,cs)
);
}
);
};
layerId = "E5022B42-6572-4579-AE6E-2F10A1751A6E";
shapes = (
{
closed = 1;
nodes = (
(883,601,o),
(871,858,o),
(581,858,cs),
(389,858,o),
(197,744,o),
(193,317,c),
(474,317,l),
(476,503,o),
(498,575,o),
(563,575,cs),
(687,575,o),
(695,317,o),
(990,317,cs),
(1180,317,o),
(1372,434,o),
(1376,858,c),
(1095,858,l),
(1093,673,o),
(1071,601,o),
(1006,601,cs)
);
}
);
width = 1568;
},
{
layerId = "09C3E491-E9AE-4DC0-8F4F-6A6E8897705E";
shapes = (
{
closed = 1;
nodes = (
(858,579,o),
(839,852,o),
(558,852,cs),
(375,852,o),
(180,737,o),
(180,324,c),
(435,324,l),
(435,516,o),
(468,597,o),
(539,597,cs),
(670,597,o),
(689,324,o),
(970,324,c),
(1153,324,o),
(1348,439,o),
(1348,852,c),
(1093,852,l),
(1093,660,o),
(1060,579,o),
(989,579,cs)
);
}
);
width = 1528;
}
);
unicode = 126;
},
{
glyphname = quoteleft;
layers = (
{
background = {
shapes = (
{
closed = 1;
nodes = (
(386,1632,l),
(218,1491,o),
(139,1336,o),
(139,1215,cs),
(139,1087,o),
(210,1041,o),
(274,1041,cs),
(365,1041,o),
(398,1123,o),
(398,1168,cs),
(398,1182,o),
(395,1211,o),
(385,1226,c),
(341,1235,o),
(281,1267,o),
(254,1291,c),
(269,1375,o),
(345,1505,o),
(431,1597,c)
);
}
);
};
layerId = "C8089C2F-C663-459E-AF34-3AEDB7904EA9";
shapes = (
{
closed = 1;
nodes = (
(408,1632,l),
(218,1472,o),
(140,1304,o),
(140,1176,cs),
(140,1038,o),
(220,984,o),
(294,984,cs),
(390,984,o),
(440,1068,o),
(440,1132,cs),
(440,1150,o),
(436,1180,o),
(426,1198,c),
(378,1208,o),
(316,1242,o),
(286,1270,c),
(304,1362,o),
(380,1490,o),
(470,1588,c)
);
}
);
width = 600;
},
{
layerId = "B30F41D4-F94E-4E62-9315-7D5BF3371191";
shapes = (
{
closed = 1;
nodes = (
(350,1623,l),
(214,1512,o),
(140,1379,o),
(140,1272,cs),
(140,1163,o),
(198,1128,o),
(249,1128,cs),
(326,1128,o),
(344,1201,o),
(344,1228,cs),
(344,1237,o),
(341,1264,o),
(333,1273,c),
(296,1281,o),
(243,1311,o),
(219,1330,c),
(231,1397,o),
(302,1519,o),
(377,1599,c)
);
}
);
width = 507;
},
{
background = {
shapes = (
{
closed = 1;
nodes = (
(395,1568,l),
(197,1406,o),
(137,1214,o),
(137,1088,cs),
(137,946,o),
(225,894,o),
(295,894,cs),
(381,894,o),
(451,966,o),
(451,1048,cs),
(451,1070,o),
(447,1100,o),
(427,1136,c),
(383,1148,o),
(351,1166,o),
(323,1194,c),
(333,1298,o),
(371,1404,o),
(469,1516,c)
);
}
);
};
layerId = "E5022B42-6572-4579-AE6E-2F10A1751A6E";
shapes = (
{
closed = 1;
nodes = (
(498,1632,l),
(203,1378,o),
(128,1146,o),
(128,986,cs),
(128,797,o),
(253,708,o),
(374,708,cs),
(498,708,o),
(627,801,o),
(627,955,cs),
(627,993,o),
(620,1029,o),
(610,1062,c),
(544,1078,o),
(471,1119,o),
(428,1167,c),
(459,1300,o),
(535,1417,o),
(645,1543,c)
);
}
);
width = 763;
},
{
layerId = "09C3E491-E9AE-4DC0-8F4F-6A6E8897705E";
shapes = (
{
closed = 1;
nodes = (
(482,1632,l),
(206,1395,o),
(130,1174,o),
(130,1020,cs),
(130,840,o),
(247,757,o),
(360,757,cs),
(479,757,o),
(594,849,o),
(594,987,cs),
(594,1021,o),
(587,1056,o),
(577,1086,c),
(514,1101,o),
(443,1141,o),
(403,1185,c),
(431,1311,o),
(507,1430,o),
(614,1551,c)
);
}
);
width = 734;
}
);
unicode = 8216;
},
{
glyphname = quotedblbase;
layers = (
{
background = {
shapes = (
{
closed = 1;
nodes = (
(174,-350,l),
(342,-210,o),
(421,-55,o),
(421,67,cs),
(421,194,o),
(350,241,o),
(286,241,cs),
(196,241,o),
(162,159,o),
(162,113,cs),
(162,99,o),
(165,71,o),
(175,56,c),
(219,47,o),
(279,14,o),
(307,-10,c),
(291,-93,o),
(215,-223,o),
(129,-316,c)
);
},
{
closed = 1;
nodes = (
(558,-350,l),
(727,-210,o),
(805,-55,o),
(805,67,cs),
(805,194,o),
(734,241,o),
(670,241,cs),
(580,241,o),
(546,159,o),
(546,113,cs),
(546,99,o),
(549,71,o),
(559,56,c),
(604,47,o),
(663,14,o),
(691,-10,c),
(675,-93,o),
(599,-223,o),
(514,-316,c)
);
}
);
};
layerId = "C8089C2F-C663-459E-AF34-3AEDB7904EA9";
shapes = (
{
closed = 1;
nodes = (
(192,-368,l),
(382,-208,o),
(460,-40,o),
(460,88,cs),
(460,226,o),
(380,280,o),
(306,280,cs),
(210,280,o),
(160,196,o),
(160,132,cs),
(160,114,o),
(164,84,o),
(174,66,c),
(222,56,o),
(284,22,o),
(314,-6,c),
(296,-98,o),
(220,-226,o),
(130,-324,c)
);
},
{
closed = 1;
nodes = (
(624,-368,l),
(814,-208,o),
(892,-40,o),
(892,88,cs),
(892,226,o),
(812,280,o),
(738,280,cs),
(642,280,o),
(592,196,o),
(592,132,cs),
(592,114,o),
(596,84,o),
(606,66,c),
(654,56,o),
(716,22,o),
(746,-6,c),
(728,-98,o),
(652,-226,o),
(562,-324,c)
);
}
);
width = 1032;
},
{
layerId = "B30F41D4-F94E-4E62-9315-7D5BF3371191";
shapes = (
{
closed = 1;
nodes = (
(157,-335,l),
(293,-224,o),
(367,-91,o),
(367,15,cs),
(367,124,o),
(309,160,o),
(259,160,cs),
(181,160,o),
(164,87,o),
(164,59,cs),
(164,50,o),
(166,24,o),
(174,15,c),
(211,7,o),
(264,-23,o),
(289,-42,c),
(276,-109,o),
(205,-231,o),
(130,-311,c)
);
},
{
closed = 1;
nodes = (
(484,-335,l),
(619,-224,o),
(694,-91,o),
(694,15,cs),
(694,124,o),
(636,160,o),
(585,160,cs),
(507,160,o),
(490,87,o),
(490,59,cs),
(490,50,o),
(492,24,o),
(501,15,c),
(538,7,o),
(591,-23,o),
(615,-42,c),
(603,-109,o),
(532,-231,o),
(457,-311,c)
);
}
);
width = 834;
},
{
background = {
shapes = (
{
closed = 1;
nodes = (
(272,-376,l),
(468,-216,o),
(528,-24,o),
(528,102,cs),
(528,244,o),
(440,296,o),
(372,296,cs),
(286,296,o),
(216,224,o),
(216,144,cs),
(216,122,o),
(220,90,o),
(242,56,c),
(284,42,o),
(314,24,o),
(344,-4,c),
(334,-110,o),
(296,-214,o),
(200,-326,c)
);
},
{
closed = 1;
nodes = (
(740,-376,l),
(938,-216,o),
(998,-24,o),
(998,102,cs),
(998,244,o),
(910,296,o),
(842,296,cs),
(756,296,o),
(682,224,o),
(682,144,cs),
(682,122,o),
(690,90,o),
(710,56,c),
(754,42,o),
(784,24,o),
(812,-4,c),
(802,-110,o),
(764,-214,o),
(668,-326,c)
);
}
);
};
layerId = "E5022B42-6572-4579-AE6E-2F10A1751A6E";
shapes = (
{
closed = 1;
nodes = (
(265,-454,l),
(560,-201,o),
(635,32,o),
(635,191,cs),
(635,381,o),
(510,470,o),
(389,470,cs),
(265,470,o),
(136,376,o),
(136,222,cs),
(136,185,o),
(143,149,o),
(153,116,c),
(220,100,o),
(293,59,o),
(335,11,c),
(305,-122,o),
(229,-239,o),
(118,-365,c)
);
},
{
closed = 1;
nodes = (
(930,-454,l),
(1224,-201,o),
(1300,32,o),
(1300,191,cs),
(1300,381,o),
(1175,470,o),
(1053,470,cs),
(929,470,o),
(800,376,o),
(800,222,cs),
(800,185,o),
(808,149,o),
(818,116,c),
(884,100,o),
(957,59,o),
(999,11,c),
(969,-122,o),
(893,-239,o),
(782,-365,c)
);
}
);
width = 1428;
},
{
layerId = "09C3E491-E9AE-4DC0-8F4F-6A6E8897705E";
shapes = (
{
closed = 1;
nodes = (
(252,-439,l),
(528,-202,o),
(604,19,o),
(604,173,cs),
(604,353,o),
(487,436,o),
(374,436,cs),
(255,436,o),
(140,344,o),
(140,206,cs),
(140,172,o),
(147,137,o),
(157,107,c),
(220,92,o),
(291,52,o),
(331,8,c),
(303,-118,o),
(227,-237,o),
(120,-358,c)
);
},
{
closed = 1;
nodes = (
(875,-439,l),
(1151,-202,o),
(1227,19,o),
(1227,173,cs),
(1227,353,o),
(1110,436,o),
(997,436,cs),
(878,436,o),
(763,344,o),
(763,206,cs),
(763,172,o),
(770,137,o),
(780,107,c),
(843,92,o),
(914,52,o),
(954,8,c),
(926,-118,o),
(850,-237,o),
(743,-358,c)
);
}
);
width = 1357;
}
);
unicode = 8222;
},
{
glyphname = trademark;
layers = (
{
background = {
shapes = (
{
closed = 1;
nodes = (
(606,1329,l),
(883,1329,l),
(908,1465,l),
(175,1465,l),
(150,1329,l),
(439,1329,l),
(439,557,l),
(606,557,l)
);
},
{
closed = 1;
nodes = (
(1178,557,l),
(1214,1187,l),
(1214,1332,l),
(1234,1332,l),
(1268,1190,l),
(1469,576,l),
(1631,576,l),
(1829,1191,l),
(1862,1332,l),
(1882,1332,l),
(1883,1185,l),
(1920,557,l),
(2086,557,l),
(2015,1465,l),
(1781,1465,l),
(1599,899,l),
(1567,756,l),
(1548,756,l),
(1516,899,l),
(1333,1465,l),
(1094,1465,l),
(1024,557,l)
);
}
);
};
layerId = "C8089C2F-C663-459E-AF34-3AEDB7904EA9";
shapes = (
{
closed = 1;
nodes = (
(606,1329,l),
(883,1329,l),
(908,1465,l),
(175,1465,l),
(150,1329,l),
(439,1329,l),
(439,557,l),
(606,557,l)
);
},
{
closed = 1;
nodes = (
(1178,557,l),
(1211,1112,l),
(1214,1332,l),
(1234,1332,l),
(1294,1109,l),
(1469,576,l),
(1631,576,l),
(1803,1110,l),
(1862,1332,l),
(1882,1332,l),
(1887,1112,l),
(1920,557,l),
(2086,557,l),
(2015,1465,l),
(1781,1465,l),
(1623,974,l),
(1567,756,l),
(1548,756,l),
(1492,974,l),
(1333,1465,l),
(1094,1465,l),
(1024,557,l)
);
}
);
width = 2286;
},
{
layerId = "B30F41D4-F94E-4E62-9315-7D5BF3371191";
shapes = (
{
closed = 1;
nodes = (
(568,1365,l),
(867,1365,l),
(886,1465,l),
(180,1465,l),
(159,1365,l),
(457,1365,l),
(457,557,l),
(568,557,l)
);
},
{
closed = 1;
nodes = (
(1127,557,l),
(1167,1152,l),
(1174,1365,l),
(1194,1365,l),
(1258,1147,l),
(1460,576,l),
(1556,576,l),
(1754,1150,l),
(1818,1365,l),
(1838,1365,l),
(1847,1152,l),
(1887,557,l),
(1979,557,l),
(1910,1465,l),
(1783,1465,l),
(1579,865,l),
(1518,654,l),
(1499,654,l),
(1436,865,l),
(1231,1465,l),
(1092,1465,l),
(1024,557,l)
);
}
);
width = 2188;
},
{
background = {
shapes = (
{
closed = 1;
nodes = (
(606,1329,l),
(883,1329,l),
(908,1465,l),
(175,1465,l),
(150,1329,l),
(439,1329,l),
(439,557,l),
(606,557,l)
);
},
{
closed = 1;
nodes = (
(1178,557,l),
(1214,1187,l),
(1214,1332,l),
(1234,1332,l),
(1268,1190,l),
(1469,576,l),
(1631,576,l),
(1829,1191,l),
(1862,1332,l),
(1882,1332,l),
(1883,1185,l),
(1920,557,l),
(2086,557,l),
(2015,1465,l),
(1781,1465,l),
(1599,899,l),
(1567,756,l),
(1548,756,l),
(1516,899,l),
(1333,1465,l),
(1094,1465,l),
(1024,557,l)
);
}
);
};
layerId = "E5022B42-6572-4579-AE6E-2F10A1751A6E";
shapes = (
{
closed = 1;
nodes = (
(709,1233,l),
(927,1233,l),
(964,1465,l),
(162,1465,l),
(126,1233,l),
(389,1233,l),
(389,557,l),
(709,557,l)
);
},
{
closed = 1;
nodes = (
(1316,557,l),
(1329,1004,l),
(1322,1243,l),
(1342,1243,l),
(1391,1004,l),
(1493,574,l),
(1829,574,l),
(1936,1003,l),
(1980,1243,l),
(2000,1243,l),
(1995,1002,l),
(2009,557,l),
(2373,557,l),
(2299,1465,l),
(1777,1465,l),
(1741,1264,l),
(1697,1029,l),
(1677,1029,l),
(1641,1264,l),
(1603,1465,l),
(1096,1465,l),
(1022,557,l)
);
}
);
width = 2549;
},
{
layerId = "09C3E491-E9AE-4DC0-8F4F-6A6E8897705E";
shapes = (
{
closed = 1;
nodes = (
(691,1250,l),
(919,1250,l),
(954,1465,l),
(164,1465,l),
(130,1250,l),
(398,1250,l),
(398,557,l),
(691,557,l)
);
},
{
closed = 1;
nodes = (
(1291,557,l),
(1308,1023,l),
(1303,1259,l),
(1323,1259,l),
(1374,1023,l),
(1489,574,l),
(1794,574,l),
(1912,1022,l),
(1959,1259,l),
(1979,1259,l),
(1976,1022,l),
(1993,557,l),
(2322,557,l),
(2248,1465,l),
(1778,1465,l),
(1720,1212,l),
(1674,980,l),
(1654,980,l),
(1614,1212,l),
(1555,1465,l),
(1096,1465,l),
(1022,557,l)
);
}
);
width = 2502;
}
);
unicode = 8482;
},
{
glyphname = greater;
layers = (
{
background = {
shapes = (
{
closed = 1;
nodes = (
(290,1174,l),
(174,1028,l),
(482,764,l),
(566,696,o),
(646,636,o),
(720,586,c),
(720,570,l),
(648,518,o),
(568,458,o),
(484,390,cs),
(174,130,l),
(282,0,l),
(916,564,l),
(928,610,l)
);
}
);
};
layerId = "C8089C2F-C663-459E-AF34-3AEDB7904EA9";
shapes = (
{
closed = 1;
nodes = (
(1013,650,l),
(200,1134,l),
(200,978,l),
(833,602,l),
(200,226,l),
(200,70,l),
(1013,554,l)
);
}
);
width = 1163;
},
{
layerId = "B30F41D4-F94E-4E62-9315-7D5BF3371191";
shapes = (
{
closed = 1;
nodes = (
(1009,612,l),
(195,1116,l),
(195,1020,l),
(878,602,l),
(195,184,l),
(195,88,l),
(1009,592,l)
);
}
);
width = 1159;
},
{
background = {
shapes = (
{
closed = 1;
nodes = (
(290,1174,l),
(174,1028,l),
(482,764,l),
(566,696,o),
(646,636,o),
(720,586,c),
(720,570,l),
(648,518,o),
(568,458,o),
(484,390,c),
(174,130,l),
(282,0,l),
(916,564,l),
(928,610,l)
);
}
);
};
layerId = "E5022B42-6572-4579-AE6E-2F10A1751A6E";
shapes = (
{
closed = 1;
nodes = (
(1024,753,l),
(212,1183,l),
(212,865,l),
(709,602,l),
(212,339,l),
(212,21,l),
(1024,451,l)
);
}
);
width = 1174;
},
{
layerId = "09C3E491-E9AE-4DC0-8F4F-6A6E8897705E";
shapes = (
{
closed = 1;
nodes = (
(1022,735,l),
(210,1174,l),
(210,885,l),
(731,602,l),
(210,319,l),
(210,30,l),
(1022,469,l)
);
}
);
width = 1172;
}
);
unicode = 62;
},
{
glyphname = ellipsis;
layers = (
{
background = {
shapes = (
{
closed = 1;
nodes = (
(364,-20,o),
(415,44,o),
(415,107,cs),
(415,175,o),
(361,241,o),
(286,241,cs),
(212,241,o),
(160,174,o),
(160,108,cs),
(160,43,o),
(214,-20,o),
(289,-20,cs)
);
},
{
closed = 1;
nodes = (
(887,-20,o),
(939,44,o),
(939,107,cs),
(939,175,o),
(884,241,o),
(810,241,cs),
(735,241,o),
(683,174,o),
(683,108,cs),
(683,43,o),
(738,-20,o),
(812,-20,cs)
);
},
{
closed = 1;
nodes = (
(1411,-20,o),
(1462,44,o),
(1462,107,cs),
(1462,175,o),
(1408,241,o),
(1333,241,cs),
(1259,241,o),
(1207,174,o),
(1207,108,cs),
(1207,43,o),
(1261,-20,o),
(1336,-20,cs)
);
}
);
};
layerId = "C8089C2F-C663-459E-AF34-3AEDB7904EA9";
shapes = (
{
closed = 1;
nodes = (
(392,-20,o),
(456,50,o),
(456,128,cs),
(456,208,o),
(392,280,o),
(308,280,cs),
(224,280,o),
(160,208,o),
(160,128,cs),
(160,50,o),
(224,-20,o),
(308,-20,cs)
);
},
{
closed = 1;
nodes = (
(938,-20,o),
(1002,50,o),
(1002,128,cs),
(1002,208,o),
(938,280,o),
(854,280,cs),
(770,280,o),
(706,208,o),
(706,128,cs),
(706,50,o),
(770,-20,o),
(854,-20,cs)
);
},
{
closed = 1;
nodes = (
(1484,-20,o),
(1548,50,o),
(1548,128,cs),
(1548,208,o),
(1484,280,o),
(1400,280,cs),
(1316,280,o),
(1252,208,o),
(1252,128,cs),
(1252,50,o),
(1316,-20,o),
(1400,-20,cs)
);
}
);
width = 1708;
},
{
layerId = "B30F41D4-F94E-4E62-9315-7D5BF3371191";
shapes = (
{
closed = 1;
nodes = (
(303,-20,o),
(345,17,o),
(345,72,cs),
(345,124,o),
(303,160,o),
(253,160,cs),
(204,160,o),
(162,124,o),
(162,72,cs),
(162,17,o),
(204,-20,o),
(253,-20,cs)
);
},
{
closed = 1;
nodes = (
(787,-20,o),
(829,17,o),
(829,72,cs),
(829,124,o),
(787,160,o),
(738,160,cs),
(688,160,o),
(646,124,o),
(646,72,cs),
(646,17,o),
(688,-20,o),
(738,-20,cs)
);
},
{
closed = 1;
nodes = (
(1275,-20,o),
(1317,17,o),
(1317,72,cs),
(1317,124,o),
(1275,160,o),
(1225,160,cs),
(1176,160,o),
(1134,124,o),
(1134,72,cs),
(1134,17,o),
(1176,-20,o),
(1225,-20,cs)
);
}
);
width = 1552;
},
{
background = {
shapes = (
{
closed = 1;
nodes = (
(400,-22,o),
(468,52,o),
(468,136,cs),
(468,222,o),
(400,298,o),
(310,298,cs),
(218,298,o),
(150,222,o),
(150,136,cs),
(150,52,o),
(218,-22,o),
(310,-22,cs)
);
},
{
closed = 1;
nodes = (
(954,-22,o),
(1026,52,o),
(1026,136,cs),
(1026,222,o),
(954,298,o),
(864,298,cs),
(774,298,o),
(706,222,o),
(706,136,cs),
(706,52,o),
(774,-22,o),
(864,-22,cs)
);
},
{
closed = 1;
nodes = (
(1508,-22,o),
(1578,52,o),
(1578,136,cs),
(1578,222,o),
(1508,298,o),
(1418,298,cs),
(1328,298,o),
(1260,222,o),
(1260,136,cs),
(1260,52,o),
(1328,-22,o),
(1418,-22,cs)
);
}
);
};
layerId = "E5022B42-6572-4579-AE6E-2F10A1751A6E";
shapes = (
{
closed = 1;
nodes = (
(528,-20,o),
(653,79,o),
(653,228,cs),
(653,369,o),
(543,470,o),
(413,470,cs),
(282,470,o),
(160,371,o),
(160,223,cs),
(160,82,o),
(270,-20,o),
(401,-20,cs)
);
},
{
closed = 1;
nodes = (
(1184,-20,o),
(1309,79,o),
(1309,228,cs),
(1309,369,o),
(1199,470,o),
(1068,470,cs),
(938,470,o),
(816,371,o),
(816,223,cs),
(816,82,o),
(926,-20,o),
(1056,-20,cs)
);
},
{
closed = 1;
nodes = (
(1839,-20,o),
(1964,79,o),
(1964,228,cs),
(1964,369,o),
(1854,470,o),
(1724,470,cs),
(1594,470,o),
(1471,371,o),
(1471,223,cs),
(1471,82,o),
(1581,-20,o),
(1712,-20,cs)
);
}
);
width = 2124;
},
{
layerId = "09C3E491-E9AE-4DC0-8F4F-6A6E8897705E";
shapes = (
{
closed = 1;
nodes = (
(504,-20,o),
(618,74,o),
(618,210,cs),
(618,340,o),
(516,436,o),
(394,436,cs),
(272,436,o),
(160,342,o),
(160,206,cs),
(160,76,o),
(262,-20,o),
(384,-20,cs)
);
},
{
closed = 1;
nodes = (
(1140,-20,o),
(1254,74,o),
(1254,210,cs),
(1254,340,o),
(1152,436,o),
(1030,436,cs),
(908,436,o),
(796,342,o),
(796,206,cs),
(796,76,o),
(898,-20,o),
(1020,-20,cs)
);
},
{
closed = 1;
nodes = (
(1776,-20,o),
(1890,74,o),
(1890,210,cs),
(1890,340,o),
(1788,436,o),
(1666,436,cs),
(1544,436,o),
(1432,342,o),
(1432,206,cs),
(1432,76,o),
(1534,-20,o),
(1656,-20,cs)
);
}
);
width = 2050;
}
);
unicode = 8230;
},
{
glyphname = c;
layers = (
{
background = {
shapes = (
{
closed = 1;
nodes = (
(912,177,l),
(812,128,o),
(707,115,o),
(644,115,cs),
(433,115,o),
(265,263,o),
(265,523,cs),
(265,794,o),
(448,949,o),
(635,949,cs),
(713,949,o),
(802,922,o),
(857,884,c),
(880,894,l),
(914,1027,l),
(863,1060,o),
(756,1080,o),
(670,1080,cs),
(371,1080,o),
(117,837,o),
(117,497,cs),
(117,195,o),
(318,-20,o),
(596,-20,cs),
(730,-20,o),
(842,30,o),
(912,83,c)
);
}
);
};
layerId = "C8089C2F-C663-459E-AF34-3AEDB7904EA9";
shapes = (
{
closed = 1;
nodes = (
(918,198,l),
(822,152,o),
(731,140,o),
(670,140,cs),
(465,140,o),
(310,278,o),
(310,533,cs),
(310,784,o),
(460,928,o),
(638,928,cs),
(716,928,o),
(804,898,o),
(856,858,c),
(878,868,l),
(918,1034,l),
(856,1066,o),
(754,1080,o),
(678,1080,cs),
(360,1080,o),
(110,832,o),
(110,487,cs),
(110,190,o),
(296,-20,o),
(584,-20,cs),
(718,-20,o),
(836,26,o),
(918,90,c)
);
}
);
width = 1038;
},
{
layerId = "B30F41D4-F94E-4E62-9315-7D5BF3371191";
shapes = (
{
closed = 1;
nodes = (
(923,160,l),
(833,116,o),
(722,95,o),
(641,95,cs),
(438,95,o),
(234,233,o),
(234,515,cs),
(234,802,o),
(445,966,o),
(643,966,cs),
(723,966,o),
(815,942,o),
(874,905,c),
(898,915,l),
(927,1021,l),
(885,1055,o),
(772,1080,o),
(676,1080,cs),
(387,1080,o),
(125,841,o),
(125,505,cs),
(125,199,o),
(341,-20,o),
(617,-20,cs),
(753,-20,o),
(861,33,o),
(923,72,c)
);
}
);
width = 1051;
},
{
background = {
shapes = (
{
closed = 1;
nodes = (
(918,188,l),
(822,142,o),
(731,130,o),
(670,130,cs),
(465,130,o),
(310,268,o),
(310,533,cs),
(310,794,o),
(460,938,o),
(638,938,cs),
(716,938,o),
(804,908,o),
(856,868,c),
(878,878,l),
(918,1034,l),
(856,1066,o),
(754,1080,o),
(678,1080,cs),
(360,1080,o),
(110,832,o),
(110,487,cs),
(110,190,o),
(296,-20,o),
(584,-20,cs),
(718,-20,o),
(836,26,o),
(918,90,c)
);
}
);
};
layerId = "E5022B42-6572-4579-AE6E-2F10A1751A6E";
shapes = (
{
closed = 1;
nodes = (
(991,298,l),
(912,269,o),
(873,259,o),
(814,259,cs),
(644,259,o),
(529,332,o),
(529,538,cs),
(529,715,o),
(613,826,o),
(752,826,cs),
(829,826,o),
(901,793,o),
(939,773,c),
(956,783,l),
(1013,1046,l),
(900,1076,o),
(804,1080,o),
(750,1080,cs),
(371,1080,o),
(73,837,o),
(73,474,cs),
(73,185,o),
(261,-20,o),
(605,-20,cs),
(731,-20,o),
(851,7,o),
(991,124,c)
);
}
);
width = 1054;
},
{
layerId = "09C3E491-E9AE-4DC0-8F4F-6A6E8897705E";
shapes = (
{
closed = 1;
nodes = (
(978,280,l),
(896,248,o),
(848,238,o),
(788,238,cs),
(612,238,o),
(490,322,o),
(490,537,cs),
(490,727,o),
(586,844,o),
(732,844,cs),
(809,844,o),
(884,812,o),
(924,788,c),
(942,798,l),
(996,1044,l),
(892,1074,o),
(795,1080,o),
(737,1080,cs),
(369,1080,o),
(80,836,o),
(80,476,cs),
(80,186,o),
(267,-20,o),
(601,-20,cs),
(729,-20,o),
(848,10,o),
(978,118,c)
);
}
);
width = 1051;
}
);
leftKerningGroup = _c_Right;
rightKerningGroup = _c_Left;
unicode = 99;
},
{
glyphname = h;
layers = (
{
background = {
shapes = (
{
closed = 1;
nodes = (
(182,0,l),
(324,0,l),
(324,765,l),
(439,874,o),
(549,944,o),
(671,944,cs),
(807,944,o),
(901,857,o),
(901,689,cs),
(901,0,l),
(1043,0,l),
(1043,710,ls),
(1043,937,o),
(906,1080,o),
(716,1080,cs),
(549,1080,o),
(415,969,o),
(324,887,c),
(324,1602,l),
(182,1602,l)
);
}
);
};
layerId = "C8089C2F-C663-459E-AF34-3AEDB7904EA9";
shapes = (
{
closed = 1;
nodes = (
(176,0,l),
(366,0,l),
(366,760,l),
(468,856,o),
(564,920,o),
(676,920,cs),
(800,920,o),
(892,842,o),
(892,686,cs),
(892,0,l),
(1082,0,l),
(1082,702,ls),
(1082,928,o),
(956,1080,o),
(764,1080,cs),
(604,1080,o),
(462,974,o),
(366,888,c),
(366,1602,l),
(176,1602,l)
);
}
);
width = 1258;
},
{
layerId = "B30F41D4-F94E-4E62-9315-7D5BF3371191";
shapes = (
{
closed = 1;
nodes = (
(191,0,l),
(295,0,l),
(295,756,l),
(423,889,o),
(555,965,o),
(683,965,cs),
(825,965,o),
(925,869,o),
(925,691,cs),
(925,0,l),
(1029,0,l),
(1029,717,ls),
(1029,944,o),
(881,1080,o),
(689,1080,cs),
(513,1080,o),
(384,965,o),
(295,873,c),
(295,1602,l),
(191,1602,l)
);
}
);
width = 1220;
},
{
background = {
shapes = (
{
closed = 1;
nodes = (
(88,0,l),
(183,0,l),
(183,399,l),
(234,442,o),
(283,468,o),
(334,468,cs),
(401,468,o),
(446,429,o),
(446,351,cs),
(446,0,l),
(541,0,l),
(541,355,ls),
(541,467,o),
(479,544,o),
(381,544,cs),
(303,544,o),
(231,491,o),
(183,448,c),
(183,815,l),
(88,784,l)
);
}
);
};
layerId = "E5022B42-6572-4579-AE6E-2F10A1751A6E";
shapes = (
{
closed = 1;
nodes = (
(132,0,l),
(578,0,l),
(578,745,l),
(619,776,o),
(666,801,o),
(713,801,cs),
(781,801,o),
(836,747,o),
(836,652,cs),
(836,0,l),
(1282,0,l),
(1282,721,ls),
(1282,940,o),
(1143,1080,o),
(956,1080,cs),
(806,1080,o),
(691,986,o),
(578,893,c),
(578,1602,l),
(132,1602,l)
);
}
);
width = 1414;
},
{
layerId = "09C3E491-E9AE-4DC0-8F4F-6A6E8897705E";
shapes = (
{
closed = 1;
nodes = (
(140,0,l),
(540,0,l),
(540,748,l),
(592,790,o),
(648,822,o),
(706,822,cs),
(784,822,o),
(846,764,o),
(846,658,cs),
(846,0,l),
(1246,0,l),
(1246,718,ls),
(1246,938,o),
(1110,1080,o),
(922,1080,cs),
(770,1080,o),
(650,984,o),
(540,892,c),
(540,1602,l),
(140,1602,l)
);
}
);
width = 1386;
}
);
leftKerningGroup = _b_Right;
rightKerningGroup = _h_Left;
unicode = 104;
},
{
glyphname = i;
layers = (
{
layerId = "C8089C2F-C663-459E-AF34-3AEDB7904EA9";
shapes = (
{
closed = 1;
nodes = (
(175,0,l),
(365,0,l),
(365,1060,l),
(175,1060,l)
);
},
{
closed = 1;
nodes = (
(336,1290,o),
(392,1339,o),
(392,1411,cs),
(392,1479,o),
(340,1534,o),
(275,1534,cs),
(208,1534,o),
(152,1479,o),
(152,1409,cs),
(152,1341,o),
(204,1290,o),
(271,1290,cs)
);
}
);
width = 544;
},
{
layerId = "B30F41D4-F94E-4E62-9315-7D5BF3371191";
shapes = (
{
closed = 1;
nodes = (
(191,0,l),
(296,0,l),
(296,1060,l),
(191,1060,l)
);
},
{
closed = 1;
nodes = (
(294,1328,o),
(334,1372,o),
(334,1418,cs),
(334,1468,o),
(291,1509,o),
(239,1509,cs),
(190,1509,o),
(150,1468,o),
(150,1420,cs),
(150,1370,o),
(193,1328,o),
(242,1328,cs)
);
}
);
width = 484;
},
{
background = {
shapes = (
{
closed = 1;
nodes = (
(175,0,l),
(365,0,l),
(365,1060,l),
(175,1060,l)
);
},
{
closed = 1;
nodes = (
(333,1300,o),
(389,1344,o),
(389,1416,cs),
(389,1484,o),
(337,1534,o),
(275,1534,cs),
(211,1534,o),
(155,1484,o),
(155,1414,cs),
(155,1346,o),
(207,1300,o),
(271,1300,cs)
);
}
);
};
layerId = "E5022B42-6572-4579-AE6E-2F10A1751A6E";
shapes = (
{
closed = 1;
nodes = (
(132,0,l),
(578,0,l),
(578,1060,l),
(132,1060,l)
);
},
{
closed = 1;
nodes = (
(502,1188,o),
(606,1283,o),
(606,1399,cs),
(606,1511,o),
(513,1600,o),
(361,1600,cs),
(208,1600,o),
(103,1506,o),
(103,1390,cs),
(103,1278,o),
(197,1188,o),
(348,1188,cs)
);
}
);
width = 710;
},
{
layerId = "09C3E491-E9AE-4DC0-8F4F-6A6E8897705E";
shapes = (
{
closed = 1;
nodes = (
(140,0,l),
(540,0,l),
(540,1060,l),
(140,1060,l)
);
},
{
closed = 1;
nodes = (
(472,1206,o),
(568,1293,o),
(568,1401,cs),
(568,1505,o),
(482,1588,o),
(346,1588,cs),
(208,1588,o),
(112,1501,o),
(112,1393,cs),
(112,1289,o),
(198,1206,o),
(334,1206,cs)
);
}
);
width = 680;
}
);
unicode = 105;
},
{
glyphname = j;
layers = (
{
background = {
shapes = (
{
closed = 1;
nodes = (
(-24,-559,l),
(226,-408,o),
(321,-142,o),
(321,92,cs),
(321,1060,l),
(184,1060,l),
(184,69,ls),
(184,-111,o),
(152,-329,o),
(-58,-495,c)
);
},
{
closed = 1;
nodes = (
(301,1311,o),
(347,1350,o),
(347,1413,cs),
(347,1472,o),
(303,1520,o),
(256,1520,cs),
(207,1520,o),
(161,1473,o),
(161,1413,cs),
(161,1354,o),
(204,1311,o),
(254,1311,cs)
);
}
);
};
layerId = "C8089C2F-C663-459E-AF34-3AEDB7904EA9";
shapes = (
{
closed = 1;
nodes = (
(-7,-558,l),
(271,-408,o),
(365,-138,o),
(365,108,cs),
(365,1060,l),
(175,1060,l),
(175,70,ls),
(175,-112,o),
(139,-322,o),
(-57,-478,c)
);
},
{
closed = 1;
nodes = (
(335,1290,o),
(391,1339,o),
(391,1411,cs),
(391,1479,o),
(339,1534,o),
(274,1534,cs),
(207,1534,o),
(151,1479,o),
(151,1409,cs),
(151,1341,o),
(203,1290,o),
(270,1290,cs)
);
}
);
width = 542;
},
{
layerId = "B30F41D4-F94E-4E62-9315-7D5BF3371191";
shapes = (
{
closed = 1;
nodes = (
(-51,-560,l),
(180,-408,o),
(296,-185,o),
(296,61,cs),
(296,1060,l),
(191,1060,l),
(191,68,ls),
(191,-121,o),
(121,-324,o),
(-104,-498,c)
);
},
{
closed = 1;
nodes = (
(295,1328,o),
(335,1372,o),
(335,1418,cs),
(335,1468,o),
(292,1509,o),
(239,1509,cs),
(191,1509,o),
(151,1468,o),
(151,1420,cs),
(151,1370,o),
(194,1328,o),
(243,1328,cs)
);
}
);
width = 486;
},
{
background = {
shapes = (
{
closed = 1;
nodes = (
(-46,-261,l),
(111,-194,o),
(171,-74,o),
(171,41,cs),
(171,508,l),
(75,485,l),
(75,33,ls),
(75,-52,o),
(44,-152,o),
(-71,-220,c)
);
},
{
closed = 1;
nodes = (
(158,614,o),
(186,640,o),
(186,676,cs),
(186,709,o),
(159,737,o),
(125,737,cs),
(90,737,o),
(62,709,o),
(62,676,cs),
(62,640,o),
(89,614,o),
(124,614,cs)
);
}
);
};
layerId = "E5022B42-6572-4579-AE6E-2F10A1751A6E";
shapes = (
{
closed = 1;
nodes = (
(77,-556,l),
(491,-410,o),
(578,-119,o),
(578,186,cs),
(578,1060,l),
(132,1060,l),
(132,75,ls),
(132,-117,o),
(77,-288,o),
(-51,-395,c)
);
},
{
closed = 1;
nodes = (
(502,1188,o),
(606,1283,o),
(606,1399,cs),
(606,1511,o),
(513,1600,o),
(362,1600,cs),
(208,1600,o),
(104,1506,o),
(104,1390,cs),
(104,1278,o),
(197,1188,o),
(348,1188,cs)
);
}
);
width = 710;
},
{
layerId = "09C3E491-E9AE-4DC0-8F4F-6A6E8897705E";
shapes = (
{
closed = 1;
nodes = (
(62,-556,l),
(452,-410,o),
(540,-122,o),
(540,172,cs),
(540,1060,l),
(140,1060,l),
(140,74,ls),
(140,-116,o),
(88,-294,o),
(-52,-410,c)
);
},
{
closed = 1;
nodes = (
(472,1206,o),
(568,1293,o),
(568,1401,cs),
(568,1505,o),
(482,1588,o),
(346,1588,cs),
(208,1588,o),
(112,1501,o),
(112,1393,cs),
(112,1289,o),
(198,1206,o),
(334,1206,cs)
);
}
);
width = 680;
}
);
unicode = 106;
},
{
glyphname = l;
layers = (
{
layerId = "C8089C2F-C663-459E-AF34-3AEDB7904EA9";
shapes = (
{
closed = 1;
nodes = (
(176,0,l),
(366,0,l),
(366,1602,l),
(176,1602,l)
);
}
);
width = 542;
},
{
layerId = "B30F41D4-F94E-4E62-9315-7D5BF3371191";
shapes = (
{
closed = 1;
nodes = (
(191,0,l),
(295,0,l),
(295,1602,l),
(191,1602,l)
);
}
);
width = 486;
},
{
layerId = "E5022B42-6572-4579-AE6E-2F10A1751A6E";
shapes = (
{
closed = 1;
nodes = (
(132,0,l),
(578,0,l),
(578,1602,l),
(132,1602,l)
);
}
);
width = 710;
},
{
layerId = "09C3E491-E9AE-4DC0-8F4F-6A6E8897705E";
shapes = (
{
closed = 1;
nodes = (
(140,0,l),
(540,0,l),
(540,1602,l),
(140,1602,l)
);
}
);
width = 680;
}
);
leftKerningGroup = _b_Right;
unicode = 108;
},
{
glyphname = m;
layers = (
{
background = {
shapes = (
{
closed = 1;
nodes = (
(182,0,l),
(324,0,l),
(324,758,l),
(439,874,o),
(553,945,o),
(659,945,cs),
(776,945,o),
(871,857,o),
(871,689,cs),
(871,0,l),
(1013,0,l),
(1013,710,ls),
(1013,936,o),
(876,1080,o),
(702,1080,cs),
(551,1080,o),
(413,972,o),
(316,872,c),
(295,1060,l),
(182,1060,l)
);
},
{
closed = 0;
nodes = (
(1013,758,l),
(1128,874,o),
(1242,945,o),
(1348,945,cs),
(1465,945,o),
(1560,857,o),
(1560,689,cs),
(1560,0,l),
(1702,0,l),
(1702,710,ls),
(1702,936,o),
(1565,1080,o),
(1391,1080,cs),
(1240,1080,o),
(1102,972,o),
(1005,872,c)
);
}
);
};
layerId = "C8089C2F-C663-459E-AF34-3AEDB7904EA9";
shapes = (
{
closed = 1;
nodes = (
(176,0,l),
(366,0,l),
(366,760,l),
(462,852,o),
(546,920,o),
(652,920,cs),
(778,920,o),
(862,828,o),
(862,684,cs),
(862,0,l),
(1052,0,l),
(1052,700,ls),
(1052,723,o),
(1051,740,o),
(1049,758,c),
(1149,852,o),
(1234,920,o),
(1342,920,cs),
(1470,920,o),
(1550,828,o),
(1550,684,cs),
(1550,0,l),
(1740,0,l),
(1740,700,ls),
(1740,918,o),
(1618,1080,o),
(1424,1080,cs),
(1258,1080,o),
(1126,960,o),
(1026,872,c),
(982,998,o),
(862,1080,o),
(742,1080,cs),
(596,1080,o),
(446,962,o),
(354,876,c),
(324,1060,l),
(176,1060,l)
);
}
);
width = 1924;
},
{
layerId = "B30F41D4-F94E-4E62-9315-7D5BF3371191";
shapes = (
{
closed = 1;
nodes = (
(191,0,l),
(295,0,l),
(295,756,l),
(427,892,o),
(570,965,o),
(677,965,cs),
(789,965,o),
(895,881,o),
(895,693,cs),
(895,0,l),
(999,0,l),
(999,718,ls),
(999,739,o),
(996,765,o),
(994,789,c),
(1113,905,o),
(1243,965,o),
(1353,965,cs),
(1490,965,o),
(1597,881,o),
(1597,693,cs),
(1597,0,l),
(1702,0,l),
(1702,718,ls),
(1702,953,o),
(1551,1080,o),
(1369,1080,cs),
(1207,1080,o),
(1061,978,o),
(970,874,c),
(917,1007,o),
(817,1080,o),
(682,1080,cs),
(523,1080,o),
(393,980,o),
(290,869,c),
(277,1060,l),
(191,1060,l)
);
}
);
width = 1886;
},
{
background = {
shapes = (
{
closed = 1;
nodes = (
(88,0,l),
(183,0,l),
(183,399,l),
(231,440,o),
(274,468,o),
(325,468,cs),
(390,468,o),
(431,422,o),
(431,350,cs),
(431,0,l),
(526,0,l),
(526,354,ls),
(526,370,o),
(526,387,o),
(524,398,c),
(574,440,o),
(618,468,o),
(670,468,cs),
(736,468,o),
(775,422,o),
(775,350,cs),
(775,0,l),
(870,0,l),
(870,354,ls),
(870,463,o),
(809,544,o),
(711,544,cs),
(629,544,o),
(563,484,o),
(513,440,c),
(489,507,o),
(428,544,o),
(369,544,cs),
(299,544,o),
(223,485,o),
(177,442,c),
(162,544,l),
(88,514,l)
);
}
);
};
layerId = "E5022B42-6572-4579-AE6E-2F10A1751A6E";
shapes = (
{
closed = 1;
nodes = (
(132,0,l),
(578,0,l),
(578,745,l),
(618,777,o),
(660,801,o),
(701,801,cs),
(766,801,o),
(813,745,o),
(813,652,cs),
(813,0,l),
(1259,0,l),
(1259,719,ls),
(1259,727,o),
(1259,738,o),
(1257,746,c),
(1296,777,o),
(1336,801,o),
(1381,801,cs),
(1443,801,o),
(1494,745,o),
(1494,652,cs),
(1494,0,l),
(1940,0,l),
(1940,719,ls),
(1940,913,o),
(1813,1080,o),
(1604,1080,cs),
(1448,1080,o),
(1340,978,o),
(1226,885,c),
(1185,980,o),
(1086,1080,o),
(925,1080,cs),
(783,1080,o),
(663,977,o),
(566,893,c),
(516,1060,l),
(132,1060,l)
);
}
);
width = 2070;
},
{
layerId = "09C3E491-E9AE-4DC0-8F4F-6A6E8897705E";
shapes = (
{
closed = 1;
nodes = (
(140,0,l),
(540,0,l),
(540,748,l),
(590,790,o),
(640,822,o),
(692,822,cs),
(768,822,o),
(822,760,o),
(822,658,cs),
(822,0,l),
(1222,0,l),
(1222,716,ls),
(1222,726,o),
(1222,738,o),
(1220,748,c),
(1270,790,o),
(1318,822,o),
(1374,822,cs),
(1448,822,o),
(1504,760,o),
(1504,658,cs),
(1504,0,l),
(1904,0,l),
(1904,716,ls),
(1904,914,o),
(1778,1080,o),
(1572,1080,cs),
(1414,1080,o),
(1302,975,o),
(1190,883,c),
(1149,983,o),
(1046,1080,o),
(892,1080,cs),
(750,1080,o),
(624,974,o),
(528,890,c),
(482,1060,l),
(140,1060,l)
);
}
);
width = 2044;
}
);
leftKerningGroup = _m_Right;
rightKerningGroup = _h_Left;
unicode = 109;
},
{
glyphname = p;
layers = (
{
layerId = "C8089C2F-C663-459E-AF34-3AEDB7904EA9";
shapes = (
{
closed = 1;
nodes = (
(366,760,l),
(456,854,o),
(560,920,o),
(670,920,cs),
(850,920,o),
(970,746,o),
(970,540,cs),
(970,308,o),
(818,132,o),
(599,132,cs),
(542,132,o),
(440,144,o),
(366,180,c)
);
},
{
closed = 1;
nodes = (
(320,1060,l),
(176,1060,l),
(176,-536,l),
(366,-536,l),
(366,6,l),
(424,-10,o),
(508,-20,o),
(574,-20,cs),
(900,-20,o),
(1170,228,o),
(1170,573,cs),
(1170,835,o),
(1014,1080,o),
(756,1080,cs),
(580,1080,o),
(448,966,o),
(354,876,c)
);
}
);
width = 1280;
},
{
layerId = "B30F41D4-F94E-4E62-9315-7D5BF3371191";
shapes = (
{
closed = 1;
nodes = (
(295,764,l),
(425,898,o),
(549,965,o),
(679,965,cs),
(901,965,o),
(1028,764,o),
(1028,529,cs),
(1028,261,o),
(862,94,o),
(563,94,cs),
(518,94,o),
(436,95,o),
(295,151,c)
);
},
{
closed = 1;
nodes = (
(280,1060,l),
(191,1060,l),
(191,-536,l),
(295,-536,l),
(295,17,l),
(359,3,o),
(430,-20,o),
(538,-20,cs),
(880,-20,o),
(1137,217,o),
(1137,549,cs),
(1137,822,o),
(965,1080,o),
(705,1080,cs),
(522,1080,o),
(373,946,o),
(290,871,c)
);
}
);
width = 1262;
},
{
background = {
shapes = (
{
closed = 1;
nodes = (
(160,544,l),
(88,514,l),
(88,-268,l),
(183,-268,l),
(183,-1,l),
(212,-9,o),
(256,-14,o),
(281,-14,cs),
(451,-14,o),
(585,109,o),
(585,285,cs),
(585,422,o),
(509,544,o),
(375,544,cs),
(291,544,o),
(224,487,o),
(177,442,c)
);
},
{
closed = 1;
nodes = (
(183,399,l),
(228,442,o),
(285,468,o),
(330,468,cs),
(428,468,o),
(485,383,o),
(485,268,cs),
(485,140,o),
(410,52,o),
(297,52,cs),
(272,52,o),
(220,58,o),
(183,76,c)
);
}
);
};
layerId = "E5022B42-6572-4579-AE6E-2F10A1751A6E";
shapes = (
{
closed = 1;
nodes = (
(578,741,l),
(614,779,o),
(676,801,o),
(720,801,cs),
(807,801,o),
(870,713,o),
(870,538,cs),
(870,394,o),
(817,234,o),
(667,234,cs),
(649,234,o),
(623,237,o),
(578,255,c)
);
},
{
closed = 1;
nodes = (
(522,1060,l),
(132,1060,l),
(132,-536,l),
(578,-536,l),
(578,-1,l),
(602,-12,o),
(665,-20,o),
(721,-20,cs),
(1059,-20,o),
(1323,247,o),
(1323,579,cs),
(1323,830,o),
(1170,1080,o),
(913,1080,cs),
(772,1080,o),
(670,998,o),
(566,908,c)
);
}
);
width = 1397;
},
{
layerId = "09C3E491-E9AE-4DC0-8F4F-6A6E8897705E";
shapes = (
{
closed = 1;
nodes = (
(540,744,l),
(586,792,o),
(655,822,o),
(711,822,cs),
(815,822,o),
(888,719,o),
(888,538,cs),
(888,379,o),
(817,216,o),
(655,216,cs),
(630,216,o),
(590,220,o),
(540,242,c)
);
},
{
closed = 1;
nodes = (
(486,1060,l),
(140,1060,l),
(140,-536,l),
(540,-536,l),
(540,0,l),
(570,-12,o),
(637,-20,o),
(695,-20,cs),
(1031,-20,o),
(1296,244,o),
(1296,578,cs),
(1296,831,o),
(1142,1080,o),
(885,1080,cs),
(738,1080,o),
(630,992,o),
(528,902,c)
);
}
);
width = 1376;
}
);
rightKerningGroup = _b_Left;
unicode = 112;
},
{
glyphname = q;
layers = (
{
background = {
shapes = (
{
closed = 1;
nodes = (
(363,1080,o),
(122,812,o),
(122,486,cs),
(122,227,o),
(276,-20,o),
(535,-20,cs),
(683,-20,o),
(811,62,o),
(938,180,c),
(938,-536,l),
(1076,-536,l),
(1076,1078,l),
(961,1020,l),
(923,1046,o),
(820,1080,o),
(700,1080,cs)
);
},
{
closed = 1;
nodes = (
(938,307,l),
(826,187,o),
(702,115,o),
(581,115,cs),
(378,115,o),
(270,331,o),
(270,524,cs),
(270,729,o),
(404,949,o),
(669,949,cs),
(755,949,o),
(847,926,o),
(938,886,c)
);
}
);
};
layerId = "C8089C2F-C663-459E-AF34-3AEDB7904EA9";
shapes = (
{
closed = 1;
nodes = (
(356,1080,o),
(110,813,o),
(110,485,cs),
(110,226,o),
(264,-20,o),
(519,-20,cs),
(666,-20,o),
(792,62,o),
(914,172,c),
(914,-536,l),
(1104,-536,l),
(1104,1080,l),
(966,1020,l),
(922,1048,o),
(820,1080,o),
(700,1080,cs)
);
},
{
closed = 1;
nodes = (
(914,302,l),
(814,199,o),
(706,140,o),
(602,140,cs),
(412,140,o),
(310,336,o),
(310,526,cs),
(310,725,o),
(432,928,o),
(674,928,cs),
(750,928,o),
(832,908,o),
(914,872,c)
);
}
);
width = 1280;
},
{
layerId = "B30F41D4-F94E-4E62-9315-7D5BF3371191";
shapes = (
{
closed = 1;
nodes = (
(376,1080,o),
(125,829,o),
(125,503,cs),
(125,235,o),
(295,-20,o),
(574,-20,cs),
(730,-20,o),
(832,58,o),
(965,187,c),
(965,-536,l),
(1069,-536,l),
(1069,1080,l),
(962,1025,l),
(875,1064,o),
(804,1080,o),
(716,1080,cs)
);
},
{
closed = 1;
nodes = (
(965,304,l),
(794,128,o),
(666,95,o),
(575,95,cs),
(347,95,o),
(234,321,o),
(234,521,cs),
(234,781,o),
(416,966,o),
(689,966,cs),
(777,966,o),
(876,946,o),
(965,901,c)
);
}
);
width = 1260;
},
{
background = {
shapes = (
{
closed = 1;
nodes = (
(356,1088,o),
(110,824,o),
(110,484,cs),
(110,216,o),
(264,-28,o),
(520,-28,cs),
(666,-28,o),
(792,54,o),
(914,164,c),
(914,-536,l),
(1104,-536,l),
(1104,1088,l),
(966,1028,l),
(922,1056,o),
(820,1088,o),
(700,1088,cs)
);
},
{
closed = 1;
nodes = (
(914,284,l),
(810,176,o),
(698,122,o),
(606,122,cs),
(410,122,o),
(310,316,o),
(310,524,cs),
(310,756,o),
(432,956,o),
(674,956,cs),
(750,956,o),
(832,936,o),
(914,900,c)
);
}
);
};
layerId = "E5022B42-6572-4579-AE6E-2F10A1751A6E";
shapes = (
{
closed = 1;
nodes = (
(344,1080,o),
(73,819,o),
(73,479,cs),
(73,220,o),
(229,-20,o),
(467,-20,cs),
(605,-20,o),
(721,62,o),
(819,133,c),
(819,-536,l),
(1265,-536,l),
(1265,1090,l),
(1012,1020,l),
(940,1055,o),
(842,1080,o),
(724,1080,cs)
);
},
{
closed = 1;
nodes = (
(819,275,l),
(780,256,o),
(747,259,o),
(726,259,cs),
(599,259,o),
(529,358,o),
(529,533,cs),
(529,703,o),
(593,826,o),
(723,826,cs),
(750,826,o),
(781,820,o),
(819,804,c)
);
}
);
width = 1397;
},
{
layerId = "09C3E491-E9AE-4DC0-8F4F-6A6E8897705E";
shapes = (
{
closed = 1;
nodes = (
(346,1080,o),
(80,818,o),
(80,480,cs),
(80,221,o),
(235,-20,o),
(476,-20,cs),
(616,-20,o),
(734,62,o),
(836,140,c),
(836,-536,l),
(1236,-536,l),
(1236,1088,l),
(1004,1020,l),
(937,1054,o),
(838,1080,o),
(720,1080,cs)
);
},
{
closed = 1;
nodes = (
(836,280,l),
(786,246,o),
(740,238,o),
(704,238,cs),
(566,238,o),
(490,354,o),
(490,532,cs),
(490,707,o),
(564,844,o),
(714,844,cs),
(750,844,o),
(790,836,o),
(836,816,c)
);
}
);
width = 1376;
}
);
leftKerningGroup = _c_Right;
unicode = 113;
},
{
glyphname = u;
layers = (
{
background = {
shapes = (
{
closed = 1;
nodes = (
(1025,1060,l),
(883,1060,l),
(883,302,l),
(768,186,o),
(653,115,o),
(536,115,cs),
(400,115,o),
(306,203,o),
(306,371,cs),
(306,1060,l),
(164,1060,l),
(164,350,ls),
(164,123,o),
(301,-20,o),
(491,-20,cs),
(658,-20,o),
(798,92,o),
(891,188,c),
(912,0,l),
(1025,0,l)
);
}
);
};
layerId = "C8089C2F-C663-459E-AF34-3AEDB7904EA9";
shapes = (
{
closed = 1;
nodes = (
(176,356,ls),
(176,132,o),
(312,-20,o),
(492,-20,cs),
(648,-20,o),
(774,92,o),
(872,182,c),
(904,0,l),
(1052,0,l),
(1052,1060,l),
(862,1060,l),
(862,304,l),
(788,220,o),
(686,140,o),
(576,140,cs),
(452,140,o),
(366,242,o),
(366,388,cs),
(366,1060,l),
(176,1060,l)
);
}
);
width = 1228;
},
{
layerId = "B30F41D4-F94E-4E62-9315-7D5BF3371191";
shapes = (
{
closed = 1;
nodes = (
(191,345,ls),
(191,117,o),
(330,-20,o),
(514,-20,cs),
(675,-20,o),
(829,88,o),
(923,193,c),
(935,0,l),
(1021,0,l),
(1021,1060,l),
(917,1060,l),
(917,300,l),
(766,158,o),
(639,95,o),
(525,95,cs),
(399,95,o),
(295,171,o),
(295,357,cs),
(295,1060,l),
(191,1060,l)
);
}
);
width = 1212;
},
{
background = {
shapes = (
{
closed = 1;
nodes = (
(90,174,ls),
(90,62,o),
(157,-14,o),
(251,-14,cs),
(327,-14,o),
(393,46,o),
(438,87,c),
(454,-14,l),
(528,20,l),
(528,544,l),
(433,514,l),
(433,133,l),
(396,96,o),
(344,61,o),
(293,61,cs),
(227,61,o),
(185,112,o),
(185,185,cs),
(185,544,l),
(90,514,l)
);
}
);
};
layerId = "E5022B42-6572-4579-AE6E-2F10A1751A6E";
shapes = (
{
closed = 1;
nodes = (
(132,341,ls),
(132,83,o),
(314,-20,o),
(465,-20,cs),
(604,-20,o),
(730,85,o),
(826,167,c),
(875,0,l),
(1259,0,l),
(1259,1060,l),
(813,1060,l),
(813,314,l),
(769,281,o),
(730,259,o),
(690,259,cs),
(625,259,o),
(578,313,o),
(578,405,cs),
(578,1060,l),
(132,1060,l)
);
}
);
width = 1391;
},
{
layerId = "09C3E491-E9AE-4DC0-8F4F-6A6E8897705E";
shapes = (
{
closed = 1;
nodes = (
(140,344,ls),
(140,92,o),
(314,-20,o),
(470,-20,cs),
(612,-20,o),
(738,86,o),
(834,170,c),
(880,0,l),
(1222,0,l),
(1222,1060,l),
(822,1060,l),
(822,312,l),
(772,270,o),
(722,238,o),
(670,238,cs),
(594,238,o),
(540,300,o),
(540,402,cs),
(540,1060,l),
(140,1060,l)
);
}
);
width = 1362;
}
);
unicode = 117;
},
{
glyphname = z;
layers = (
{
background = {
shapes = (
{
closed = 1;
nodes = (
(110,0,l),
(912,0,l),
(950,131,l),
(485,131,l),
(307,123,l),
(307,143,l),
(418,286,l),
(924,991,l),
(924,1060,l),
(172,1060,l),
(134,929,l),
(530,929,l),
(724,937,l),
(724,917,l),
(627,793,l),
(110,69,l)
);
}
);
};
layerId = "C8089C2F-C663-459E-AF34-3AEDB7904EA9";
shapes = (
{
closed = 1;
nodes = (
(110,0,l),
(914,0,l),
(954,152,l),
(520,152,l),
(344,144,l),
(344,164,l),
(452,306,l),
(924,984,l),
(924,1060,l),
(173,1060,l),
(133,908,l),
(496,908,l),
(686,916,l),
(686,896,l),
(588,768,l),
(110,76,l)
);
}
);
width = 1064;
},
{
layerId = "B30F41D4-F94E-4E62-9315-7D5BF3371191";
shapes = (
{
closed = 1;
nodes = (
(110,0,l),
(910,0,l),
(945,107,l),
(449,107,l),
(269,99,l),
(269,119,l),
(383,262,l),
(924,997,l),
(924,1060,l),
(171,1060,l),
(137,953,l),
(563,953,l),
(761,961,l),
(761,941,l),
(664,821,l),
(110,63,l)
);
}
);
width = 1048;
},
{
background = {
shapes = (
{
closed = 1;
nodes = (
(110,0,l),
(914,0,l),
(946,132,l),
(506,132,l),
(330,124,l),
(330,144,l),
(438,286,l),
(924,984,l),
(924,1060,l),
(172,1060,l),
(138,928,l),
(510,928,l),
(700,936,l),
(700,916,l),
(602,788,l),
(110,76,l)
);
}
);
};
layerId = "E5022B42-6572-4579-AE6E-2F10A1751A6E";
shapes = (
{
closed = 1;
nodes = (
(49,0,l),
(1009,0,l),
(1064,254,l),
(768,254,l),
(590,246,l),
(590,264,l),
(691,403,l),
(1036,984,l),
(1036,1060,l),
(147,1060,l),
(93,806,l),
(313,806,l),
(494,811,l),
(494,791,l),
(386,646,l),
(49,76,l)
);
}
);
width = 1113;
},
{
layerId = "09C3E491-E9AE-4DC0-8F4F-6A6E8897705E";
shapes = (
{
closed = 1;
nodes = (
(60,0,l),
(992,0,l),
(1044,236,l),
(724,236,l),
(546,228,l),
(546,246,l),
(648,386,l),
(1016,984,l),
(1016,1060,l),
(152,1060,l),
(100,824,l),
(346,824,l),
(528,830,l),
(528,810,l),
(422,668,l),
(60,76,l)
);
}
);
width = 1104;
}
);
unicode = 122;
},
{
glyphname = period;
layers = (
{
background = {
shapes = (
{
closed = 1;
nodes = (
(348,-20,o),
(395,40,o),
(395,98,cs),
(395,161,o),
(345,222,o),
(276,222,cs),
(207,222,o),
(159,160,o),
(159,99,cs),
(159,39,o),
(209,-20,o),
(279,-20,cs)
);
}
);
};
layerId = "C8089C2F-C663-459E-AF34-3AEDB7904EA9";
shapes = (
{
closed = 1;
nodes = (
(392,-20,o),
(456,50,o),
(456,128,cs),
(456,208,o),
(392,280,o),
(308,280,cs),
(224,280,o),
(160,208,o),
(160,128,cs),
(160,50,o),
(224,-20,o),
(308,-20,cs)
);
}
);
width = 616;
},
{
layerId = "B30F41D4-F94E-4E62-9315-7D5BF3371191";
shapes = (
{
closed = 1;
nodes = (
(301,-20,o),
(343,17,o),
(343,72,cs),
(343,124,o),
(301,160,o),
(252,160,cs),
(202,160,o),
(160,124,o),
(160,72,cs),
(160,17,o),
(202,-20,o),
(252,-20,cs)
);
}
);
width = 503;
},
{
background = {
shapes = (
{
closed = 1;
nodes = (
(199,-11,o),
(234,26,o),
(234,68,cs),
(234,111,o),
(199,149,o),
(154,149,cs),
(109,149,o),
(75,111,o),
(75,68,cs),
(75,26,o),
(109,-11,o),
(154,-11,cs)
);
}
);
};
layerId = "E5022B42-6572-4579-AE6E-2F10A1751A6E";
shapes = (
{
closed = 1;
nodes = (
(528,-20,o),
(653,79,o),
(653,228,cs),
(653,369,o),
(543,470,o),
(413,470,cs),
(282,470,o),
(160,371,o),
(160,223,cs),
(160,82,o),
(270,-20,o),
(401,-20,cs)
);
}
);
width = 813;
},
{
layerId = "09C3E491-E9AE-4DC0-8F4F-6A6E8897705E";
shapes = (
{
closed = 1;
nodes = (
(504,-20,o),
(618,74,o),
(618,210,cs),
(618,340,o),
(516,436,o),
(394,436,cs),
(272,436,o),
(160,342,o),
(160,206,cs),
(160,76,o),
(262,-20,o),
(384,-20,cs)
);
}
);
width = 778;
}
);
unicode = 46;
},
{
glyphname = section;
layers = (
{
background = {
shapes = (
{
closed = 1;
nodes = (
(193,-299,l),
(314,-353,o),
(509,-387,o),
(631,-387,cs),
(904,-387,o),
(1080,-216,o),
(1080,-27,cs),
(1080,90,o),
(1012,167,o),
(918,224,c),
(1033,293,o),
(1125,400,o),
(1125,533,cs),
(1125,915,o),
(374,827,o),
(374,1154,cs),
(374,1276,o),
(479,1353,o),
(669,1353,cs),
(770,1353,o),
(885,1331,o),
(989,1280,c),
(1012,1292,l),
(1044,1435,l),
(923,1474,o),
(806,1485,o),
(726,1485,cs),
(427,1485,o),
(242,1328,o),
(242,1122,cs),
(242,994,o),
(312,913,o),
(408,855,c),
(276,775,o),
(197,682,o),
(197,557,cs),
(197,172,o),
(940,258,o),
(940,-63,cs),
(940,-177,o),
(845,-256,o),
(679,-256,cs),
(552,-256,o),
(359,-209,o),
(245,-141,c),
(226,-152,l)
);
},
{
closed = 1;
nodes = (
(978,403,o),
(896,322,o),
(816,279,c),
(598,369,o),
(336,413,o),
(336,582,cs),
(336,689,o),
(440,759,o),
(523,798,c),
(733,714,o),
(978,673,o),
(978,502,cs)
);
}
);
};
guides = (
{
position = "{0, 182}";
}
);
layerId = "C8089C2F-C663-459E-AF34-3AEDB7904EA9";
shapes = (
{
closed = 1;
nodes = (
(200,-305,l),
(318,-354,o),
(506,-387,o),
(634,-387,cs),
(924,-387,o),
(1110,-219,o),
(1110,-17,cs),
(1110,108,o),
(1038,186,o),
(940,242,c),
(1053,313,o),
(1150,419,o),
(1150,557,cs),
(1150,936,o),
(421,852,o),
(421,1154,cs),
(421,1265,o),
(520,1332,o),
(692,1332,cs),
(791,1332,o),
(904,1310,o),
(1009,1260,c),
(1031,1272,l),
(1068,1437,l),
(949,1474,o),
(825,1485,o),
(742,1485,cs),
(434,1485,o),
(242,1332,o),
(242,1116,cs),
(242,981,o),
(316,900,o),
(416,843,c),
(289,762,o),
(202,669,o),
(202,537,cs),
(202,155,o),
(924,239,o),
(924,-58,cs),
(924,-163,o),
(833,-234,o),
(674,-234,cs),
(549,-234,o),
(370,-190,o),
(256,-126,c),
(237,-137,l)
);
},
{
closed = 1;
nodes = (
(964,415,o),
(890,338,o),
(819,299,c),
(616,379,o),
(381,421,o),
(381,581,cs),
(381,681,o),
(473,750,o),
(546,785,c),
(743,710,o),
(964,670,o),
(964,509,cs)
);
}
);
width = 1350;
},
{
guides = (
{
position = "{0, 182}";
}
);
layerId = "B30F41D4-F94E-4E62-9315-7D5BF3371191";
shapes = (
{
closed = 1;
nodes = (
(189,-285,l),
(313,-343,o),
(508,-387,o),
(636,-387,cs),
(884,-387,o),
(1055,-221,o),
(1055,-42,cs),
(1055,68,o),
(991,151,o),
(900,209,c),
(1017,277,o),
(1105,386,o),
(1105,510,cs),
(1105,876,o),
(336,816,o),
(336,1145,cs),
(336,1289,o),
(482,1370,o),
(685,1370,cs),
(789,1370,o),
(869,1348,o),
(973,1296,c),
(996,1308,l),
(1021,1410,l),
(891,1465,o),
(796,1485,o),
(697,1485,cs),
(429,1485,o),
(242,1332,o),
(242,1132,cs),
(242,1014,o),
(309,924,o),
(401,865,c),
(265,786,o),
(193,693,o),
(193,573,cs),
(193,190,o),
(953,264,o),
(953,-60,cs),
(953,-194,o),
(822,-274,o),
(638,-274,cs),
(534,-274,o),
(354,-252,o),
(234,-177,c),
(215,-188,l)
);
},
{
closed = 1;
nodes = (
(989,393,o),
(901,309,o),
(814,263,c),
(583,361,o),
(299,406,o),
(299,583,cs),
(299,696,o),
(413,766,o),
(504,809,c),
(725,717,o),
(989,675,o),
(989,496,cs)
);
}
);
width = 1295;
},
{
background = {
shapes = (
{
closed = 1;
nodes = (
(200,-305,l),
(318,-354,o),
(506,-387,o),
(634,-387,cs),
(924,-387,o),
(1110,-219,o),
(1110,-17,cs),
(1110,108,o),
(1038,186,o),
(940,242,c),
(1053,313,o),
(1150,419,o),
(1150,557,cs),
(1150,936,o),
(421,852,o),
(421,1154,cs),
(421,1265,o),
(520,1332,o),
(692,1332,cs),
(791,1332,o),
(904,1310,o),
(1009,1260,c),
(1031,1272,l),
(1068,1437,l),
(949,1474,o),
(825,1485,o),
(742,1485,cs),
(434,1485,o),
(242,1332,o),
(242,1116,cs),
(242,981,o),
(316,900,o),
(416,843,c),
(289,762,o),
(202,669,o),
(202,537,cs),
(202,155,o),
(924,239,o),
(924,-58,cs),
(924,-163,o),
(833,-234,o),
(674,-234,cs),
(549,-234,o),
(370,-190,o),
(256,-126,c),
(237,-137,l)
);
},
{
closed = 1;
nodes = (
(964,415,o),
(890,338,o),
(819,299,c),
(616,379,o),
(381,421,o),
(381,581,cs),
(381,681,o),
(473,750,o),
(546,785,c),
(743,710,o),
(964,670,o),
(964,509,cs)
);
}
);
};
guides = (
{
position = "{0, 182}";
}
);
layerId = "E5022B42-6572-4579-AE6E-2F10A1751A6E";
shapes = (
{
closed = 1;
nodes = (
(232,-334,l),
(337,-360,o),
(490,-387,o),
(647,-387,cs),
(1019,-387,o),
(1254,-236,o),
(1254,30,cs),
(1254,197,o),
(1162,277,o),
(1047,327,c),
(1148,412,o),
(1269,513,o),
(1269,674,cs),
(1269,1038,o),
(650,973,o),
(650,1153,cs),
(650,1213,o),
(721,1227,o),
(805,1227,cs),
(893,1227,o),
(995,1209,o),
(1105,1164,c),
(1122,1172,l),
(1182,1444,l),
(1076,1474,o),
(918,1485,o),
(819,1485,cs),
(467,1485,o),
(240,1349,o),
(240,1087,cs),
(240,915,o),
(335,834,o),
(456,786,c),
(351,699,o),
(224,603,o),
(224,438,cs),
(224,73,o),
(845,146,o),
(845,-35,cs),
(845,-96,o),
(773,-129,o),
(650,-129,cs),
(533,-129,o),
(424,-99,o),
(310,-54,c),
(292,-63,l)
);
},
{
closed = 1;
nodes = (
(897,475,o),
(858,413,o),
(832,394,c),
(702,425,o),
(598,461,o),
(598,575,cs),
(598,640,o),
(631,704,o),
(657,723,c),
(789,691,o),
(897,655,o),
(897,542,cs)
);
}
);
width = 1494;
},
{
guides = (
{
position = "{0, 182}";
}
);
layerId = "09C3E491-E9AE-4DC0-8F4F-6A6E8897705E";
shapes = (
{
closed = 1;
nodes = (
(226,-329,l),
(334,-359,o),
(493,-387,o),
(645,-387,cs),
(1002,-387,o),
(1228,-233,o),
(1228,22,cs),
(1228,181,o),
(1140,261,o),
(1028,312,c),
(1131,394,o),
(1248,496,o),
(1248,653,cs),
(1248,1020,o),
(609,951,o),
(609,1153,cs),
(609,1222,o),
(685,1246,o),
(785,1246,cs),
(875,1246,o),
(979,1227,o),
(1088,1181,c),
(1106,1190,l),
(1162,1443,l),
(1053,1474,o),
(901,1485,o),
(805,1485,cs),
(461,1485,o),
(240,1346,o),
(240,1092,cs),
(240,927,o),
(332,846,o),
(449,796,c),
(340,710,o),
(220,615,o),
(220,456,cs),
(220,88,o),
(859,163,o),
(859,-39,cs),
(859,-108,o),
(784,-148,o),
(654,-148,cs),
(536,-148,o),
(414,-115,o),
(300,-67,c),
(282,-76,l)
);
},
{
closed = 1;
nodes = (
(909,464,o),
(864,400,o),
(830,377,c),
(687,417,o),
(559,454,o),
(559,576,cs),
(559,647,o),
(603,712,o),
(637,734,c),
(781,694,o),
(909,658,o),
(909,536,cs)
);
}
);
width = 1468;
}
);
unicode = 167;
},
{
glyphname = degree;
layers = (
{
background = {
shapes = (
{
closed = 1;
nodes = (
(175,1009,o),
(340,856,o),
(554,856,cs),
(766,856,o),
(941,1005,o),
(941,1240,cs),
(941,1469,o),
(776,1622,o),
(562,1622,cs),
(350,1622,o),
(175,1473,o),
(175,1238,cs)
);
},
{
closed = 1;
nodes = (
(305,1373,o),
(395,1507,o),
(553,1507,cs),
(708,1507,o),
(809,1377,o),
(809,1237,cs),
(809,1105,o),
(719,971,o),
(561,971,cs),
(406,971,o),
(305,1101,o),
(305,1241,cs)
);
}
);
};
guides = (
{
position = "{0, 1512}";
},
{
position = "{0, 954}";
}
);
layerId = "C8089C2F-C663-459E-AF34-3AEDB7904EA9";
shapes = (
{
closed = 1;
nodes = (
(170,998,o),
(339,844,o),
(554,844,cs),
(769,844,o),
(948,998,o),
(948,1233,cs),
(948,1468,o),
(779,1622,o),
(564,1622,cs),
(349,1622,o),
(170,1468,o),
(170,1233,cs)
);
},
{
closed = 1;
nodes = (
(319,1367,o),
(409,1487,o),
(553,1487,cs),
(697,1487,o),
(797,1367,o),
(797,1233,cs),
(797,1099,o),
(707,979,o),
(563,979,cs),
(419,979,o),
(319,1099,o),
(319,1233,c)
);
}
);
width = 1118;
},
{
guides = (
{
position = "{0, 1512}";
},
{
position = "{0, 954}";
}
);
layerId = "B30F41D4-F94E-4E62-9315-7D5BF3371191";
shapes = (
{
closed = 1;
nodes = (
(179,1018,o),
(341,866,o),
(554,866,cs),
(764,866,o),
(935,1011,o),
(935,1246,cs),
(935,1470,o),
(774,1622,o),
(560,1622,cs),
(351,1622,o),
(179,1477,o),
(179,1242,cs)
);
},
{
closed = 1;
nodes = (
(274,1389,o),
(371,1543,o),
(553,1543,cs),
(730,1543,o),
(839,1396,o),
(839,1240,cs),
(839,1099,o),
(742,943,o),
(559,943,cs),
(383,943,o),
(274,1092,o),
(274,1248,cs)
);
}
);
width = 1114;
},
{
background = {
shapes = (
{
closed = 1;
nodes = (
(170,998,o),
(344,844,o),
(559,844,cs),
(774,844,o),
(948,998,o),
(948,1233,cs),
(948,1468,o),
(774,1622,o),
(559,1622,cs),
(344,1622,o),
(170,1468,o),
(170,1233,cs)
);
},
{
closed = 1;
nodes = (
(319,1367,o),
(414,1487,o),
(558,1487,cs),
(702,1487,o),
(797,1367,o),
(797,1233,cs),
(797,1099,o),
(702,979,o),
(558,979,cs),
(414,979,o),
(319,1099,o),
(319,1233,cs)
);
}
);
};
guides = (
{
position = "{0, 1512}";
},
{
position = "{0, 954}";
}
);
layerId = "E5022B42-6572-4579-AE6E-2F10A1751A6E";
shapes = (
{
closed = 1;
nodes = (
(146,951,o),
(332,787,o),
(554,787,cs),
(784,787,o),
(981,960,o),
(981,1212,cs),
(981,1457,o),
(794,1622,o),
(571,1622,cs),
(343,1622,o),
(146,1449,o),
(146,1195,cs)
);
},
{
closed = 1;
nodes = (
(387,1334,o),
(476,1390,o),
(558,1390,cs),
(645,1390,o),
(740,1324,o),
(740,1196,cs),
(740,1073,o),
(650,1019,o),
(569,1019,cs),
(481,1019,o),
(387,1083,o),
(387,1211,cs)
);
}
);
width = 1127;
},
{
guides = (
{
position = "{0, 1512}";
},
{
position = "{0, 954}";
}
);
layerId = "09C3E491-E9AE-4DC0-8F4F-6A6E8897705E";
shapes = (
{
closed = 1;
nodes = (
(150,959,o),
(333,797,o),
(554,797,cs),
(781,797,o),
(975,967,o),
(975,1216,cs),
(975,1459,o),
(791,1622,o),
(570,1622,cs),
(344,1622,o),
(150,1452,o),
(150,1202,cs)
);
},
{
closed = 1;
nodes = (
(375,1340,o),
(464,1407,o),
(557,1407,cs),
(654,1407,o),
(750,1332,o),
(750,1203,cs),
(750,1078,o),
(660,1012,o),
(568,1012,cs),
(470,1012,o),
(375,1086,o),
(375,1215,c)
);
}
);
width = 1125;
}
);
unicode = 176;
},
{
glyphname = quoteright;
layers = (
{
background = {
shapes = (
{
closed = 1;
nodes = (
(174,1018,l),
(342,1159,o),
(421,1314,o),
(421,1435,cs),
(421,1563,o),
(350,1609,o),
(286,1609,cs),
(196,1609,o),
(162,1527,o),
(162,1482,cs),
(162,1468,o),
(165,1439,o),
(175,1424,c),
(219,1415,o),
(279,1383,o),
(307,1359,c),
(291,1275,o),
(215,1145,o),
(129,1053,c)
);
}
);
};
layerId = "C8089C2F-C663-459E-AF34-3AEDB7904EA9";
shapes = (
{
closed = 1;
nodes = (
(192,964,l),
(382,1124,o),
(460,1292,o),
(460,1420,cs),
(460,1558,o),
(380,1612,o),
(306,1612,cs),
(210,1612,o),
(160,1528,o),
(160,1464,cs),
(160,1446,o),
(164,1416,o),
(174,1398,c),
(222,1388,o),
(284,1354,o),
(314,1326,c),
(296,1234,o),
(220,1106,o),
(130,1008,c)
);
}
);
width = 600;
},
{
layerId = "B30F41D4-F94E-4E62-9315-7D5BF3371191";
shapes = (
{
closed = 1;
nodes = (
(157,1117,l),
(293,1228,o),
(367,1361,o),
(367,1467,cs),
(367,1576,o),
(309,1612,o),
(259,1612,cs),
(181,1612,o),
(164,1539,o),
(164,1511,cs),
(164,1502,o),
(166,1476,o),
(174,1467,c),
(211,1459,o),
(264,1429,o),
(289,1410,c),
(276,1343,o),
(205,1221,o),
(130,1141,c)
);
}
);
width = 507;
},
{
layerId = "E5022B42-6572-4579-AE6E-2F10A1751A6E";
shapes = (
{
closed = 1;
nodes = (
(265,700,l),
(560,954,o),
(635,1186,o),
(635,1346,cs),
(635,1535,o),
(510,1624,o),
(389,1624,cs),
(265,1624,o),
(136,1530,o),
(136,1376,cs),
(136,1339,o),
(143,1303,o),
(153,1270,c),
(220,1254,o),
(293,1213,o),
(335,1165,c),
(305,1032,o),
(229,915,o),
(118,789,c)
);
}
);
width = 763;
},
{
layerId = "09C3E491-E9AE-4DC0-8F4F-6A6E8897705E";
shapes = (
{
closed = 1;
nodes = (
(252,747,l),
(528,984,o),
(604,1205,o),
(604,1359,cs),
(604,1539,o),
(487,1622,o),
(374,1622,cs),
(255,1622,o),
(140,1530,o),
(140,1392,cs),
(140,1358,o),
(147,1323,o),
(157,1293,c),
(220,1278,o),
(291,1238,o),
(331,1194,c),
(303,1068,o),
(227,949,o),
(120,828,c)
);
}
);
width = 734;
}
);
unicode = 8217;
},
{
glyphname = f;
layers = (
{
background = {
shapes = (
{
closed = 1;
nodes = (
(279,0,l),
(422,0,l),
(422,929,l),
(761,929,l),
(798,1060,l),
(422,1060,l),
(422,1170,ls),
(422,1342,o),
(499,1491,o),
(686,1491,cs),
(738,1491,o),
(784,1479,o),
(827,1457,c),
(847,1467,l),
(881,1591,l),
(827,1611,o),
(769,1622,o),
(709,1622,cs),
(436,1622,o),
(278,1388,o),
(278,1118,cs),
(278,1060,l),
(76,1010,l),
(62,929,l),
(279,929,l)
);
}
);
};
layerId = "C8089C2F-C663-459E-AF34-3AEDB7904EA9";
shapes = (
{
closed = 1;
nodes = (
(269,0,l),
(459,0,l),
(459,908,l),
(781,908,l),
(821,1060,l),
(459,1060,l),
(459,1158,ls),
(459,1331,o),
(525,1470,o),
(693,1470,cs),
(751,1470,o),
(803,1455,o),
(847,1432,c),
(867,1442,l),
(905,1596,l),
(849,1614,o),
(786,1622,o),
(732,1622,cs),
(440,1622,o),
(269,1388,o),
(269,1112,cs),
(269,1060,l),
(71,1016,l),
(55,908,l),
(269,908,l)
);
}
);
width = 857;
},
{
layerId = "B30F41D4-F94E-4E62-9315-7D5BF3371191";
shapes = (
{
closed = 1;
nodes = (
(287,0,l),
(392,0,l),
(392,953,l),
(746,953,l),
(779,1060,l),
(392,1060,l),
(392,1180,ls),
(392,1351,o),
(478,1508,o),
(680,1508,cs),
(727,1508,o),
(768,1499,o),
(811,1477,c),
(831,1487,l),
(861,1587,l),
(809,1609,o),
(755,1622,o),
(690,1622,cs),
(433,1622,o),
(285,1388,o),
(285,1123,cs),
(285,1060,l),
(80,1005,l),
(70,953,l),
(287,953,l)
);
}
);
width = 815;
},
{
background = {
shapes = (
{
closed = 1;
nodes = (
(256,0,l),
(572,0,l),
(572,862,l),
(863,862,l),
(910,1060,l),
(572,1060,l),
(572,1129,ls),
(572,1302,o),
(628,1431,o),
(786,1431,cs),
(840,1431,o),
(894,1416,o),
(931,1393,c),
(950,1403,l),
(997,1593,l),
(932,1613,o),
(846,1622,o),
(779,1622,cs),
(443,1622,o),
(259,1392,o),
(259,1098,cs),
(259,1060,l),
(64,999,l),
(44,862,l),
(256,862,l)
);
}
);
};
layerId = "E5022B42-6572-4579-AE6E-2F10A1751A6E";
shapes = (
{
closed = 1;
nodes = (
(212,0,l),
(657,0,l),
(657,806,l),
(916,806,l),
(971,1060,l),
(657,1060,l),
(657,1100,ls),
(657,1276,o),
(699,1368,o),
(804,1368,cs),
(840,1368,o),
(882,1356,o),
(912,1337,c),
(929,1347,l),
(983,1590,l),
(910,1612,o),
(823,1622,o),
(749,1622,cs),
(397,1622,o),
(214,1387,o),
(214,1083,cs),
(214,1060,l),
(26,982,l),
(0,806,l),
(212,806,l)
);
}
);
width = 1006;
},
{
layerId = "09C3E491-E9AE-4DC0-8F4F-6A6E8897705E";
shapes = (
{
closed = 1;
nodes = (
(222,0,l),
(622,0,l),
(622,824,l),
(892,824,l),
(944,1060,l),
(622,1060,l),
(622,1110,ls),
(622,1286,o),
(668,1386,o),
(784,1386,cs),
(824,1386,o),
(868,1374,o),
(900,1354,c),
(918,1364,l),
(969,1591,l),
(899,1612,o),
(816,1622,o),
(746,1622,cs),
(405,1622,o),
(224,1387,o),
(224,1088,cs),
(224,1060,l),
(34,988,l),
(10,824,l),
(222,824,l)
);
}
);
width = 979;
}
);
leftKerningGroup = _f_Right;
rightKerningGroup = _f_Left;
unicode = 102;
},
{
glyphname = k;
layers = (
{
background = {
shapes = (
{
closed = 1;
nodes = (
(178,0,l),
(368,0,l),
(368,1602,l),
(178,1602,l)
);
},
{
closed = 1;
nodes = (
(1106,0,l),
(626,590,l),
(1050,1060,l),
(864,1060,l),
(436,566,l),
(870,0,l)
);
}
);
};
layerId = "C8089C2F-C663-459E-AF34-3AEDB7904EA9";
shapes = (
{
closed = 1;
nodes = (
(176,0,l),
(366,0,l),
(366,1602,l),
(176,1602,l)
);
},
{
closed = 1;
nodes = (
(1104,0,l),
(632,581,l),
(1068,1060,l),
(862,1060,l),
(434,566,l),
(868,0,l)
);
}
);
width = 1159;
},
{
layerId = "B30F41D4-F94E-4E62-9315-7D5BF3371191";
shapes = (
{
closed = 1;
nodes = (
(191,0,l),
(295,0,l),
(295,1602,l),
(191,1602,l)
);
},
{
closed = 1;
nodes = (
(1048,0,l),
(501,592,l),
(986,1060,l),
(849,1060,l),
(365,577,l),
(906,0,l)
);
}
);
width = 1101;
},
{
background = {
shapes = (
{
closed = 1;
nodes = (
(176,0,l),
(366,0,l),
(366,1602,l),
(176,1602,l)
);
},
{
closed = 1;
nodes = (
(1104,0,l),
(624,590,l),
(1048,1060,l),
(862,1060,l),
(434,566,l),
(868,0,l)
);
}
);
};
layerId = "E5022B42-6572-4579-AE6E-2F10A1751A6E";
shapes = (
{
closed = 1;
nodes = (
(132,0,l),
(578,0,l),
(578,1602,l),
(132,1602,l)
);
},
{
closed = 1;
nodes = (
(1360,0,l),
(1008,619,l),
(1344,1060,l),
(951,1060,l),
(600,534,l),
(844,0,l)
);
}
);
width = 1379;
},
{
layerId = "09C3E491-E9AE-4DC0-8F4F-6A6E8897705E";
shapes = (
{
closed = 1;
nodes = (
(140,0,l),
(540,0,l),
(540,1602,l),
(140,1602,l)
);
},
{
closed = 1;
nodes = (
(1314,0,l),
(941,612,l),
(1295,1060,l),
(935,1060,l),
(570,540,l),
(848,0,l)
);
}
);
width = 1340;
}
);
leftKerningGroup = _b_Right;
rightKerningGroup = _k_Left;
unicode = 107;
},
{
glyphname = v;
layers = (
{
background = {
shapes = (
{
closed = 1;
nodes = (
(482,0,l),
(611,0,l),
(1027,1060,l),
(864,1060,l),
(600,284,l),
(557,120,l),
(537,120,l),
(491,284,l),
(229,1060,l),
(68,1060,l)
);
}
);
};
layerId = "C8089C2F-C663-459E-AF34-3AEDB7904EA9";
shapes = (
{
closed = 1;
nodes = (
(456,0,l),
(652,0,l),
(1050,1060,l),
(854,1060,l),
(616,326,l),
(574,152,l),
(554,152,l),
(510,326,l),
(274,1060,l),
(60,1060,l)
);
}
);
width = 1110;
},
{
layerId = "B30F41D4-F94E-4E62-9315-7D5BF3371191";
shapes = (
{
closed = 1;
nodes = (
(472,0,l),
(596,0,l),
(1005,1060,l),
(889,1060,l),
(598,299,l),
(552,143,l),
(532,143,l),
(485,299,l),
(192,1060,l),
(60,1060,l)
);
}
);
width = 1065;
},
{
background = {
shapes = (
{
closed = 1;
nodes = (
(456,0,l),
(632,0,l),
(1030,1060,l),
(854,1060,l),
(616,326,l),
(574,152,l),
(554,152,l),
(510,326,l),
(274,1060,l),
(60,1060,l)
);
}
);
};
layerId = "E5022B42-6572-4579-AE6E-2F10A1751A6E";
shapes = (
{
closed = 1;
nodes = (
(334,0,l),
(857,0,l),
(1167,1060,l),
(809,1060,l),
(699,531,l),
(663,308,l),
(643,308,l),
(605,531,l),
(497,1060,l),
(23,1060,l)
);
}
);
width = 1190;
},
{
layerId = "09C3E491-E9AE-4DC0-8F4F-6A6E8897705E";
shapes = (
{
closed = 1;
nodes = (
(356,0,l),
(820,0,l),
(1146,1060,l),
(817,1060,l),
(684,494,l),
(647,280,l),
(627,280,l),
(588,494,l),
(457,1060,l),
(30,1060,l)
);
}
);
width = 1176;
}
);
unicode = 118;
},
{
glyphname = w;
layers = (
{
background = {
shapes = (
{
closed = 1;
nodes = (
(72,1060,l),
(411,0,l),
(574,0,l),
(787,671,l),
(834,837,l),
(854,837,l),
(902,671,l),
(1119,0,l),
(1285,0,l),
(1624,1060,l),
(1475,1060,l),
(1253,300,l),
(1221,147,l),
(1201,147,l),
(1164,303,l),
(930,1028,l),
(768,1028,l),
(546,301,l),
(510,147,l),
(490,147,l),
(459,304,l),
(236,1060,l)
);
}
);
};
layerId = "C8089C2F-C663-459E-AF34-3AEDB7904EA9";
shapes = (
{
closed = 1;
nodes = (
(70,1060,l),
(400,0,l),
(608,0,l),
(814,656,l),
(860,840,l),
(880,840,l),
(926,656,l),
(1128,0,l),
(1337,0,l),
(1673,1060,l),
(1481,1060,l),
(1285,316,l),
(1253,150,l),
(1233,150,l),
(1197,318,l),
(987,1028,l),
(770,1028,l),
(558,316,l),
(524,150,l),
(504,150,l),
(474,318,l),
(280,1060,l)
);
}
);
width = 1743;
},
{
layerId = "B30F41D4-F94E-4E62-9315-7D5BF3371191";
shapes = (
{
closed = 1;
nodes = (
(79,1060,l),
(431,0,l),
(557,0,l),
(783,696,l),
(831,847,l),
(853,847,l),
(902,696,l),
(1132,0,l),
(1262,0,l),
(1609,1060,l),
(1497,1060,l),
(1250,287,l),
(1217,145,l),
(1197,145,l),
(1159,291,l),
(900,1028,l),
(788,1028,l),
(545,289,l),
(508,145,l),
(488,145,l),
(456,293,l),
(204,1060,l)
);
}
);
width = 1688;
},
{
background = {
shapes = (
{
closed = 1;
nodes = (
(70,1060,l),
(400,0,l),
(588,0,l),
(794,656,l),
(840,840,l),
(860,840,l),
(906,656,l),
(1108,0,l),
(1288,0,l),
(1624,1060,l),
(1452,1060,l),
(1256,316,l),
(1224,150,l),
(1204,150,l),
(1168,318,l),
(958,1028,l),
(770,1028,l),
(558,316,l),
(524,150,l),
(504,150,l),
(474,318,l),
(280,1060,l)
);
}
);
};
layerId = "E5022B42-6572-4579-AE6E-2F10A1751A6E";
shapes = (
{
closed = 1;
nodes = (
(21,1060,l),
(284,0,l),
(797,0,l),
(894,439,l),
(938,711,l),
(958,711,l),
(994,441,l),
(1079,0,l),
(1584,0,l),
(1846,1060,l),
(1497,1060,l),
(1419,533,l),
(1388,307,l),
(1368,307,l),
(1327,532,l),
(1233,1028,l),
(757,1028,l),
(663,533,l),
(624,308,l),
(606,308,l),
(570,532,l),
(495,1060,l)
);
}
);
width = 1867;
},
{
layerId = "09C3E491-E9AE-4DC0-8F4F-6A6E8897705E";
shapes = (
{
closed = 1;
nodes = (
(30,1060,l),
(305,0,l),
(763,0,l),
(880,478,l),
(924,734,l),
(944,734,l),
(982,479,l),
(1088,0,l),
(1540,0,l),
(1815,1060,l),
(1494,1060,l),
(1395,494,l),
(1364,279,l),
(1344,279,l),
(1304,494,l),
(1189,1028,l),
(759,1028,l),
(644,494,l),
(606,280,l),
(588,280,l),
(553,494,l),
(457,1060,l)
);
}
);
width = 1845;
}
);
unicode = 119;
},
{
glyphname = x;
layers = (
{
background = {
shapes = (
{
closed = 1;
nodes = (
(1009,1060,l),
(851,1060,l),
(556,646,l),
(268,1060,l),
(95,1060,l),
(469,549,l),
(59,0,l),
(217,0,l),
(548,463,l),
(873,0,l),
(1046,0,l),
(635,559,l)
);
},
{
closed = 0;
nodes = (
(555,433,l),
(535,433,l)
);
}
);
};
guides = (
{
angle = 90;
position = "{51, 0}";
},
{
angle = 90;
position = "{1063, 0}";
}
);
layerId = "C8089C2F-C663-459E-AF34-3AEDB7904EA9";
shapes = (
{
closed = 1;
nodes = (
(246,0,l),
(452,302,l),
(537,452,l),
(557,452,l),
(642,298,l),
(842,0,l),
(1064,0,l),
(652,558,l),
(1031,1060,l),
(835,1060,l),
(655,798,l),
(571,652,l),
(551,652,l),
(473,798,l),
(305,1060,l),
(83,1060,l),
(450,549,l),
(50,0,l)
);
}
);
width = 1114;
},
{
guides = (
{
angle = 90;
position = "{51, 0}";
},
{
angle = 90;
position = "{1063, 0}";
}
);
layerId = "B30F41D4-F94E-4E62-9315-7D5BF3371191";
shapes = (
{
closed = 1;
nodes = (
(197,0,l),
(454,349,l),
(550,483,l),
(570,483,l),
(657,354,l),
(911,0,l),
(1049,0,l),
(632,560,l),
(1009,1060,l),
(879,1060,l),
(648,743,l),
(571,630,l),
(551,630,l),
(464,760,l),
(247,1060,l),
(107,1060,l),
(494,549,l),
(68,0,l)
);
}
);
width = 1118;
},
{
background = {
shapes = (
{
closed = 1;
nodes = (
(246,0,l),
(456,302,l),
(542,452,l),
(562,452,l),
(646,298,l),
(842,0,l),
(1064,0,l),
(658,558,l),
(1042,1060,l),
(866,1060,l),
(684,798,l),
(588,634,l),
(568,634,l),
(482,798,l),
(316,1060,l),
(94,1060,l),
(468,532,l),
(70,0,l)
);
}
);
};
guides = (
{
angle = 90;
position = "{51, 0}";
},
{
angle = 90;
position = "{1063, 0}";
}
);
layerId = "E5022B42-6572-4579-AE6E-2F10A1751A6E";
shapes = (
{
closed = 1;
nodes = (
(393,0,l),
(463,149,l),
(536,318,l),
(551,318,l),
(630,147,l),
(704,0,l),
(1214,0,l),
(841,573,l),
(1199,1060,l),
(825,1060,l),
(774,949,l),
(700,759,l),
(685,759,l),
(606,949,l),
(548,1060,l),
(37,1060,l),
(399,522,l),
(20,0,l)
);
}
);
width = 1233;
},
{
guides = (
{
angle = 90;
position = "{51, 0}";
},
{
angle = 90;
position = "{1063, 0}";
}
);
layerId = "09C3E491-E9AE-4DC0-8F4F-6A6E8897705E";
shapes = (
{
closed = 1;
nodes = (
(367,0,l),
(461,176,l),
(536,342,l),
(552,342,l),
(632,174,l),
(729,0,l),
(1187,0,l),
(807,570,l),
(1169,1060,l),
(827,1060,l),
(753,922,l),
(677,740,l),
(661,740,l),
(582,922,l),
(505,1060,l),
(45,1060,l),
(408,527,l),
(25,0,l)
);
}
);
width = 1212;
}
);
unicode = 120;
},
{
glyphname = quotedbl;
layers = (
{
background = {
shapes = (
{
closed = 1;
nodes = (
(174,1018,l),
(342,1159,o),
(421,1314,o),
(421,1435,cs),
(421,1563,o),
(350,1609,o),
(286,1609,cs),
(196,1609,o),
(162,1527,o),
(162,1482,cs),
(162,1468,o),
(165,1439,o),
(175,1424,c),
(219,1415,o),
(279,1383,o),
(307,1359,c),
(291,1275,o),
(215,1145,o),
(129,1053,c)
);
},
{
closed = 1;
nodes = (
(558,1018,l),
(727,1159,o),
(805,1314,o),
(805,1435,cs),
(805,1563,o),
(734,1609,o),
(670,1609,cs),
(580,1609,o),
(546,1527,o),
(546,1482,cs),
(546,1468,o),
(549,1439,o),
(559,1424,c),
(604,1415,o),
(663,1383,o),
(691,1359,c),
(675,1275,o),
(599,1145,o),
(514,1053,c)
);
}
);
};
layerId = "C8089C2F-C663-459E-AF34-3AEDB7904EA9";
shapes = (
{
closed = 1;
nodes = (
(192,964,l),
(382,1124,o),
(460,1292,o),
(460,1420,cs),
(460,1558,o),
(380,1612,o),
(306,1612,cs),
(210,1612,o),
(160,1528,o),
(160,1464,cs),
(160,1446,o),
(164,1416,o),
(174,1398,c),
(222,1388,o),
(284,1354,o),
(314,1326,c),
(296,1234,o),
(220,1106,o),
(130,1008,c)
);
},
{
closed = 1;
nodes = (
(624,964,l),
(814,1124,o),
(892,1292,o),
(892,1420,cs),
(892,1558,o),
(812,1612,o),
(738,1612,cs),
(642,1612,o),
(592,1528,o),
(592,1464,cs),
(592,1446,o),
(596,1416,o),
(606,1398,c),
(654,1388,o),
(716,1354,o),
(746,1326,c),
(728,1234,o),
(652,1106,o),
(562,1008,c)
);
}
);
width = 1032;
},
{
layerId = "B30F41D4-F94E-4E62-9315-7D5BF3371191";
shapes = (
{
closed = 1;
nodes = (
(157,1117,l),
(293,1228,o),
(367,1361,o),
(367,1467,cs),
(367,1576,o),
(309,1612,o),
(259,1612,cs),
(181,1612,o),
(164,1539,o),
(164,1511,cs),
(164,1502,o),
(166,1476,o),
(174,1467,c),
(211,1459,o),
(264,1429,o),
(289,1410,c),
(276,1343,o),
(205,1221,o),
(130,1141,c)
);
},
{
closed = 1;
nodes = (
(484,1117,l),
(619,1228,o),
(694,1361,o),
(694,1467,cs),
(694,1576,o),
(636,1612,o),
(585,1612,cs),
(507,1612,o),
(490,1539,o),
(490,1511,cs),
(490,1502,o),
(492,1476,o),
(501,1467,c),
(538,1459,o),
(591,1429,o),
(615,1410,c),
(603,1343,o),
(532,1221,o),
(457,1141,c)
);
}
);
width = 834;
},
{
layerId = "E5022B42-6572-4579-AE6E-2F10A1751A6E";
shapes = (
{
closed = 1;
nodes = (
(265,700,l),
(560,954,o),
(635,1186,o),
(635,1346,cs),
(635,1535,o),
(510,1624,o),
(389,1624,cs),
(265,1624,o),
(136,1530,o),
(136,1376,cs),
(136,1339,o),
(143,1303,o),
(153,1270,c),
(220,1254,o),
(293,1213,o),
(335,1165,c),
(305,1032,o),
(229,915,o),
(118,789,c)
);
},
{
closed = 1;
nodes = (
(930,700,l),
(1224,954,o),
(1300,1186,o),
(1300,1346,cs),
(1300,1535,o),
(1175,1624,o),
(1053,1624,cs),
(929,1624,o),
(800,1530,o),
(800,1376,cs),
(800,1339,o),
(808,1303,o),
(818,1270,c),
(884,1254,o),
(957,1213,o),
(999,1165,c),
(969,1032,o),
(893,915,o),
(782,789,c)
);
}
);
width = 1428;
},
{
layerId = "09C3E491-E9AE-4DC0-8F4F-6A6E8897705E";
shapes = (
{
closed = 1;
nodes = (
(252,747,l),
(528,984,o),
(604,1205,o),
(604,1359,cs),
(604,1539,o),
(487,1622,o),
(374,1622,cs),
(255,1622,o),
(140,1530,o),
(140,1392,cs),
(140,1358,o),
(147,1323,o),
(157,1293,c),
(220,1278,o),
(291,1238,o),
(331,1194,c),
(303,1068,o),
(227,949,o),
(120,828,c)
);
},
{
closed = 1;
nodes = (
(875,747,l),
(1151,984,o),
(1227,1205,o),
(1227,1359,cs),
(1227,1539,o),
(1110,1622,o),
(997,1622,cs),
(878,1622,o),
(763,1530,o),
(763,1392,cs),
(763,1358,o),
(770,1323,o),
(780,1293,c),
(843,1278,o),
(914,1238,o),
(954,1194,c),
(926,1068,o),
(850,949,o),
(743,828,c)
);
}
);
width = 1357;
}
);
unicode = 34;
},
{
glyphname = question;
layers = (
{
background = {
shapes = (
{
closed = 1;
nodes = (
(477,-20,o),
(524,39,o),
(524,99,cs),
(524,160,o),
(474,222,o),
(405,222,cs),
(336,222,o),
(288,160,o),
(288,100,cs),
(288,39,o),
(338,-20,o),
(408,-20,cs)
);
}
);
};
layerId = "C8089C2F-C663-459E-AF34-3AEDB7904EA9";
shapes = (
{
closed = 1;
nodes = (
(583,1331,o),
(678,1270,o),
(678,1172,cs),
(678,987,o),
(340,898,o),
(340,593,cs),
(340,560,o),
(344,535,o),
(350,505,c),
(494,505,l),
(492,521,o),
(491,544,o),
(491,560,cs),
(491,864,o),
(876,926,o),
(876,1216,cs),
(876,1375,o),
(760,1485,o),
(515,1485,cs),
(379,1485,o),
(245,1451,o),
(100,1374,c),
(142,1218,l),
(158,1210,l),
(282,1305,o),
(402,1331,o),
(473,1331,cs)
);
},
{
closed = 1;
nodes = (
(509,-20,o),
(573,50,o),
(573,128,cs),
(573,208,o),
(509,280,o),
(425,280,cs),
(341,280,o),
(277,208,o),
(277,128,cs),
(277,50,o),
(341,-20,o),
(425,-20,cs)
);
}
);
width = 956;
},
{
layerId = "B30F41D4-F94E-4E62-9315-7D5BF3371191";
shapes = (
{
closed = 1;
nodes = (
(603,1367,o),
(696,1297,o),
(696,1185,cs),
(696,978,o),
(338,845,o),
(338,513,cs),
(338,480,o),
(342,455,o),
(348,423,c),
(438,423,l),
(434,443,o),
(433,469,o),
(433,485,cs),
(433,829,o),
(812,933,o),
(812,1194,cs),
(812,1335,o),
(704,1485,o),
(466,1485,cs),
(368,1485,o),
(238,1458,o),
(105,1385,c),
(133,1298,l),
(149,1292,l),
(269,1360,o),
(409,1367,o),
(464,1367,cs)
);
},
{
closed = 1;
nodes = (
(447,-20,o),
(489,17,o),
(489,72,cs),
(489,124,o),
(447,160,o),
(398,160,cs),
(348,160,o),
(306,124,o),
(306,72,cs),
(306,17,o),
(348,-20,o),
(398,-20,cs)
);
}
);
width = 883;
},
{
background = {
shapes = (
{
closed = 1;
nodes = (
(872,342,o),
(718,135,o),
(501,135,cs),
(272,135,o),
(115,366,o),
(115,747,cs),
(115,1128,o),
(272,1330,o),
(488,1330,cs),
(717,1330,o),
(872,1105,o),
(872,723,cs)
);
},
{
closed = 1;
nodes = (
(1078,1183,o),
(854,1485,o),
(520,1485,cs),
(182,1485,o),
(-90,1175,o),
(-90,706,cs),
(-90,285,o),
(130,-20,o),
(466,-20,cs),
(808,-20,o),
(1078,297,o),
(1078,761,cs)
);
}
);
};
layerId = "E5022B42-6572-4579-AE6E-2F10A1751A6E";
shapes = (
{
closed = 1;
nodes = (
(538,1231,o),
(589,1195,o),
(589,1135,cs),
(589,1008,o),
(342,941,o),
(342,707,cs),
(342,678,o),
(346,653,o),
(352,626,c),
(645,626,l),
(645,634,o),
(646,644,o),
(646,653,cs),
(646,882,o),
(1046,897,o),
(1046,1173,cs),
(1046,1329,o),
(919,1485,o),
(581,1485,cs),
(444,1485,o),
(262,1460,o),
(88,1365,c),
(155,1153,l),
(174,1143,l),
(258,1193,o),
(391,1231,o),
(466,1231,cs)
);
},
{
closed = 1;
nodes = (
(640,-20,o),
(765,79,o),
(765,229,cs),
(765,369,o),
(655,470,o),
(524,470,cs),
(395,470,o),
(272,371,o),
(272,223,cs),
(272,82,o),
(382,-20,o),
(513,-20,cs)
);
}
);
width = 1151;
},
{
layerId = "09C3E491-E9AE-4DC0-8F4F-6A6E8897705E";
shapes = (
{
closed = 1;
nodes = (
(546,1249,o),
(605,1208,o),
(605,1142,cs),
(605,1004,o),
(342,933,o),
(342,687,cs),
(342,657,o),
(346,632,o),
(352,604,c),
(618,604,l),
(618,614,o),
(618,626,o),
(618,636,cs),
(618,879,o),
(1016,902,o),
(1016,1181,cs),
(1016,1337,o),
(891,1485,o),
(569,1485,cs),
(432,1485,o),
(259,1458,o),
(90,1367,c),
(153,1165,l),
(171,1155,l),
(262,1213,o),
(393,1249,o),
(467,1249,cs)
);
},
{
closed = 1;
nodes = (
(617,-20,o),
(731,74,o),
(731,211,cs),
(731,340,o),
(629,436,o),
(506,436,cs),
(385,436,o),
(273,342,o),
(273,206,cs),
(273,76,o),
(375,-20,o),
(497,-20,cs)
);
}
);
width = 1116;
}
);
unicode = 63;
},
{
glyphname = A;
layers = (
{
background = {
shapes = (
{
closed = 1;
nodes = (
(1220,0,l),
(1370,0,l),
(797,1465,l),
(662,1465,l),
(91,0,l),
(239,0,l),
(390,417,l),
(1067,417,l)
);
},
{
closed = 1;
nodes = (
(442,554,l),
(659,1156,l),
(718,1354,l),
(738,1354,l),
(798,1156,l),
(1012,554,l)
);
}
);
};
layerId = "C8089C2F-C663-459E-AF34-3AEDB7904EA9";
shapes = (
{
closed = 1;
nodes = (
(1172,0,l),
(1378,0,l),
(832,1465,l),
(624,1465,l),
(79,0,l),
(264,0,l),
(401,398,l),
(1033,398,l)
);
},
{
closed = 1;
nodes = (
(454,551,l),
(650,1123,l),
(707,1327,l),
(727,1327,l),
(784,1123,l),
(978,551,l)
);
}
);
width = 1457;
},
{
layerId = "B30F41D4-F94E-4E62-9315-7D5BF3371191";
shapes = (
{
closed = 1;
nodes = (
(1201,0,l),
(1345,0,l),
(794,1465,l),
(669,1465,l),
(117,0,l),
(248,0,l),
(408,438,l),
(1042,438,l)
);
},
{
closed = 1;
nodes = (
(452,556,l),
(681,1179,l),
(714,1311,l),
(734,1311,l),
(771,1179,l),
(1000,556,l)
);
}
);
width = 1462;
},
{
background = {
shapes = (
{
closed = 1;
nodes = (
(1172,0,l),
(1378,0,l),
(832,1465,l),
(644,1465,l),
(99,0,l),
(264,0,l),
(408,418,l),
(1026,418,l)
);
},
{
closed = 1;
nodes = (
(454,551,l),
(650,1123,l),
(707,1327,l),
(727,1327,l),
(784,1123,l),
(978,551,l)
);
}
);
};
layerId = "E5022B42-6572-4579-AE6E-2F10A1751A6E";
shapes = (
{
closed = 1;
nodes = (
(948,0,l),
(1425,0,l),
(1011,1465,l),
(449,1465,l),
(32,0,l),
(395,0,l),
(464,303,l),
(878,303,l)
);
},
{
closed = 1;
nodes = (
(520,536,l),
(616,962,l),
(661,1193,l),
(681,1193,l),
(726,962,l),
(823,536,l)
);
}
);
width = 1457;
},
{
layerId = "09C3E491-E9AE-4DC0-8F4F-6A6E8897705E";
shapes = (
{
closed = 1;
nodes = (
(988,0,l),
(1417,0,l),
(979,1465,l),
(480,1465,l),
(40,0,l),
(372,0,l),
(453,320,l),
(906,320,l)
);
},
{
closed = 1;
nodes = (
(508,539,l),
(622,991,l),
(669,1217,l),
(689,1217,l),
(736,991,l),
(851,539,l)
);
}
);
width = 1457;
}
);
leftKerningGroup = _A_Right;
rightKerningGroup = _A_Left;
unicode = 65;
},
{
glyphname = B;
layers = (
{
background = {
shapes = (
{
closed = 1;
nodes = (
(941,879,o),
(1055,1016,o),
(1055,1146,cs),
(1055,1295,o),
(906,1465,o),
(596,1465,cs),
(230,1465,l),
(230,0,l),
(566,0,ls),
(937,0,o),
(1123,277,o),
(1123,473,cs),
(1123,637,o),
(993,758,o),
(828,806,c)
);
},
{
closed = 1;
nodes = (
(373,697,l),
(587,697,ls),
(821,697,o),
(970,613,o),
(970,436,cs),
(970,295,o),
(882,134,o),
(586,134,cs),
(373,134,l)
);
},
{
closed = 1;
nodes = (
(373,836,l),
(373,1331,l),
(562,1331,ls),
(790,1331,o),
(910,1242,o),
(910,1101,cs),
(910,999,o),
(842,911,o),
(735,836,c)
);
}
);
};
layerId = "C8089C2F-C663-459E-AF34-3AEDB7904EA9";
shapes = (
{
closed = 1;
nodes = (
(996,885,o),
(1111,1012,o),
(1111,1146,cs),
(1111,1303,o),
(952,1465,o),
(630,1465,cs),
(218,1465,l),
(218,0,l),
(594,0,ls),
(978,0,o),
(1178,265,o),
(1178,471,cs),
(1178,643,o),
(1039,762,o),
(877,808,c)
);
},
{
closed = 1;
nodes = (
(414,687,l),
(614,687,ls),
(830,687,o),
(972,609,o),
(972,439,cs),
(972,304,o),
(883,155,o),
(616,155,cs),
(414,155,l)
);
},
{
closed = 1;
nodes = (
(414,842,l),
(414,1310,l),
(596,1310,ls),
(802,1310,o),
(915,1225,o),
(915,1091,cs),
(915,992,o),
(853,908,o),
(758,842,c)
);
}
);
width = 1297;
},
{
layerId = "B30F41D4-F94E-4E62-9315-7D5BF3371191";
shapes = (
{
closed = 1;
nodes = (
(898,847,o),
(1009,988,o),
(1009,1124,cs),
(1009,1278,o),
(868,1465,o),
(568,1465,cs),
(240,1465,l),
(240,0,l),
(561,0,ls),
(922,0,o),
(1078,270,o),
(1078,455,cs),
(1078,616,o),
(957,733,o),
(790,783,c)
);
},
{
closed = 1;
nodes = (
(339,705,l),
(619,705,ls),
(777,705,o),
(968,620,o),
(968,428,cs),
(968,289,o),
(867,117,o),
(561,117,cs),
(339,117,l)
);
},
{
closed = 1;
nodes = (
(339,822,l),
(339,1348,l),
(534,1348,ls),
(780,1348,o),
(899,1254,o),
(899,1111,cs),
(899,1003,o),
(833,904,o),
(716,822,c)
);
}
);
width = 1206;
},
{
background = {
shapes = (
{
closed = 1;
nodes = (
(982,874,o),
(1111,1003,o),
(1111,1145,cs),
(1111,1304,o),
(952,1465,o),
(630,1465,cs),
(218,1465,l),
(218,0,l),
(594,0,ls),
(978,0,o),
(1178,268,o),
(1178,466,cs),
(1178,636,o),
(1030,751,o),
(847,799,c)
);
},
{
closed = 1;
nodes = (
(414,698,l),
(614,698,ls),
(830,698,o),
(972,621,o),
(972,435,cs),
(972,296,o),
(895,133,o),
(616,133,cs),
(414,133,l)
);
},
{
closed = 1;
nodes = (
(414,832,l),
(414,1331,l),
(596,1331,ls),
(802,1331,o),
(915,1244,o),
(915,1094,cs),
(915,981,o),
(853,898,o),
(758,832,c)
);
}
);
};
layerId = "E5022B42-6572-4579-AE6E-2F10A1751A6E";
shapes = (
{
closed = 1;
nodes = (
(1264,913,o),
(1381,993,o),
(1381,1145,cs),
(1381,1340,o),
(1176,1465,o),
(793,1465,cs),
(160,1465,l),
(160,0,l),
(729,0,ls),
(1176,0,o),
(1443,207,o),
(1443,459,cs),
(1443,671,o),
(1263,781,o),
(1116,818,c)
);
},
{
closed = 1;
nodes = (
(611,636,l),
(744,636,ls),
(871,636,o),
(979,587,o),
(979,455,cs),
(979,345,o),
(887,257,o),
(761,257,cs),
(611,257,l)
);
},
{
closed = 1;
nodes = (
(611,869,l),
(611,1208,l),
(760,1208,ls),
(862,1208,o),
(941,1142,o),
(941,1041,cs),
(941,959,o),
(904,893,o),
(868,869,c)
);
}
);
width = 1539;
},
{
layerId = "09C3E491-E9AE-4DC0-8F4F-6A6E8897705E";
shapes = (
{
closed = 1;
nodes = (
(1216,908,o),
(1333,996,o),
(1333,1145,cs),
(1333,1333,o),
(1136,1465,o),
(764,1465,cs),
(170,1465,l),
(170,0,l),
(705,0,ls),
(1141,0,o),
(1396,217,o),
(1396,461,cs),
(1396,666,o),
(1223,778,o),
(1073,816,c)
);
},
{
closed = 1;
nodes = (
(576,645,l),
(721,645,ls),
(864,645,o),
(978,591,o),
(978,452,cs),
(978,338,o),
(886,239,o),
(735,239,cs),
(576,239,l)
);
},
{
closed = 1;
nodes = (
(576,864,l),
(576,1226,l),
(731,1226,ls),
(851,1226,o),
(936,1157,o),
(936,1050,cs),
(936,965,o),
(895,896,o),
(848,864,c)
);
}
);
width = 1496;
}
);
unicode = 66;
},
{
glyphname = C;
layers = (
{
background = {
shapes = (
{
closed = 1;
nodes = (
(1363,671,l),
(1232,671,l),
(1232,166,l),
(1116,130,o),
(1012,114,o),
(921,114,cs),
(529,114,o),
(313,406,o),
(313,729,cs),
(313,1068,o),
(551,1351,o),
(917,1351,cs),
(999,1351,o),
(1131,1337,o),
(1286,1267,c),
(1306,1278,l),
(1332,1417,l),
(1198,1468,o),
(1050,1485,o),
(950,1485,cs),
(517,1485,o),
(160,1169,o),
(160,707,cs),
(160,275,o),
(471,-20,o),
(896,-20,cs),
(1012,-20,o),
(1181,2,o),
(1363,73,c)
);
}
);
};
layerId = "C8089C2F-C663-459E-AF34-3AEDB7904EA9";
shapes = (
{
closed = 1;
nodes = (
(1325,258,l),
(1164,163,o),
(1013,140,o),
(910,140,cs),
(551,140,o),
(352,432,o),
(352,741,cs),
(352,1064,o),
(582,1330,o),
(902,1330,cs),
(990,1330,o),
(1121,1310,o),
(1267,1243,c),
(1287,1253,l),
(1321,1427,l),
(1174,1471,o),
(1038,1485,o),
(947,1485,cs),
(527,1485,o),
(148,1188,o),
(148,699,cs),
(148,265,o),
(447,-20,o),
(833,-20,cs),
(958,-20,o),
(1176,10,o),
(1325,141,c)
);
}
);
width = 1443;
},
{
layerId = "B30F41D4-F94E-4E62-9315-7D5BF3371191";
shapes = (
{
closed = 1;
nodes = (
(1309,205,l),
(1142,105,o),
(962,95,o),
(886,95,cs),
(469,95,o),
(281,430,o),
(281,721,cs),
(281,1075,o),
(544,1368,o),
(893,1368,cs),
(979,1368,o),
(1139,1350,o),
(1267,1287,c),
(1287,1297,l),
(1310,1405,l),
(1172,1469,o),
(1018,1485,o),
(927,1485,cs),
(514,1485,o),
(170,1157,o),
(170,715,cs),
(170,287,o),
(492,-20,o),
(857,-20,cs),
(936,-20,o),
(1149,-6,o),
(1309,123,c)
);
}
);
width = 1445;
},
{
background = {
shapes = (
{
closed = 1;
nodes = (
(655,125,l),
(590,83,o),
(508,65,o),
(458,65,cs),
(291,65,o),
(193,213,o),
(193,378,cs),
(193,559,o),
(314,691,o),
(456,691,cs),
(507,691,o),
(572,679,o),
(646,639,c),
(656,645,l),
(674,727,l),
(599,752,o),
(530,761,o),
(479,761,cs),
(274,761,o),
(85,622,o),
(85,354,cs),
(85,131,o),
(219,-14,o),
(424,-14,cs),
(483,-14,o),
(593,-2,o),
(684,77,c)
);
}
);
};
layerId = "E5022B42-6572-4579-AE6E-2F10A1751A6E";
shapes = (
{
closed = 1;
nodes = (
(1321,319,l),
(1259,297,o),
(1177,259,o),
(1040,259,cs),
(738,259,o),
(554,437,o),
(554,756,cs),
(554,1055,o),
(713,1228,o),
(963,1228,cs),
(1045,1228,o),
(1150,1209,o),
(1257,1157,c),
(1277,1164,l),
(1340,1438,l),
(1213,1472,o),
(1044,1485,o),
(952,1485,cs),
(521,1485,o),
(90,1205,o),
(90,686,cs),
(90,256,o),
(396,-20,o),
(810,-20,cs),
(1007,-20,o),
(1209,42,o),
(1321,131,c)
);
}
);
width = 1436;
},
{
layerId = "09C3E491-E9AE-4DC0-8F4F-6A6E8897705E";
shapes = (
{
closed = 1;
nodes = (
(1322,308,l),
(1242,273,o),
(1148,238,o),
(1017,238,cs),
(705,238,o),
(518,436,o),
(518,753,cs),
(518,1057,o),
(690,1246,o),
(952,1246,cs),
(1035,1246,o),
(1145,1227,o),
(1259,1172,c),
(1279,1180,l),
(1337,1436,l),
(1206,1472,o),
(1043,1485,o),
(951,1485,cs),
(522,1485,o),
(100,1202,o),
(100,688,cs),
(100,258,o),
(405,-20,o),
(814,-20,cs),
(998,-20,o),
(1203,36,o),
(1322,133,c)
);
}
);
width = 1437;
}
);
leftKerningGroup = _C_Right;
rightKerningGroup = _C_Left;
unicode = 67;
},
{
glyphname = D;
layers = (
{
background = {
shapes = (
{
closed = 1;
nodes = (
(188,-6,o),
(319,-9,o),
(351,-9,cs),
(640,-9,o),
(768,188,o),
(768,395,cs),
(768,620,o),
(621,756,o),
(358,756,cs),
(309,756,o),
(199,752,o),
(105,742,c),
(109,618,o),
(111,477,o),
(111,365,cs),
(111,251,o),
(109,122,o),
(105,0,c)
);
},
{
closed = 1;
nodes = (
(214,170,o),
(213,278,o),
(213,373,cs),
(213,468,o),
(214,575,o),
(219,677,c),
(259,681,o),
(319,682,o),
(339,682,cs),
(537,682,o),
(652,564,o),
(652,377,cs),
(652,209,o),
(566,64,o),
(368,64,cs),
(341,64,o),
(285,66,o),
(219,75,c)
);
}
);
};
layerId = "C8089C2F-C663-459E-AF34-3AEDB7904EA9";
shapes = (
{
closed = 1;
nodes = (
(218,0,l),
(681,0,ls),
(1247,0,o),
(1495,414,o),
(1495,782,cs),
(1495,1162,o),
(1230,1465,o),
(713,1465,cs),
(218,1465,l)
);
},
{
closed = 1;
nodes = (
(414,1310,l),
(681,1310,ls),
(1069,1310,o),
(1289,1094,o),
(1289,741,cs),
(1289,419,o),
(1105,155,o),
(717,155,cs),
(414,155,l)
);
}
);
width = 1643;
},
{
layerId = "B30F41D4-F94E-4E62-9315-7D5BF3371191";
shapes = (
{
closed = 1;
nodes = (
(240,0,l),
(652,0,ls),
(1191,0,o),
(1462,403,o),
(1462,773,cs),
(1462,1133,o),
(1206,1465,o),
(688,1465,cs),
(240,1465,l)
);
},
{
closed = 1;
nodes = (
(345,1348,l),
(654,1348,ls),
(1100,1348,o),
(1353,1110,o),
(1353,750,cs),
(1353,412,o),
(1130,117,o),
(679,117,cs),
(345,117,l)
);
}
);
width = 1632;
},
{
background = {
shapes = (
{
closed = 1;
nodes = (
(188,-6,o),
(319,-9,o),
(351,-9,cs),
(640,-9,o),
(768,188,o),
(768,395,cs),
(768,620,o),
(621,756,o),
(358,756,cs),
(309,756,o),
(199,752,o),
(105,742,c),
(109,618,o),
(111,477,o),
(111,365,cs),
(111,251,o),
(109,122,o),
(105,0,c)
);
},
{
closed = 1;
nodes = (
(214,170,o),
(213,278,o),
(213,373,cs),
(213,468,o),
(214,575,o),
(219,677,c),
(259,681,o),
(319,682,o),
(339,682,cs),
(537,682,o),
(652,564,o),
(652,377,cs),
(652,209,o),
(566,64,o),
(368,64,cs),
(341,64,o),
(285,66,o),
(219,75,c)
);
}
);
};
layerId = "E5022B42-6572-4579-AE6E-2F10A1751A6E";
shapes = (
{
closed = 1;
nodes = (
(160,0,l),
(731,-1,ls),
(1369,-2,o),
(1581,416,o),
(1581,784,cs),
(1581,1211,o),
(1296,1465,o),
(782,1465,cs),
(160,1465,l)
);
},
{
closed = 1;
nodes = (
(611,1208,l),
(755,1208,ls),
(987,1208,o),
(1117,1076,o),
(1117,756,cs),
(1117,464,o),
(1010,257,o),
(771,257,cs),
(611,257,l)
);
}
);
width = 1671;
},
{
layerId = "09C3E491-E9AE-4DC0-8F4F-6A6E8897705E";
shapes = (
{
closed = 1;
nodes = (
(170,0,l),
(722,-1,ls),
(1347,-2,o),
(1566,416,o),
(1566,784,cs),
(1566,1202,o),
(1284,1465,o),
(770,1465,cs),
(170,1465,l)
);
},
{
closed = 1;
nodes = (
(576,1226,l),
(742,1226,ls),
(1002,1226,o),
(1148,1079,o),
(1148,753,cs),
(1148,456,o),
(1027,239,o),
(761,239,cs),
(576,239,l)
);
}
);
width = 1666;
}
);
rightKerningGroup = _D_Left;
unicode = 68;
},
{
glyphname = E;
layers = (
{
background = {
shapes = (
{
closed = 1;
nodes = (
(945,864,o),
(1058,999,o),
(1058,1134,cs),
(1058,1289,o),
(909,1465,o),
(599,1465,cs),
(233,1465,l),
(233,0,l),
(579,0,ls),
(950,0,o),
(1126,268,o),
(1126,462,cs),
(1126,628,o),
(997,746,o),
(832,794,c)
);
},
{
closed = 1;
nodes = (
(376,697,l),
(620,697,ls),
(804,697,o),
(973,615,o),
(973,433,cs),
(973,296,o),
(877,134,o),
(589,134,cs),
(376,134,l)
);
},
{
closed = 1;
nodes = (
(376,831,l),
(376,1331,l),
(565,1331,ls),
(793,1331,o),
(909,1241,o),
(909,1102,cs),
(909,998,o),
(845,906,o),
(738,831,c)
);
}
);
};
layerId = "C8089C2F-C663-459E-AF34-3AEDB7904EA9";
shapes = (
{
closed = 1;
nodes = (
(1063,0,l),
(1093,155,l),
(414,155,l),
(414,687,l),
(948,687,l),
(978,842,l),
(414,842,l),
(414,1310,l),
(1047,1310,l),
(1077,1465,l),
(218,1465,l),
(218,0,l)
);
}
);
width = 1224;
},
{
layerId = "B30F41D4-F94E-4E62-9315-7D5BF3371191";
shapes = (
{
closed = 1;
nodes = (
(1041,0,l),
(1066,117,l),
(345,117,l),
(345,705,l),
(926,705,l),
(954,822,l),
(345,822,l),
(345,1348,l),
(1020,1348,l),
(1044,1465,l),
(240,1465,l),
(240,0,l)
);
}
);
width = 1200;
},
{
background = {
shapes = (
{
closed = 1;
nodes = (
(543,0,l),
(554,80,l),
(439,69,o),
(325,67,o),
(209,67,c),
(209,348,l),
(481,348,l),
(494,415,l),
(209,415,l),
(209,672,l),
(316,672,o),
(422,671,o),
(529,660,c),
(544,740,l),
(110,740,l),
(110,0,l)
);
}
);
};
layerId = "E5022B42-6572-4579-AE6E-2F10A1751A6E";
shapes = (
{
closed = 1;
nodes = (
(1137,0,l),
(1182,257,l),
(611,257,l),
(611,636,l),
(1019,636,l),
(1057,869,l),
(611,869,l),
(611,1208,l),
(1132,1208,l),
(1177,1465,l),
(160,1465,l),
(160,0,l)
);
}
);
width = 1299;
},
{
layerId = "09C3E491-E9AE-4DC0-8F4F-6A6E8897705E";
shapes = (
{
closed = 1;
nodes = (
(1124,0,l),
(1166,239,l),
(576,239,l),
(576,645,l),
(1006,645,l),
(1043,864,l),
(576,864,l),
(576,1226,l),
(1117,1226,l),
(1159,1465,l),
(170,1465,l),
(170,0,l)
);
}
);
width = 1286;
}
);
rightKerningGroup = _E_Left;
unicode = 69;
},
{
glyphname = F;
layers = (
{
background = {
shapes = (
{
closed = 1;
nodes = (
(376,0,l),
(376,697,l),
(936,697,l),
(965,836,l),
(376,836,l),
(376,1331,l),
(1032,1331,l),
(1059,1465,l),
(233,1465,l),
(233,0,l)
);
}
);
};
layerId = "C8089C2F-C663-459E-AF34-3AEDB7904EA9";
shapes = (
{
closed = 1;
nodes = (
(414,0,l),
(414,687,l),
(948,687,l),
(978,842,l),
(414,842,l),
(414,1310,l),
(1047,1310,l),
(1077,1465,l),
(218,1465,l),
(218,0,l)
);
}
);
width = 1176;
},
{
layerId = "B30F41D4-F94E-4E62-9315-7D5BF3371191";
shapes = (
{
closed = 1;
nodes = (
(345,0,l),
(345,705,l),
(926,705,l),
(954,822,l),
(345,822,l),
(345,1348,l),
(1020,1348,l),
(1044,1465,l),
(240,1465,l),
(240,0,l)
);
}
);
width = 1149;
},
{
background = {
shapes = (
{
closed = 0;
nodes = (
(209,348,l),
(481,348,l),
(494,415,l),
(209,415,l)
);
}
);
};
layerId = "E5022B42-6572-4579-AE6E-2F10A1751A6E";
shapes = (
{
closed = 1;
nodes = (
(611,0,l),
(611,636,l),
(1019,636,l),
(1057,869,l),
(611,869,l),
(611,1208,l),
(1132,1208,l),
(1177,1465,l),
(160,1465,l),
(160,0,l)
);
}
);
width = 1265;
},
{
layerId = "09C3E491-E9AE-4DC0-8F4F-6A6E8897705E";
shapes = (
{
closed = 1;
nodes = (
(576,0,l),
(576,645,l),
(1006,645,l),
(1043,864,l),
(576,864,l),
(576,1226,l),
(1117,1226,l),
(1159,1465,l),
(170,1465,l),
(170,0,l)
);
}
);
width = 1249;
}
);
unicode = 70;
},
{
glyphname = G;
layers = (
{
background = {
shapes = (
{
closed = 1;
nodes = (
(569,114,o),
(313,358,o),
(313,721,cs),
(313,1069,o),
(547,1351,o),
(881,1351,cs),
(1194,1351,o),
(1453,1104,o),
(1453,738,cs),
(1453,387,o),
(1214,114,o),
(882,114,cs)
);
},
{
closed = 1;
nodes = (
(1264,-20,o),
(1606,317,o),
(1606,764,cs),
(1606,1210,o),
(1267,1485,o),
(909,1485,cs),
(514,1485,o),
(160,1151,o),
(160,701,cs),
(160,267,o),
(490,-20,o),
(862,-20,cs)
);
}
);
};
layerId = "C8089C2F-C663-459E-AF34-3AEDB7904EA9";
shapes = (
{
closed = 1;
nodes = (
(1374,686,l),
(1198,686,l),
(1198,180,l),
(1099,149,o),
(1002,135,o),
(922,135,cs),
(558,135,o),
(352,424,o),
(352,736,cs),
(352,1065,o),
(581,1330,o),
(922,1330,cs),
(1011,1330,o),
(1140,1312,o),
(1287,1245,c),
(1307,1255,l),
(1340,1427,l),
(1194,1471,o),
(1059,1485,o),
(964,1485,cs),
(526,1485,o),
(148,1188,o),
(148,696,cs),
(148,261,o),
(444,-20,o),
(890,-20,cs),
(1021,-20,o),
(1190,4,o),
(1374,75,c)
);
}
);
width = 1582;
},
{
layerId = "B30F41D4-F94E-4E62-9315-7D5BF3371191";
shapes = (
{
closed = 1;
nodes = (
(1354,659,l),
(1260,659,l),
(1260,155,l),
(1130,114,o),
(1020,97,o),
(920,97,cs),
(505,97,o),
(281,391,o),
(281,723,cs),
(281,1070,o),
(526,1368,o),
(913,1368,cs),
(989,1368,o),
(1124,1357,o),
(1285,1285,c),
(1305,1297,l),
(1325,1409,l),
(1201,1466,o),
(1043,1485,o),
(939,1485,cs),
(510,1485,o),
(170,1153,o),
(170,716,cs),
(170,286,o),
(493,-20,o),
(901,-20,cs),
(1005,-20,o),
(1174,0,o),
(1354,71,c)
);
}
);
width = 1587;
},
{
background = {
shapes = (
{
closed = 1;
nodes = (
(1374,686,l),
(1198,686,l),
(1198,152,l),
(1099,121,o),
(1002,107,o),
(923,107,cs),
(558,107,o),
(352,394,o),
(352,735,cs),
(352,1095,o),
(582,1358,o),
(919,1358,cs),
(1012,1358,o),
(1140,1340,o),
(1287,1273,c),
(1307,1283,l),
(1340,1435,l),
(1194,1479,o),
(1059,1493,o),
(964,1493,cs),
(525,1493,o),
(148,1198,o),
(148,695,cs),
(148,333,o),
(345,61,o),
(699,-10,cs),
(758,-22,o),
(822,-28,o),
(889,-28,cs),
(1022,-28,o),
(1190,-4,o),
(1374,67,c)
);
}
);
};
layerId = "E5022B42-6572-4579-AE6E-2F10A1751A6E";
shapes = (
{
closed = 1;
nodes = (
(1428,757,l),
(1032,757,l),
(1032,247,l),
(1017,240,o),
(952,237,o),
(924,237,cs),
(699,237,o),
(554,436,o),
(554,741,cs),
(554,1063,o),
(714,1228,o),
(973,1228,cs),
(1058,1228,o),
(1183,1209,o),
(1291,1155,c),
(1311,1162,l),
(1373,1438,l),
(1245,1472,o),
(1061,1485,o),
(965,1485,cs),
(519,1485,o),
(90,1218,o),
(90,662,cs),
(90,257,o),
(314,-20,o),
(866,-20,cs),
(1058,-20,o),
(1233,15,o),
(1428,86,c)
);
}
);
width = 1565;
},
{
layerId = "09C3E491-E9AE-4DC0-8F4F-6A6E8897705E";
shapes = (
{
closed = 1;
nodes = (
(1418,744,l),
(1062,744,l),
(1062,235,l),
(1032,224,o),
(961,219,o),
(924,219,cs),
(674,219,o),
(518,434,o),
(518,740,cs),
(518,1063,o),
(690,1246,o),
(964,1246,cs),
(1050,1246,o),
(1175,1227,o),
(1290,1171,c),
(1310,1179,l),
(1367,1436,l),
(1236,1472,o),
(1061,1485,o),
(965,1485,cs),
(520,1485,o),
(100,1213,o),
(100,668,cs),
(100,258,o),
(337,-20,o),
(870,-20,cs),
(1051,-20,o),
(1225,13,o),
(1418,84,c)
);
}
);
width = 1568;
}
);
leftKerningGroup = _C_Right;
rightKerningGroup = _G_Left;
unicode = 71;
},
{
glyphname = H;
layers = (
{
background = {
shapes = (
{
closed = 1;
nodes = (
(1051,0,l),
(1078,134,l),
(376,134,l),
(376,697,l),
(936,697,l),
(965,831,l),
(376,831,l),
(376,1331,l),
(1032,1331,l),
(1059,1465,l),
(230,1465,l),
(230,0,l)
);
}
);
};
layerId = "C8089C2F-C663-459E-AF34-3AEDB7904EA9";
shapes = (
{
closed = 1;
nodes = (
(414,0,l),
(414,687,l),
(1202,687,l),
(1202,0,l),
(1398,0,l),
(1398,1465,l),
(1202,1465,l),
(1202,842,l),
(414,842,l),
(414,1465,l),
(218,1465,l),
(218,0,l)
);
}
);
width = 1616;
},
{
layerId = "B30F41D4-F94E-4E62-9315-7D5BF3371191";
shapes = (
{
closed = 1;
nodes = (
(345,0,l),
(345,705,l),
(1244,705,l),
(1244,0,l),
(1349,0,l),
(1349,1465,l),
(1244,1465,l),
(1244,822,l),
(345,822,l),
(345,1465,l),
(240,1465,l),
(240,0,l)
);
}
);
width = 1589;
},
{
background = {
shapes = (
{
closed = 1;
nodes = (
(1067,0,l),
(1093,133,l),
(414,133,l),
(414,699,l),
(952,699,l),
(978,832,l),
(414,832,l),
(414,1331,l),
(1051,1331,l),
(1077,1465,l),
(218,1465,l),
(218,0,l)
);
}
);
};
layerId = "E5022B42-6572-4579-AE6E-2F10A1751A6E";
shapes = (
{
closed = 1;
nodes = (
(611,0,l),
(611,624,l),
(1105,624,l),
(1105,0,l),
(1556,0,l),
(1556,1465,l),
(1105,1465,l),
(1105,881,l),
(611,881,l),
(611,1465,l),
(160,1465,l),
(160,0,l)
);
}
);
width = 1716;
},
{
layerId = "09C3E491-E9AE-4DC0-8F4F-6A6E8897705E";
shapes = (
{
closed = 1;
nodes = (
(576,0,l),
(576,635,l),
(1122,635,l),
(1122,0,l),
(1528,0,l),
(1528,1465,l),
(1122,1465,l),
(1122,874,l),
(576,874,l),
(576,1465,l),
(170,1465,l),
(170,0,l)
);
}
);
width = 1698;
}
);
unicode = 72;
},
{
glyphname = I;
layers = (
{
background = {
shapes = (
{
closed = 1;
nodes = (
(216,0,l),
(212,122,o),
(208,244,o),
(208,369,cs),
(208,490,o),
(211,616,o),
(215,740,c),
(101,740,l),
(105,617,o),
(107,493,o),
(107,369,cs),
(107,246,o),
(105,124,o),
(101,0,c)
);
}
);
};
layerId = "C8089C2F-C663-459E-AF34-3AEDB7904EA9";
shapes = (
{
closed = 1;
nodes = (
(414,1465,l),
(218,1465,l),
(218,0,l),
(414,0,l)
);
}
);
width = 632;
},
{
layerId = "B30F41D4-F94E-4E62-9315-7D5BF3371191";
shapes = (
{
closed = 1;
nodes = (
(345,1465,l),
(240,1465,l),
(240,0,l),
(345,0,l)
);
}
);
width = 585;
},
{
background = {
shapes = (
{
closed = 1;
nodes = (
(216,0,l),
(212,122,o),
(208,244,o),
(208,369,cs),
(208,490,o),
(211,616,o),
(215,740,c),
(101,740,l),
(105,617,o),
(107,493,o),
(107,369,cs),
(107,246,o),
(105,124,o),
(101,0,c)
);
}
);
};
layerId = "E5022B42-6572-4579-AE6E-2F10A1751A6E";
shapes = (
{
closed = 1;
nodes = (
(611,1465,l),
(160,1465,l),
(160,0,l),
(611,0,l)
);
}
);
width = 771;
},
{
layerId = "09C3E491-E9AE-4DC0-8F4F-6A6E8897705E";
shapes = (
{
closed = 1;
nodes = (
(576,1465,l),
(170,1465,l),
(170,0,l),
(576,0,l)
);
}
);
width = 746;
}
);
unicode = 73;
},
{
glyphname = J;
layers = (
{
background = {
shapes = (
{
closed = 1;
nodes = (
(198,1467,o),
(245,1421,o),
(302,1421,cs),
(360,1421,o),
(407,1467,o),
(407,1525,cs),
(407,1583,o),
(360,1630,o),
(302,1630,cs),
(245,1630,o),
(198,1583,o),
(198,1525,cs)
);
},
{
closed = 1;
nodes = (
(231,179,ls),
(231,-7,o),
(176,-213,o),
(-36,-379,c),
(16,-449,l),
(268,-298,o),
(374,-54,o),
(374,192,cs),
(374,1170,l),
(231,1170,l)
);
}
);
};
layerId = "C8089C2F-C663-459E-AF34-3AEDB7904EA9";
shapes = (
{
closed = 1;
nodes = (
(2,-461,l),
(345,-287,o),
(412,-16,o),
(412,295,cs),
(412,1465,l),
(216,1465,l),
(216,232,ls),
(216,-8,o),
(190,-197,o),
(-63,-359,c)
);
}
);
width = 630;
},
{
layerId = "B30F41D4-F94E-4E62-9315-7D5BF3371191";
shapes = (
{
closed = 1;
nodes = (
(24,-441,l),
(336,-254,o),
(347,33,o),
(347,230,cs),
(347,1465,l),
(241,1465,l),
(241,234,ls),
(241,19,o),
(239,-213,o),
(-23,-383,c)
);
}
);
width = 586;
},
{
background = {
shapes = (
{
closed = 0;
nodes = (
(110,34,l),
(110,-61,o),
(90,-171,o),
(-13,-252,c),
(14,-294,l),
(159,-216,o),
(208,-75,o),
(208,54,c)
);
}
);
};
layerId = "E5022B42-6572-4579-AE6E-2F10A1751A6E";
shapes = (
{
closed = 1;
nodes = (
(-42,-517,l),
(384,-376,o),
(612,-146,o),
(612,322,cs),
(612,1465,l),
(160,1465,l),
(160,225,ls),
(160,-80,o),
(67,-201,o),
(-149,-343,c)
);
}
);
width = 771;
},
{
layerId = "09C3E491-E9AE-4DC0-8F4F-6A6E8897705E";
shapes = (
{
closed = 1;
nodes = (
(-34,-507,l),
(377,-360,o),
(576,-123,o),
(576,317,cs),
(576,1465,l),
(170,1465,l),
(170,226,ls),
(170,-67,o),
(89,-200,o),
(-134,-346,c)
);
}
);
width = 746;
}
);
unicode = 74;
},
{
glyphname = K;
layers = (
{
layerId = "C8089C2F-C663-459E-AF34-3AEDB7904EA9";
shapes = (
{
closed = 1;
nodes = (
(414,1465,l),
(218,1465,l),
(218,0,l),
(414,0,l)
);
},
{
closed = 1;
nodes = (
(1391,0,l),
(701,765,l),
(1331,1465,l),
(1111,1465,l),
(507,740,l),
(1141,0,l)
);
}
);
width = 1461;
},
{
layerId = "B30F41D4-F94E-4E62-9315-7D5BF3371191";
shapes = (
{
closed = 1;
nodes = (
(345,1465,l),
(240,1465,l),
(240,0,l),
(345,0,l)
);
},
{
closed = 1;
nodes = (
(1295,0,l),
(586,752,l),
(1226,1465,l),
(1109,1465,l),
(438,740,l),
(1143,0,l)
);
}
);
width = 1374;
},
{
background = {
shapes = (
{
closed = 1;
nodes = (
(414,1465,l),
(218,1465,l),
(218,0,l),
(414,0,l)
);
},
{
closed = 1;
nodes = (
(1391,0,l),
(692,775,l),
(1311,1465,l),
(1111,1465,l),
(507,740,l),
(1141,0,l)
);
}
);
};
layerId = "E5022B42-6572-4579-AE6E-2F10A1751A6E";
shapes = (
{
closed = 1;
nodes = (
(611,1465,l),
(160,1465,l),
(160,0,l),
(611,0,l)
);
},
{
closed = 1;
nodes = (
(1662,0,l),
(1127,851,l),
(1626,1465,l),
(1221,1465,l),
(697,740,l),
(1123,0,l)
);
}
);
width = 1708;
},
{
layerId = "09C3E491-E9AE-4DC0-8F4F-6A6E8897705E";
shapes = (
{
closed = 1;
nodes = (
(576,1465,l),
(170,1465,l),
(170,0,l),
(576,0,l)
);
},
{
closed = 1;
nodes = (
(1614,0,l),
(1051,836,l),
(1573,1465,l),
(1201,1465,l),
(663,740,l),
(1126,0,l)
);
}
);
width = 1664;
}
);
rightKerningGroup = _K_Left;
unicode = 75;
},
{
glyphname = L;
layers = (
{
background = {
shapes = (
{
closed = 1;
nodes = (
(974,0,l),
(1001,134,l),
(376,134,l),
(376,1465,l),
(233,1465,l),
(233,0,l)
);
}
);
};
layerId = "C8089C2F-C663-459E-AF34-3AEDB7904EA9";
shapes = (
{
closed = 1;
nodes = (
(990,0,l),
(1020,155,l),
(414,155,l),
(414,1465,l),
(218,1465,l),
(218,0,l)
);
}
);
width = 1100;
},
{
layerId = "B30F41D4-F94E-4E62-9315-7D5BF3371191";
shapes = (
{
closed = 1;
nodes = (
(961,0,l),
(985,117,l),
(345,117,l),
(345,1465,l),
(240,1465,l),
(240,0,l)
);
}
);
width = 1062;
},
{
background = {
shapes = (
{
closed = 1;
nodes = (
(502,0,l),
(517,80,l),
(412,69,o),
(310,67,o),
(209,67,c),
(209,740,l),
(110,740,l),
(110,0,l)
);
}
);
};
layerId = "E5022B42-6572-4579-AE6E-2F10A1751A6E";
shapes = (
{
closed = 1;
nodes = (
(1080,0,l),
(1125,257,l),
(611,257,l),
(611,1465,l),
(160,1465,l),
(160,0,l)
);
}
);
width = 1217;
},
{
layerId = "09C3E491-E9AE-4DC0-8F4F-6A6E8897705E";
shapes = (
{
closed = 1;
nodes = (
(1064,0,l),
(1106,239,l),
(576,239,l),
(576,1465,l),
(170,1465,l),
(170,0,l)
);
}
);
width = 1196;
}
);
rightKerningGroup = _L_Left;
unicode = 76;
},
{
glyphname = M;
layers = (
{
background = {
shapes = (
{
closed = 1;
nodes = (
(330,0,l),
(417,1174,l),
(425,1364,l),
(442,1364,l),
(501,1180,l),
(942,30,l),
(1070,30,l),
(1506,1182,l),
(1563,1364,l),
(1581,1364,l),
(1591,1172,l),
(1677,0,l),
(1821,0,l),
(1712,1465,l),
(1479,1465,l),
(1076,401,l),
(1023,237,l),
(1003,237,l),
(947,402,l),
(541,1465,l),
(309,1465,l),
(200,0,l)
);
}
);
};
guides = (
{
position = "{0, 1212}";
},
{
angle = 90;
position = "{22, 0}";
}
);
layerId = "C8089C2F-C663-459E-AF34-3AEDB7904EA9";
shapes = (
{
closed = 1;
nodes = (
(348,0,l),
(426,1152,l),
(432,1360,l),
(451,1360,l),
(511,1158,l),
(911,30,l),
(1088,30,l),
(1484,1160,l),
(1542,1360,l),
(1561,1360,l),
(1569,1150,l),
(1647,0,l),
(1840,0,l),
(1729,1465,l),
(1434,1465,l),
(1071,442,l),
(1016,251,l),
(996,251,l),
(940,442,l),
(578,1465,l),
(284,1465,l),
(173,0,l)
);
}
);
width = 2006;
},
{
guides = (
{
position = "{0, 1212}";
},
{
angle = 90;
position = "{22, 0}";
}
);
layerId = "B30F41D4-F94E-4E62-9315-7D5BF3371191";
shapes = (
{
closed = 1;
nodes = (
(315,0,l),
(410,1192,l),
(419,1367,l),
(435,1367,l),
(493,1198,l),
(967,30,l),
(1055,30,l),
(1524,1200,l),
(1580,1367,l),
(1597,1367,l),
(1609,1190,l),
(1702,0,l),
(1805,0,l),
(1698,1465,l),
(1516,1465,l),
(1080,367,l),
(1029,226,l),
(1009,226,l),
(953,369,l),
(511,1465,l),
(329,1465,l),
(222,0,l)
);
}
);
width = 2033;
},
{
background = {
shapes = (
{
closed = 1;
nodes = (
(348,0,l),
(426,1152,l),
(432,1360,l),
(451,1360,l),
(511,1158,l),
(911,30,l),
(1073,30,l),
(1469,1160,l),
(1527,1360,l),
(1546,1360,l),
(1554,1150,l),
(1632,0,l),
(1818,0,l),
(1707,1465,l),
(1434,1465,l),
(1071,442,l),
(1016,251,l),
(996,251,l),
(940,442,l),
(578,1465,l),
(299,1465,l),
(188,0,l)
);
}
);
};
guides = (
{
position = "{0, 1212}";
},
{
angle = 90;
position = "{22, 0}";
}
);
layerId = "E5022B42-6572-4579-AE6E-2F10A1751A6E";
shapes = (
{
closed = 1;
nodes = (
(509,0,l),
(536,885,l),
(534,1181,l),
(561,1181,l),
(627,889,l),
(834,29,l),
(1249,29,l),
(1457,891,l),
(1521,1181,l),
(1548,1181,l),
(1547,883,l),
(1575,0,l),
(2074,0,l),
(1954,1465,l),
(1277,1465,l),
(1150,868,l),
(1084,546,l),
(1064,546,l),
(1007,867,l),
(879,1465,l),
(252,1465,l),
(133,0,l)
);
}
);
width = 2208;
},
{
guides = (
{
position = "{0, 1212}";
},
{
angle = 90;
position = "{22, 0}";
}
);
layerId = "09C3E491-E9AE-4DC0-8F4F-6A6E8897705E";
shapes = (
{
closed = 1;
nodes = (
(480,0,l),
(516,933,l),
(516,1213,l),
(541,1213,l),
(606,937,l),
(848,29,l),
(1220,29,l),
(1462,939,l),
(1525,1213,l),
(1550,1213,l),
(1551,931,l),
(1588,0,l),
(2032,0,l),
(1914,1465,l),
(1305,1465,l),
(1136,792,l),
(1072,493,l),
(1052,493,l),
(995,791,l),
(825,1465,l),
(258,1465,l),
(140,0,l)
);
}
);
width = 2172;
}
);
unicode = 77;
},
{
glyphname = N;
layers = (
{
background = {
shapes = (
{
closed = 1;
nodes = (
(366,1465,l),
(220,1465,l),
(220,0,l),
(366,0,l)
);
},
{
closed = 1;
nodes = (
(1447,1465,l),
(1301,1465,l),
(1301,0,l),
(1447,0,l)
);
}
);
};
layerId = "C8089C2F-C663-459E-AF34-3AEDB7904EA9";
shapes = (
{
closed = 1;
nodes = (
(387,0,l),
(387,1150,l),
(373,1354,l),
(393,1354,l),
(483,1180,l),
(1303,0,l),
(1469,0,l),
(1469,1465,l),
(1290,1465,l),
(1290,489,l),
(1304,285,l),
(1284,285,l),
(1184,465,l),
(493,1465,l),
(208,1465,l),
(208,0,l)
);
}
);
width = 1677;
},
{
layerId = "B30F41D4-F94E-4E62-9315-7D5BF3371191";
shapes = (
{
closed = 1;
nodes = (
(325,0,l),
(325,1183,l),
(309,1372,l),
(329,1372,l),
(423,1218,l),
(1363,0,l),
(1429,0,l),
(1429,1465,l),
(1334,1465,l),
(1334,404,l),
(1349,225,l),
(1329,225,l),
(1235,367,l),
(384,1465,l),
(230,1465,l),
(230,0,l)
);
}
);
width = 1659;
},
{
background = {
shapes = (
{
closed = 1;
nodes = (
(382,0,l),
(382,1150,l),
(368,1364,l),
(388,1364,l),
(483,1180,l),
(1303,0,l),
(1459,0,l),
(1459,1465,l),
(1295,1465,l),
(1295,489,l),
(1309,275,l),
(1289,275,l),
(1184,465,l),
(493,1465,l),
(218,1465,l),
(218,0,l)
);
}
);
};
layerId = "E5022B42-6572-4579-AE6E-2F10A1751A6E";
shapes = (
{
closed = 1;
nodes = (
(505,0,l),
(505,855,l),
(496,1101,l),
(516,1101,l),
(625,872,l),
(1100,0,l),
(1592,0,l),
(1592,1465,l),
(1249,1465,l),
(1249,819,l),
(1258,548,l),
(1238,548,l),
(1123,790,l),
(762,1465,l),
(162,1465,l),
(162,0,l)
);
}
);
width = 1754;
},
{
layerId = "09C3E491-E9AE-4DC0-8F4F-6A6E8897705E";
shapes = (
{
closed = 1;
nodes = (
(484,0,l),
(484,908,l),
(474,1146,l),
(494,1146,l),
(600,927,l),
(1136,0,l),
(1570,0,l),
(1570,1465,l),
(1256,1465,l),
(1256,760,l),
(1266,501,l),
(1246,501,l),
(1134,732,l),
(714,1465,l),
(170,1465,l),
(170,0,l)
);
}
);
width = 1740;
}
);
leftKerningGroup = _N_Right;
rightKerningGroup = _N_Left;
unicode = 78;
},
{
glyphname = O;
layers = (
{
background = {
shapes = (
{
closed = 1;
nodes = (
(569,114,o),
(313,358,o),
(313,721,cs),
(313,1069,o),
(547,1351,o),
(881,1351,cs),
(1194,1351,o),
(1453,1104,o),
(1453,738,cs),
(1453,387,o),
(1214,114,o),
(882,114,cs)
);
},
{
closed = 1;
nodes = (
(1264,-20,o),
(1606,317,o),
(1606,764,cs),
(1606,1210,o),
(1267,1485,o),
(909,1485,cs),
(514,1485,o),
(160,1151,o),
(160,701,cs),
(160,267,o),
(490,-20,o),
(862,-20,cs)
);
}
);
};
guides = (
{
angle = 90;
position = "{1408, 0}";
}
);
layerId = "C8089C2F-C663-459E-AF34-3AEDB7904EA9";
shapes = (
{
closed = 1;
nodes = (
(588,135,o),
(354,384,o),
(354,733,cs),
(354,1060,o),
(562,1330,o),
(873,1330,cs),
(1172,1330,o),
(1408,1079,o),
(1408,729,cs),
(1408,397,o),
(1195,135,o),
(888,135,cs)
);
},
{
closed = 1;
nodes = (
(1266,-20,o),
(1614,316,o),
(1614,770,cs),
(1614,1217,o),
(1276,1485,o),
(911,1485,cs),
(505,1485,o),
(148,1151,o),
(148,696,cs),
(148,257,o),
(480,-20,o),
(854,-20,cs)
);
}
);
width = 1762;
},
{
guides = (
{
angle = 90;
position = "{1408, 0}";
}
);
layerId = "B30F41D4-F94E-4E62-9315-7D5BF3371191";
shapes = (
{
closed = 1;
nodes = (
(553,97,o),
(279,337,o),
(279,711,cs),
(279,1076,o),
(535,1368,o),
(888,1368,cs),
(1212,1368,o),
(1490,1124,o),
(1490,745,cs),
(1490,379,o),
(1230,97,o),
(877,97,cs)
);
},
{
closed = 1;
nodes = (
(1262,-20,o),
(1599,318,o),
(1599,759,cs),
(1599,1204,o),
(1260,1485,o),
(907,1485,cs),
(521,1485,o),
(170,1151,o),
(170,705,cs),
(170,275,o),
(498,-20,o),
(869,-20,cs)
);
}
);
width = 1769;
},
{
background = {
shapes = (
{
closed = 1;
nodes = (
(588,115,o),
(354,364,o),
(354,733,cs),
(354,1080,o),
(562,1350,o),
(873,1350,cs),
(1172,1350,o),
(1408,1099,o),
(1408,729,cs),
(1408,377,o),
(1195,115,o),
(888,115,cs)
);
},
{
closed = 1;
nodes = (
(1266,-20,o),
(1614,316,o),
(1614,770,cs),
(1614,1217,o),
(1276,1485,o),
(911,1485,cs),
(505,1485,o),
(148,1151,o),
(148,696,cs),
(148,257,o),
(480,-20,o),
(854,-20,cs)
);
}
);
};
guides = (
{
angle = 90;
position = "{1408, 0}";
}
);
layerId = "E5022B42-6572-4579-AE6E-2F10A1751A6E";
shapes = (
{
closed = 1;
nodes = (
(668,237,o),
(554,479,o),
(554,745,cs),
(554,991,o),
(651,1228,o),
(862,1228,cs),
(1075,1228,o),
(1190,986,o),
(1190,720,cs),
(1190,476,o),
(1093,237,o),
(881,237,cs)
);
},
{
closed = 1;
nodes = (
(1328,-20,o),
(1653,286,o),
(1653,761,cs),
(1653,1226,o),
(1344,1485,o),
(896,1485,cs),
(411,1485,o),
(90,1179,o),
(90,705,cs),
(90,239,o),
(401,-20,o),
(845,-20,cs)
);
}
);
width = 1743;
},
{
guides = (
{
angle = 90;
position = "{1408, 0}";
}
);
layerId = "09C3E491-E9AE-4DC0-8F4F-6A6E8897705E";
shapes = (
{
closed = 1;
nodes = (
(654,219,o),
(518,462,o),
(518,743,cs),
(518,1003,o),
(635,1246,o),
(864,1246,cs),
(1092,1246,o),
(1229,1003,o),
(1229,722,cs),
(1229,462,o),
(1111,219,o),
(882,219,cs)
);
},
{
closed = 1;
nodes = (
(1317,-20,o),
(1646,291,o),
(1646,763,cs),
(1646,1224,o),
(1332,1485,o),
(899,1485,cs),
(428,1485,o),
(100,1174,o),
(100,703,cs),
(100,242,o),
(415,-20,o),
(847,-20,cs)
);
}
);
width = 1746;
}
);
leftKerningGroup = _C_Right;
rightKerningGroup = _D_Left;
unicode = 79;
},
{
glyphname = P;
layers = (
{
layerId = "C8089C2F-C663-459E-AF34-3AEDB7904EA9";
shapes = (
{
closed = 1;
nodes = (
(414,1310,l),
(580,1310,ls),
(818,1310,o),
(964,1214,o),
(964,988,cs),
(964,768,o),
(824,665,o),
(653,665,cs),
(636,665,o),
(620,665,o),
(596,669,c),
(582,519,l),
(608,515,o),
(626,515,o),
(642,515,cs),
(893,515,o),
(1164,697,o),
(1164,1012,cs),
(1164,1307,o),
(927,1465,o),
(618,1465,cs),
(218,1465,l),
(218,0,l),
(414,0,l)
);
}
);
width = 1261;
},
{
layerId = "B30F41D4-F94E-4E62-9315-7D5BF3371191";
shapes = (
{
closed = 1;
nodes = (
(345,1348,l),
(533,1348,ls),
(791,1348,o),
(969,1247,o),
(969,1003,cs),
(969,755,o),
(789,650,o),
(580,650,cs),
(560,650,o),
(525,650,o),
(516,653,c),
(511,535,l),
(539,531,o),
(566,531,o),
(580,531,cs),
(804,531,o),
(1084,704,o),
(1084,1019,cs),
(1084,1320,o),
(831,1465,o),
(569,1465,cs),
(240,1465,l),
(240,0,l),
(345,0,l)
);
}
);
width = 1177;
},
{
layerId = "E5022B42-6572-4579-AE6E-2F10A1751A6E";
shapes = (
{
closed = 1;
nodes = (
(611,1208,l),
(750,1208,ls),
(880,1208,o),
(964,1136,o),
(964,941,cs),
(964,837,o),
(946,703,o),
(834,703,cs),
(825,703,o),
(805,704,o),
(803,704,c),
(784,474,l),
(809,470,o),
(829,469,o),
(853,469,cs),
(1173,469,o),
(1398,678,o),
(1398,990,cs),
(1398,1272,o),
(1201,1465,o),
(764,1465,cs),
(160,1465,l),
(160,0,l),
(611,0,l)
);
}
);
width = 1498;
},
{
layerId = "09C3E491-E9AE-4DC0-8F4F-6A6E8897705E";
shapes = (
{
closed = 1;
nodes = (
(576,1226,l),
(720,1226,ls),
(869,1226,o),
(964,1150,o),
(964,949,cs),
(964,825,o),
(924,696,o),
(802,696,cs),
(791,696,o),
(772,697,o),
(766,698,c),
(748,482,l),
(773,478,o),
(793,477,o),
(815,477,cs),
(1123,477,o),
(1356,681,o),
(1356,994,cs),
(1356,1278,o),
(1152,1465,o),
(738,1465,cs),
(170,1465,l),
(170,0,l),
(576,0,l)
);
}
);
width = 1456;
}
);
unicode = 80;
},
{
glyphname = Q;
layers = (
{
background = {
shapes = (
{
closed = 1;
nodes = (
(1795,-438,l),
(1889,-314,l),
(1047,3,l),
(1349,94,o),
(1606,387,o),
(1606,774,cs),
(1606,1214,o),
(1262,1485,o),
(914,1485,cs),
(524,1485,o),
(160,1144,o),
(160,700,cs),
(160,291,o),
(472,-20,o),
(842,-20,c)
);
},
{
closed = 1;
nodes = (
(571,114,o),
(313,366,o),
(313,730,cs),
(313,1075,o),
(544,1351,o),
(874,1351,cs),
(1192,1351,o),
(1453,1098,o),
(1453,732,cs),
(1453,382,o),
(1215,114,o),
(888,114,cs)
);
}
);
};
layerId = "C8089C2F-C663-459E-AF34-3AEDB7904EA9";
shapes = (
{
closed = 1;
nodes = (
(1784,-439,l),
(1901,-284,l),
(1087,17,l),
(1378,115,o),
(1614,398,o),
(1614,772,cs),
(1614,1216,o),
(1276,1485,o),
(911,1485,cs),
(505,1485,o),
(148,1150,o),
(148,701,cs),
(148,281,o),
(461,-20,o),
(843,-20,c)
);
},
{
closed = 1;
nodes = (
(588,135,o),
(354,385,o),
(354,733,cs),
(354,1061,o),
(562,1330,o),
(872,1330,cs),
(1172,1330,o),
(1408,1079,o),
(1408,730,cs),
(1408,398,o),
(1194,135,o),
(887,135,cs)
);
}
);
width = 1746;
},
{
layerId = "B30F41D4-F94E-4E62-9315-7D5BF3371191";
shapes = (
{
closed = 1;
nodes = (
(1842,-437,l),
(1910,-344,l),
(1047,2,l),
(1369,90,o),
(1599,393,o),
(1599,757,cs),
(1599,1205,o),
(1260,1485,o),
(907,1485,cs),
(521,1485,o),
(170,1152,o),
(170,701,cs),
(170,256,o),
(516,-20,o),
(879,-20,c)
);
},
{
closed = 1;
nodes = (
(553,97,o),
(279,336,o),
(279,711,cs),
(279,1076,o),
(535,1368,o),
(888,1368,cs),
(1212,1368,o),
(1490,1124,o),
(1490,745,cs),
(1490,378,o),
(1230,97,o),
(878,97,cs)
);
}
);
width = 1784;
},
{
background = {
shapes = (
{
closed = 1;
nodes = (
(1784,-439,l),
(1891,-297,l),
(1069,12,l),
(1382,109,o),
(1614,404,o),
(1614,770,cs),
(1614,1218,o),
(1275,1485,o),
(911,1485,cs),
(505,1485,o),
(148,1152,o),
(148,697,cs),
(148,283,o),
(461,-20,o),
(843,-20,c)
);
},
{
closed = 1;
nodes = (
(588,115,o),
(354,364,o),
(354,735,cs),
(354,1081,o),
(562,1350,o),
(873,1350,cs),
(1172,1350,o),
(1408,1099,o),
(1408,729,cs),
(1408,378,o),
(1194,115,o),
(887,115,cs)
);
}
);
};
layerId = "E5022B42-6572-4579-AE6E-2F10A1751A6E";
shapes = (
{
closed = 1;
nodes = (
(1732,-444,l),
(1959,-138,l),
(1283,84,l),
(1518,217,o),
(1653,452,o),
(1653,761,cs),
(1653,1226,o),
(1344,1485,o),
(896,1485,cs),
(411,1485,o),
(90,1179,o),
(90,703,cs),
(90,234,o),
(405,-20,o),
(848,-20,c)
);
},
{
closed = 1;
nodes = (
(668,237,o),
(554,479,o),
(554,745,cs),
(554,990,o),
(651,1228,o),
(862,1228,cs),
(1075,1228,o),
(1190,986,o),
(1190,720,cs),
(1190,476,o),
(1093,237,o),
(881,237,cs)
);
}
);
width = 1746;
},
{
layerId = "09C3E491-E9AE-4DC0-8F4F-6A6E8897705E";
shapes = (
{
closed = 1;
nodes = (
(1741,-443,l),
(1949,-164,l),
(1248,72,l),
(1493,199,o),
(1646,442,o),
(1646,763,cs),
(1646,1224,o),
(1332,1485,o),
(899,1485,cs),
(428,1485,o),
(100,1174,o),
(100,703,cs),
(100,242,o),
(415,-20,o),
(847,-20,c)
);
},
{
closed = 1;
nodes = (
(654,219,o),
(518,462,o),
(518,743,cs),
(518,1003,o),
(635,1246,o),
(864,1246,cs),
(1092,1246,o),
(1229,1003,o),
(1229,722,cs),
(1229,462,o),
(1111,219,o),
(882,219,cs)
);
}
);
width = 1746;
}
);
leftKerningGroup = _C_Right;
rightKerningGroup = _D_Left;
unicode = 81;
},
{
glyphname = R;
layers = (
{
guides = (
{
angle = 90;
position = "{1455, 0}";
}
);
layerId = "C8089C2F-C663-459E-AF34-3AEDB7904EA9";
shapes = (
{
closed = 1;
nodes = (
(683,584,l),
(1018,0,l),
(1253,0,l),
(822,659,l),
(967,741,o),
(1119,885,o),
(1119,1076,cs),
(1119,1295,o),
(921,1465,o),
(632,1465,cs),
(218,1465,l),
(218,0,l),
(414,0,l),
(414,584,l)
);
},
{
closed = 1;
nodes = (
(414,1310,l),
(594,1310,ls),
(813,1310,o),
(919,1194,o),
(919,1041,cs),
(919,919,o),
(851,800,o),
(739,739,c),
(414,739,l)
);
}
);
width = 1325;
},
{
guides = (
{
angle = 90;
position = "{1455, 0}";
}
);
layerId = "B30F41D4-F94E-4E62-9315-7D5BF3371191";
shapes = (
{
closed = 1;
nodes = (
(645,609,l),
(1036,0,l),
(1173,0,l),
(766,643,l),
(874,716,o),
(1032,869,o),
(1032,1072,cs),
(1032,1304,o),
(825,1465,o),
(592,1465,cs),
(240,1465,l),
(240,0,l),
(345,0,l),
(345,609,l)
);
},
{
closed = 1;
nodes = (
(345,1348,l),
(549,1348,ls),
(800,1348,o),
(917,1225,o),
(917,1065,cs),
(917,944,o),
(849,798,o),
(715,726,c),
(345,726,l)
);
}
);
width = 1254;
},
{
background = {
shapes = (
{
closed = 1;
nodes = (
(677,594,l),
(1026,-12,l),
(1245,12,l),
(822,659,l),
(968,741,o),
(1119,897,o),
(1119,1085,cs),
(1119,1295,o),
(921,1465,o),
(632,1465,cs),
(218,1465,l),
(218,0,l),
(414,0,l),
(414,594,l)
);
},
{
closed = 1;
nodes = (
(414,1331,l),
(594,1331,ls),
(812,1331,o),
(919,1214,o),
(919,1051,cs),
(919,923,o),
(857,794,o),
(754,727,c),
(414,727,l)
);
}
);
};
guides = (
{
angle = 90;
position = "{1455, 0}";
}
);
layerId = "E5022B42-6572-4579-AE6E-2F10A1751A6E";
shapes = (
{
closed = 1;
nodes = (
(745,516,l),
(974,0,l),
(1494,0,l),
(1096,680,l),
(1215,768,o),
(1371,908,o),
(1371,1089,cs),
(1371,1283,o),
(1194,1465,o),
(755,1465,cs),
(160,1465,l),
(160,0,l),
(611,0,l),
(611,516,l)
);
},
{
closed = 1;
nodes = (
(611,1208,l),
(729,1208,ls),
(863,1208,o),
(937,1109,o),
(937,978,cs),
(937,852,o),
(869,778,o),
(818,749,c),
(611,749,l)
);
}
);
width = 1527;
},
{
guides = (
{
angle = 90;
position = "{1455, 0}";
}
);
layerId = "09C3E491-E9AE-4DC0-8F4F-6A6E8897705E";
shapes = (
{
closed = 1;
nodes = (
(734,528,l),
(982,0,l),
(1451,0,l),
(1047,676,l),
(1171,763,o),
(1326,904,o),
(1326,1087,cs),
(1326,1285,o),
(1145,1465,o),
(733,1465,cs),
(170,1465,l),
(170,0,l),
(576,0,l),
(576,528,l)
);
},
{
closed = 1;
nodes = (
(576,1226,l),
(705,1226,ls),
(854,1226,o),
(934,1124,o),
(934,989,cs),
(934,864,o),
(866,782,o),
(804,747,c),
(576,747,l)
);
}
);
width = 1491;
}
);
rightKerningGroup = _R_Left;
unicode = 82;
},
{
glyphname = S;
layers = (
{
background = {
shapes = (
{
closed = 1;
nodes = (
(509,111,o),
(386,134,o),
(285,189,c),
(267,177,l),
(234,50,l),
(343,5,o),
(466,-20,o),
(559,-20,cs),
(773,-20,o),
(967,109,o),
(967,309,cs),
(967,652,o),
(393,538,o),
(393,780,cs),
(393,879,o),
(490,949,o),
(625,949,cs),
(701,949,o),
(805,927,o),
(875,894,c),
(893,906,l),
(929,1037,l),
(832,1068,o),
(720,1080,o),
(654,1080,cs),
(423,1080,o),
(260,930,o),
(260,749,cs),
(260,410,o),
(831,532,o),
(831,283,cs),
(831,178,o),
(729,111,o),
(591,111,cs)
);
}
);
};
layerId = "C8089C2F-C663-459E-AF34-3AEDB7904EA9";
shapes = (
{
closed = 1;
nodes = (
(482,135,o),
(337,184,o),
(202,262,c),
(182,252,l),
(148,77,l),
(277,18,o),
(438,-20,o),
(572,-20,cs),
(887,-20,o),
(1101,190,o),
(1101,426,cs),
(1101,856,o),
(388,762,o),
(388,1117,cs),
(388,1251,o),
(490,1330,o),
(646,1330,cs),
(724,1330,o),
(857,1310,o),
(1004,1243,c),
(1024,1253,l),
(1057,1427,l),
(911,1471,o),
(772,1485,o),
(686,1485,cs),
(404,1485,o),
(202,1333,o),
(202,1081,cs),
(202,609,o),
(910,726,o),
(910,380,cs),
(910,234,o),
(784,135,o),
(607,135,cs)
);
}
);
width = 1249;
},
{
layerId = "B30F41D4-F94E-4E62-9315-7D5BF3371191";
shapes = (
{
closed = 1;
nodes = (
(453,97,o),
(301,133,o),
(178,204,c),
(160,194,l),
(143,84,l),
(292,16,o),
(407,-20,o),
(536,-20,cs),
(838,-20,o),
(1043,179,o),
(1043,404,cs),
(1043,832,o),
(297,720,o),
(297,1108,cs),
(297,1253,o),
(401,1368,o),
(604,1368,cs),
(669,1368,o),
(806,1357,o),
(959,1299,c),
(980,1309,l),
(999,1418,l),
(851,1467,o),
(727,1485,o),
(644,1485,cs),
(393,1485,o),
(197,1320,o),
(197,1086,cs),
(197,634,o),
(937,755,o),
(937,385,cs),
(937,219,o),
(788,97,o),
(572,97,cs)
);
}
);
width = 1213;
},
{
background = {
shapes = (
{
closed = 1;
nodes = (
(483,115,o),
(337,164,o),
(202,242,c),
(182,232,l),
(148,77,l),
(277,18,o),
(438,-20,o),
(572,-20,cs),
(887,-20,o),
(1101,188,o),
(1101,419,cs),
(1101,842,o),
(388,772,o),
(388,1127,cs),
(388,1261,o),
(489,1350,o),
(648,1350,cs),
(723,1350,o),
(857,1330,o),
(1004,1263,c),
(1024,1273,l),
(1057,1427,l),
(911,1471,o),
(772,1485,o),
(686,1485,cs),
(404,1485,o),
(202,1335,o),
(202,1087,cs),
(202,623,o),
(910,717,o),
(910,369,cs),
(910,224,o),
(785,115,o),
(604,115,cs)
);
}
);
};
layerId = "E5022B42-6572-4579-AE6E-2F10A1751A6E";
shapes = (
{
closed = 1;
nodes = (
(405,237,o),
(298,289,o),
(136,358,c),
(115,348,l),
(53,75,l),
(226,1,o),
(415,-20,o),
(544,-20,cs),
(917,-20,o),
(1144,160,o),
(1144,452,cs),
(1144,938,o),
(521,840,o),
(521,1099,cs),
(521,1186,o),
(592,1228,o),
(703,1228,cs),
(781,1228,o),
(907,1207,o),
(1019,1157,c),
(1035,1164,l),
(1098,1437,l),
(961,1473,o),
(785,1485,o),
(692,1485,cs),
(327,1485,o),
(102,1304,o),
(102,1023,cs),
(102,553,o),
(725,646,o),
(725,376,cs),
(725,266,o),
(618,237,o),
(525,237,cs)
);
}
);
width = 1197;
},
{
layerId = "09C3E491-E9AE-4DC0-8F4F-6A6E8897705E";
shapes = (
{
closed = 1;
nodes = (
(419,219,o),
(305,270,o),
(148,341,c),
(127,331,l),
(70,75,l),
(235,4,o),
(419,-20,o),
(549,-20,cs),
(912,-20,o),
(1136,165,o),
(1136,447,cs),
(1136,923,o),
(497,826,o),
(497,1102,cs),
(497,1198,o),
(574,1246,o),
(693,1246,cs),
(771,1246,o),
(898,1225,o),
(1016,1172,c),
(1033,1180,l),
(1091,1435,l),
(952,1473,o),
(783,1485,o),
(691,1485,cs),
(341,1485,o),
(120,1309,o),
(120,1033,cs),
(120,563,o),
(758,660,o),
(758,377,cs),
(758,260,o),
(648,219,o),
(540,219,cs)
);
}
);
width = 1206;
}
);
unicode = 83;
},
{
glyphname = T;
layers = (
{
guides = (
{
position = "{0, 1492}";
}
);
layerId = "C8089C2F-C663-459E-AF34-3AEDB7904EA9";
shapes = (
{
closed = 1;
nodes = (
(735,1310,l),
(1211,1310,l),
(1241,1465,l),
(83,1465,l),
(53,1310,l),
(539,1310,l),
(539,0,l),
(735,0,l)
);
}
);
width = 1294;
},
{
guides = (
{
position = "{0, 1492}";
}
);
layerId = "B30F41D4-F94E-4E62-9315-7D5BF3371191";
shapes = (
{
closed = 1;
nodes = (
(677,1348,l),
(1186,1348,l),
(1210,1465,l),
(72,1465,l),
(48,1348,l),
(572,1348,l),
(572,0,l),
(677,0,l)
);
}
);
width = 1258;
},
{
guides = (
{
position = "{0, 1492}";
}
);
layerId = "E5022B42-6572-4579-AE6E-2F10A1751A6E";
shapes = (
{
closed = 1;
nodes = (
(948,1208,l),
(1335,1208,l),
(1380,1465,l),
(106,1465,l),
(62,1208,l),
(496,1208,l),
(496,0,l),
(948,0,l)
);
}
);
width = 1441;
},
{
guides = (
{
position = "{0, 1492}";
}
);
layerId = "09C3E491-E9AE-4DC0-8F4F-6A6E8897705E";
shapes = (
{
closed = 1;
nodes = (
(910,1226,l),
(1313,1226,l),
(1355,1465,l),
(102,1465,l),
(60,1226,l),
(504,1226,l),
(504,0,l),
(910,0,l)
);
}
);
width = 1415;
}
);
unicode = 84;
},
{
glyphname = U;
layers = (
{
layerId = "C8089C2F-C663-459E-AF34-3AEDB7904EA9";
shapes = (
{
closed = 1;
nodes = (
(208,1465,l),
(208,556,ls),
(208,190,o),
(435,-20,o),
(763,-20,cs),
(1166,-20,o),
(1341,297,o),
(1341,541,cs),
(1341,1465,l),
(1161,1465,l),
(1161,539,ls),
(1161,270,o),
(996,135,o),
(804,135,cs),
(616,135,o),
(404,264,o),
(404,555,cs),
(404,1465,l)
);
}
);
width = 1549;
},
{
layerId = "B30F41D4-F94E-4E62-9315-7D5BF3371191";
shapes = (
{
closed = 1;
nodes = (
(230,1465,l),
(230,563,ls),
(230,199,o),
(466,-20,o),
(770,-20,cs),
(1173,-20,o),
(1321,359,o),
(1321,554,cs),
(1321,1465,l),
(1226,1465,l),
(1226,544,ls),
(1226,246,o),
(1001,97,o),
(777,97,cs),
(556,97,o),
(335,239,o),
(335,568,cs),
(335,1465,l)
);
}
);
width = 1551;
},
{
layerId = "E5022B42-6572-4579-AE6E-2F10A1751A6E";
shapes = (
{
closed = 1;
nodes = (
(150,1465,l),
(150,538,ls),
(150,163,o),
(375,-20,o),
(750,-20,cs),
(1168,-20,o),
(1393,206,o),
(1393,580,cs),
(1393,1465,l),
(1050,1465,l),
(1050,522,ls),
(1050,335,o),
(952,237,o),
(814,237,cs),
(678,237,o),
(601,332,o),
(601,520,cs),
(601,1465,l)
);
}
);
width = 1543;
},
{
layerId = "09C3E491-E9AE-4DC0-8F4F-6A6E8897705E";
shapes = (
{
closed = 1;
nodes = (
(160,1465,l),
(160,541,ls),
(160,168,o),
(386,-20,o),
(752,-20,cs),
(1168,-20,o),
(1384,222,o),
(1384,573,cs),
(1384,1465,l),
(1070,1465,l),
(1070,525,ls),
(1070,323,o),
(960,219,o),
(812,219,cs),
(667,219,o),
(566,320,o),
(566,526,cs),
(566,1465,l)
);
}
);
width = 1544;
}
);
unicode = 85;
},
{
glyphname = V;
layers = (
{
background = {
shapes = (
{
closed = 1;
nodes = (
(799,297,l),
(738,96,l),
(719,96,l),
(658,297,l),
(244,1465,l),
(81,1465,l),
(654,0,l),
(807,0,l),
(1381,1465,l),
(1214,1465,l)
);
},
{
closed = 1;
nodes = (
(787,0,l),
(943,0,l),
(1347,1060,l),
(1195,1060,l),
(928,311,l),
(884,147,l),
(864,147,l),
(818,311,l),
(551,1060,l),
(382,1060,l)
);
}
);
};
layerId = "C8089C2F-C663-459E-AF34-3AEDB7904EA9";
shapes = (
{
closed = 1;
nodes = (
(806,343,l),
(748,139,l),
(729,139,l),
(671,343,l),
(289,1465,l),
(73,1465,l),
(622,0,l),
(838,0,l),
(1388,1465,l),
(1188,1465,l)
);
}
);
width = 1461;
},
{
layerId = "B30F41D4-F94E-4E62-9315-7D5BF3371191";
shapes = (
{
closed = 1;
nodes = (
(782,285,l),
(750,154,l),
(729,154,l),
(693,285,l),
(258,1465,l),
(122,1465,l),
(671,0,l),
(789,0,l),
(1337,1465,l),
(1219,1465,l)
);
}
);
width = 1459;
},
{
layerId = "E5022B42-6572-4579-AE6E-2F10A1751A6E";
shapes = (
{
closed = 1;
nodes = (
(841,566,l),
(797,350,l),
(776,350,l),
(732,566,l),
(508,1465,l),
(33,1465,l),
(465,0,l),
(989,0,l),
(1423,1465,l),
(1063,1465,l)
);
}
);
width = 1456;
},
{
layerId = "09C3E491-E9AE-4DC0-8F4F-6A6E8897705E";
shapes = (
{
closed = 1;
nodes = (
(835,526,l),
(788,312,l),
(768,312,l),
(721,526,l),
(469,1465,l),
(40,1465,l),
(493,0,l),
(962,0,l),
(1417,1465,l),
(1085,1465,l)
);
}
);
width = 1457;
}
);
unicode = 86;
},
{
glyphname = W;
layers = (
{
background = {
shapes = (
{
closed = 1;
nodes = (
(94,1465,l),
(558,0,l),
(728,0,l),
(1051,1009,l),
(1098,1175,l),
(1119,1175,l),
(1167,1009,l),
(1492,0,l),
(1665,0,l),
(2129,1465,l),
(1978,1465,l),
(1632,300,l),
(1599,147,l),
(1579,147,l),
(1542,303,l),
(1197,1359,l),
(1030,1359,l),
(695,301,l),
(659,147,l),
(639,147,l),
(608,304,l),
(260,1465,l)
);
}
);
};
layerId = "C8089C2F-C663-459E-AF34-3AEDB7904EA9";
shapes = (
{
closed = 1;
nodes = (
(988,1358,l),
(695,343,l),
(645,139,l),
(626,139,l),
(584,343,l),
(297,1465,l),
(89,1465,l),
(515,0,l),
(741,0,l),
(1024,925,l),
(1081,1170,l),
(1101,1170,l),
(1158,925,l),
(1440,0,l),
(1668,0,l),
(2091,1465,l),
(1899,1465,l),
(1614,343,l),
(1566,139,l),
(1547,139,l),
(1499,343,l),
(1206,1358,l)
);
}
);
width = 2180;
},
{
layerId = "B30F41D4-F94E-4E62-9315-7D5BF3371191";
shapes = (
{
closed = 1;
nodes = (
(1064,1360,l),
(695,267,l),
(670,154,l),
(650,154,l),
(628,272,l),
(266,1465,l),
(136,1465,l),
(586,0,l),
(717,0,l),
(1073,1078,l),
(1112,1179,l),
(1134,1179,l),
(1174,1078,l),
(1535,0,l),
(1672,0,l),
(2122,1465,l),
(2006,1465,l),
(1647,265,l),
(1626,154,l),
(1605,154,l),
(1577,270,l),
(1190,1360,l)
);
}
);
width = 2258;
},
{
background = {
shapes = (
{
closed = 1;
nodes = (
(988,1358,l),
(695,343,l),
(645,139,l),
(626,139,l),
(584,343,l),
(297,1465,l),
(89,1465,l),
(515,0,l),
(721,0,l),
(1004,925,l),
(1061,1170,l),
(1081,1170,l),
(1138,925,l),
(1420,0,l),
(1628,0,l),
(2051,1465,l),
(1879,1465,l),
(1594,343,l),
(1546,139,l),
(1527,139,l),
(1479,343,l),
(1186,1358,l)
);
}
);
};
layerId = "E5022B42-6572-4579-AE6E-2F10A1751A6E";
shapes = (
{
closed = 1;
nodes = (
(913,1357,l),
(768,569,l),
(734,350,l),
(714,350,l),
(681,569,l),
(515,1465,l),
(48,1465,l),
(377,0,l),
(936,0,l),
(1053,667,l),
(1088,909,l),
(1108,909,l),
(1143,667,l),
(1262,0,l),
(1808,0,l),
(2137,1465,l),
(1785,1465,l),
(1619,569,l),
(1589,350,l),
(1569,350,l),
(1533,569,l),
(1389,1357,l)
);
}
);
width = 2185;
},
{
layerId = "09C3E491-E9AE-4DC0-8F4F-6A6E8897705E";
shapes = (
{
closed = 1;
nodes = (
(926,1357,l),
(755,529,l),
(718,312,l),
(698,312,l),
(664,529,l),
(476,1465,l),
(55,1465,l),
(402,0,l),
(901,0,l),
(1048,713,l),
(1087,956,l),
(1107,956,l),
(1146,713,l),
(1294,0,l),
(1783,0,l),
(2129,1465,l),
(1805,1465,l),
(1618,529,l),
(1585,312,l),
(1565,312,l),
(1527,529,l),
(1356,1357,l)
);
}
);
width = 2184;
}
);
unicode = 87;
},
{
glyphname = X;
layers = (
{
layerId = "C8089C2F-C663-459E-AF34-3AEDB7904EA9";
shapes = (
{
closed = 1;
nodes = (
(280,0,l),
(611,469,l),
(709,623,l),
(729,623,l),
(821,465,l),
(1126,0,l),
(1353,0,l),
(822,753,l),
(1336,1465,l),
(1136,1465,l),
(839,1020,l),
(742,857,l),
(722,857,l),
(633,1022,l),
(354,1465,l),
(126,1465,l),
(627,740,l),
(80,0,l)
);
}
);
width = 1433;
},
{
layerId = "B30F41D4-F94E-4E62-9315-7D5BF3371191";
shapes = (
{
closed = 1;
nodes = (
(227,0,l),
(609,560,l),
(689,690,l),
(709,690,l),
(785,565,l),
(1181,0,l),
(1318,0,l),
(782,748,l),
(1296,1465,l),
(1165,1465,l),
(774,909,l),
(713,810,l),
(693,810,l),
(620,924,l),
(250,1465,l),
(110,1465,l),
(622,740,l),
(98,0,l)
);
}
);
width = 1417;
},
{
background = {
shapes = (
{
closed = 1;
nodes = (
(270,0,l),
(601,469,l),
(704,630,l),
(724,630,l),
(821,465,l),
(1126,0,l),
(1353,0,l),
(817,758,l),
(1326,1465,l),
(1146,1465,l),
(849,1020,l),
(746,849,l),
(726,849,l),
(633,1022,l),
(354,1465,l),
(126,1465,l),
(633,733,l),
(90,0,l)
);
},
{
closed = 1;
nodes = (
(270,0,l),
(601,469,l),
(704,630,l),
(724,630,l),
(821,465,l),
(1126,0,l),
(1353,0,l),
(817,758,l),
(1326,1465,l),
(1146,1465,l),
(849,1020,l),
(746,849,l),
(726,849,l),
(633,1022,l),
(354,1465,l),
(126,1465,l),
(633,733,l),
(90,0,l)
);
}
);
};
layerId = "E5022B42-6572-4579-AE6E-2F10A1751A6E";
shapes = (
{
closed = 1;
nodes = (
(429,0,l),
(595,278,l),
(700,465,l),
(720,465,l),
(821,281,l),
(987,0,l),
(1511,0,l),
(980,793,l),
(1486,1465,l),
(1081,1465,l),
(955,1254,l),
(839,1051,l),
(819,1051,l),
(710,1247,l),
(579,1465,l),
(55,1465,l),
(554,723,l),
(25,0,l)
);
}
);
width = 1536;
},
{
layerId = "09C3E491-E9AE-4DC0-8F4F-6A6E8897705E";
shapes = (
{
closed = 1;
nodes = (
(402,0,l),
(598,312,l),
(702,493,l),
(722,493,l),
(821,314,l),
(1012,0,l),
(1483,0,l),
(952,786,l),
(1459,1465,l),
(1091,1465,l),
(934,1212,l),
(822,1016,l),
(802,1016,l),
(696,1207,l),
(539,1465,l),
(68,1465,l),
(567,726,l),
(35,0,l)
);
}
);
width = 1518;
}
);
unicode = 88;
},
{
glyphname = Y;
layers = (
{
background = {
shapes = (
{
closed = 1;
nodes = (
(721,627,l),
(1232,1465,l),
(1080,1465,l),
(727,866,l),
(665,738,l),
(645,738,l),
(580,875,l),
(248,1465,l),
(80,1465,l),
(575,626,l),
(575,0,l),
(721,0,l)
);
}
);
};
layerId = "C8089C2F-C663-459E-AF34-3AEDB7904EA9";
shapes = (
{
closed = 1;
nodes = (
(1271,1465,l),
(1075,1465,l),
(788,935,l),
(693,741,l),
(673,741,l),
(584,937,l),
(303,1465,l),
(79,1465,l),
(564,640,l),
(564,0,l),
(760,0,l),
(760,642,l)
);
}
);
width = 1350;
},
{
layerId = "B30F41D4-F94E-4E62-9315-7D5BF3371191";
shapes = (
{
closed = 1;
nodes = (
(1196,1465,l),
(1084,1465,l),
(677,810,l),
(642,736,l),
(622,736,l),
(577,824,l),
(203,1465,l),
(81,1465,l),
(584,615,l),
(584,0,l),
(689,0,l),
(689,620,l)
);
}
);
width = 1277;
},
{
background = {
shapes = (
{
closed = 1;
nodes = (
(1271,1465,l),
(1095,1465,l),
(808,935,l),
(703,721,l),
(683,721,l),
(584,937,l),
(303,1465,l),
(79,1465,l),
(564,640,l),
(564,0,l),
(760,0,l),
(760,642,l)
);
}
);
};
layerId = "E5022B42-6572-4579-AE6E-2F10A1751A6E";
shapes = (
{
closed = 1;
nodes = (
(1441,1465,l),
(1045,1465,l),
(878,1116,l),
(795,914,l),
(775,914,l),
(694,1115,l),
(525,1465,l),
(7,1465,l),
(502,621,l),
(502,0,l),
(954,0,l),
(954,635,l)
);
}
);
width = 1449;
},
{
layerId = "09C3E491-E9AE-4DC0-8F4F-6A6E8897705E";
shapes = (
{
closed = 1;
nodes = (
(1411,1465,l),
(1050,1465,l),
(862,1084,l),
(777,883,l),
(757,883,l),
(674,1083,l),
(485,1465,l),
(20,1465,l),
(513,624,l),
(513,0,l),
(919,0,l),
(919,636,l)
);
}
);
width = 1431;
}
);
unicode = 89;
},
{
glyphname = Z;
layers = (
{
background = {
shapes = (
{
closed = 1;
nodes = (
(860,1201,l),
(118,77,l),
(118,0,l),
(1152,0,l),
(1179,134,l),
(467,134,l),
(278,126,l),
(278,146,l),
(372,264,l),
(1108,1378,l),
(1108,1465,l),
(171,1465,l),
(144,1331,l),
(764,1331,l),
(953,1338,l),
(953,1319,l)
);
}
);
};
layerId = "C8089C2F-C663-459E-AF34-3AEDB7904EA9";
shapes = (
{
closed = 1;
nodes = (
(820,1171,l),
(113,77,l),
(113,0,l),
(1171,0,l),
(1201,155,l),
(528,155,l),
(340,147,l),
(340,167,l),
(437,293,l),
(1138,1380,l),
(1138,1465,l),
(176,1465,l),
(146,1310,l),
(728,1310,l),
(917,1317,l),
(917,1298,l)
);
}
);
width = 1311;
},
{
layerId = "B30F41D4-F94E-4E62-9315-7D5BF3371191";
shapes = (
{
closed = 1;
nodes = (
(904,1226,l),
(117,70,l),
(117,0,l),
(1184,0,l),
(1208,117,l),
(464,117,l),
(280,109,l),
(280,129,l),
(366,240,l),
(1145,1384,l),
(1145,1465,l),
(178,1465,l),
(153,1348,l),
(804,1348,l),
(988,1355,l),
(988,1336,l)
);
}
);
width = 1309;
},
{
background = {
shapes = (
{
closed = 1;
nodes = (
(834,1192,l),
(113,77,l),
(113,0,l),
(1174,0,l),
(1198,133,l),
(513,133,l),
(325,125,l),
(325,145,l),
(422,271,l),
(1138,1380,l),
(1138,1465,l),
(176,1465,l),
(150,1331,l),
(742,1331,l),
(931,1338,l),
(931,1319,l)
);
}
);
};
layerId = "E5022B42-6572-4579-AE6E-2F10A1751A6E";
shapes = (
{
closed = 1;
nodes = (
(587,1024,l),
(73,76,l),
(73,0,l),
(1249,0,l),
(1294,257,l),
(810,257,l),
(626,249,l),
(626,267,l),
(738,434,l),
(1267,1391,l),
(1267,1465,l),
(187,1465,l),
(142,1208,l),
(515,1208,l),
(704,1214,l),
(704,1193,l)
);
}
);
width = 1367;
},
{
layerId = "09C3E491-E9AE-4DC0-8F4F-6A6E8897705E";
shapes = (
{
closed = 1;
nodes = (
(629,1050,l),
(80,76,l),
(80,0,l),
(1235,0,l),
(1277,239,l),
(760,239,l),
(575,231,l),
(575,249,l),
(684,409,l),
(1244,1389,l),
(1244,1465,l),
(185,1465,l),
(143,1226,l),
(553,1226,l),
(742,1232,l),
(742,1212,l)
);
}
);
width = 1357;
}
);
unicode = 90;
},
{
glyphname = b;
layers = (
{
background = {
shapes = (
{
closed = 1;
nodes = (
(187,46,l),
(304,-2,o),
(420,-20,o),
(524,-20,cs),
(913,-20,o),
(1140,244,o),
(1140,566,cs),
(1140,835,o),
(983,1080,o),
(718,1080,cs),
(567,1080,o),
(451,1000,o),
(324,880,c),
(324,1602,l),
(187,1602,l)
);
},
{
closed = 1;
nodes = (
(324,757,l),
(462,899,o),
(578,944,o),
(675,944,cs),
(879,944,o),
(993,732,o),
(993,530,cs),
(993,308,o),
(856,111,o),
(587,111,cs),
(508,111,o),
(413,129,o),
(324,169,c)
);
}
);
};
layerId = "C8089C2F-C663-459E-AF34-3AEDB7904EA9";
shapes = (
{
closed = 1;
nodes = (
(176,46,l),
(304,-2,o),
(434,-20,o),
(539,-20,cs),
(940,-20,o),
(1170,244,o),
(1170,568,cs),
(1170,835,o),
(1014,1080,o),
(753,1080,cs),
(604,1080,o),
(488,1000,o),
(366,888,c),
(366,1602,l),
(176,1602,l)
);
},
{
closed = 1;
nodes = (
(366,762,l),
(486,882,o),
(588,920,o),
(673,920,cs),
(864,920,o),
(970,726,o),
(970,532,cs),
(970,322,o),
(846,132,o),
(600,132,cs),
(530,132,o),
(446,148,o),
(366,184,c)
);
}
);
width = 1280;
},
{
layerId = "B30F41D4-F94E-4E62-9315-7D5BF3371191";
shapes = (
{
closed = 1;
nodes = (
(191,62,l),
(289,16,o),
(419,-20,o),
(550,-20,cs),
(885,-20,o),
(1137,233,o),
(1137,559,cs),
(1137,826,o),
(969,1080,o),
(695,1080,cs),
(540,1080,o),
(428,1000,o),
(295,873,c),
(295,1602,l),
(191,1602,l)
);
},
{
closed = 1;
nodes = (
(295,753,l),
(451,915,o),
(584,965,o),
(691,965,cs),
(919,965,o),
(1028,737,o),
(1028,541,cs),
(1028,289,o),
(850,94,o),
(571,94,cs),
(488,94,o),
(386,110,o),
(295,140,c)
);
}
);
width = 1262;
},
{
background = {
shapes = (
{
closed = 1;
nodes = (
(176,46,l),
(304,-2,o),
(434,-20,o),
(539,-20,cs),
(940,-20,o),
(1170,244,o),
(1170,568,cs),
(1170,835,o),
(1014,1080,o),
(753,1080,cs),
(604,1080,o),
(488,1000,o),
(366,888,c),
(366,1602,l),
(176,1602,l)
);
},
{
closed = 1;
nodes = (
(366,770,l),
(486,890,o),
(588,928,o),
(673,928,cs),
(864,928,o),
(970,736,o),
(970,532,cs),
(970,312,o),
(846,122,o),
(600,122,cs),
(530,122,o),
(446,138,o),
(366,174,c)
);
}
);
};
layerId = "E5022B42-6572-4579-AE6E-2F10A1751A6E";
shapes = (
{
closed = 1;
nodes = (
(132,46,l),
(311,-4,o),
(509,-20,o),
(621,-20,cs),
(1079,-20,o),
(1323,242,o),
(1323,575,cs),
(1323,836,o),
(1172,1080,o),
(933,1080,cs),
(794,1080,o),
(675,998,o),
(578,927,c),
(578,1602,l),
(132,1602,l)
);
},
{
closed = 1;
nodes = (
(578,784,l),
(613,799,o),
(646,801,o),
(672,801,cs),
(798,801,o),
(868,697,o),
(868,539,cs),
(868,389,o),
(805,234,o),
(674,234,cs),
(648,234,o),
(616,241,o),
(578,257,c)
);
}
);
width = 1397;
},
{
layerId = "09C3E491-E9AE-4DC0-8F4F-6A6E8897705E";
shapes = (
{
closed = 1;
nodes = (
(140,46,l),
(310,-4,o),
(496,-20,o),
(606,-20,cs),
(1054,-20,o),
(1296,242,o),
(1296,574,cs),
(1296,836,o),
(1144,1080,o),
(901,1080,cs),
(760,1080,o),
(642,998,o),
(540,920,c),
(540,1602,l),
(140,1602,l)
);
},
{
closed = 1;
nodes = (
(540,780,l),
(590,814,o),
(636,822,o),
(672,822,cs),
(810,822,o),
(886,702,o),
(886,538,cs),
(886,377,o),
(812,216,o),
(661,216,cs),
(627,216,o),
(586,224,o),
(540,244,c)
);
}
);
width = 1376;
}
);
leftKerningGroup = _b_Right;
rightKerningGroup = _b_Left;
unicode = 98;
},
{
glyphname = n;
layers = (
{
background = {
shapes = (
{
closed = 1;
nodes = (
(182,55,l),
(293,8,o),
(422,-20,o),
(540,-20,cs),
(901,-20,o),
(1141,238,o),
(1141,563,cs),
(1141,830,o),
(979,1080,o),
(714,1080,cs),
(563,1080,o),
(451,1000,o),
(324,880,c),
(324,1602,l),
(182,1602,l)
);
},
{
closed = 1;
nodes = (
(324,757,l),
(462,900,o),
(580,945,o),
(676,945,cs),
(885,945,o),
(993,732,o),
(993,537,cs),
(993,304,o),
(840,111,o),
(578,111,cs),
(502,111,o),
(409,127,o),
(324,160,c)
);
}
);
};
layerId = "C8089C2F-C663-459E-AF34-3AEDB7904EA9";
shapes = (
{
closed = 1;
nodes = (
(176,0,l),
(366,0,l),
(366,760,l),
(468,856,o),
(564,920,o),
(674,920,cs),
(800,920,o),
(892,840,o),
(892,684,cs),
(892,0,l),
(1082,0,l),
(1082,702,ls),
(1082,922,o),
(958,1080,o),
(764,1080,cs),
(598,1080,o),
(448,964,o),
(354,876,c),
(324,1060,l),
(176,1060,l)
);
}
);
width = 1258;
},
{
layerId = "B30F41D4-F94E-4E62-9315-7D5BF3371191";
shapes = (
{
closed = 1;
nodes = (
(191,0,l),
(295,0,l),
(295,756,l),
(423,889,o),
(557,965,o),
(681,965,cs),
(827,965,o),
(925,871,o),
(925,693,cs),
(925,0,l),
(1029,0,l),
(1029,717,ls),
(1029,949,o),
(880,1080,o),
(689,1080,cs),
(518,1080,o),
(384,971,o),
(290,869,c),
(277,1060,l),
(191,1060,l)
);
}
);
width = 1220;
},
{
background = {
shapes = (
{
closed = 1;
nodes = (
(88,0,l),
(183,0,l),
(183,399,l),
(234,442,o),
(283,468,o),
(335,468,cs),
(401,468,o),
(446,428,o),
(446,350,cs),
(446,0,l),
(541,0,l),
(541,355,ls),
(541,465,o),
(479,544,o),
(381,544,cs),
(299,544,o),
(224,486,o),
(177,442,c),
(162,544,l),
(88,514,l)
);
}
);
};
layerId = "E5022B42-6572-4579-AE6E-2F10A1751A6E";
shapes = (
{
closed = 1;
nodes = (
(132,0,l),
(578,0,l),
(578,745,l),
(617,773,o),
(664,801,o),
(713,801,cs),
(778,801,o),
(836,750,o),
(836,652,cs),
(836,0,l),
(1282,0,l),
(1282,721,ls),
(1282,941,o),
(1143,1080,o),
(944,1080,cs),
(783,1080,o),
(655,966,o),
(566,893,c),
(516,1060,l),
(132,1060,l)
);
}
);
width = 1414;
},
{
layerId = "09C3E491-E9AE-4DC0-8F4F-6A6E8897705E";
shapes = (
{
closed = 1;
nodes = (
(140,0,l),
(540,0,l),
(540,748,l),
(590,788,o),
(646,822,o),
(706,822,cs),
(782,822,o),
(846,766,o),
(846,658,cs),
(846,0,l),
(1246,0,l),
(1246,718,ls),
(1246,938,o),
(1110,1080,o),
(912,1080,cs),
(750,1080,o),
(618,966,o),
(528,890,c),
(482,1060,l),
(140,1060,l)
);
}
);
width = 1386;
}
);
leftKerningGroup = _m_Right;
rightKerningGroup = _h_Left;
unicode = 110;
},
{
glyphname = d;
layers = (
{
background = {
shapes = (
{
closed = 1;
nodes = (
(933,298,l),
(825,185,o),
(715,115,o),
(594,115,cs),
(392,115,o),
(265,311,o),
(265,529,cs),
(265,784,o),
(420,949,o),
(675,949,cs),
(731,949,o),
(823,940,o),
(933,893,c)
);
},
{
closed = 1;
nodes = (
(933,1052,l),
(873,1065,o),
(800,1080,o),
(716,1080,cs),
(381,1080,o),
(117,833,o),
(117,487,cs),
(117,226,o),
(271,-20,o),
(527,-20,cs),
(715,-20,o),
(858,108,o),
(945,190,c),
(972,0,l),
(1071,0,l),
(1071,1602,l),
(933,1602,l)
);
}
);
};
layerId = "C8089C2F-C663-459E-AF34-3AEDB7904EA9";
shapes = (
{
closed = 1;
nodes = (
(914,302,l),
(818,202,o),
(716,140,o),
(608,140,cs),
(426,140,o),
(310,318,o),
(310,526,cs),
(310,764,o),
(448,928,o),
(684,928,cs),
(734,928,o),
(816,920,o),
(914,878,c)
);
},
{
closed = 1;
nodes = (
(914,1054,l),
(860,1066,o),
(788,1080,o),
(708,1080,cs),
(374,1080,o),
(110,830,o),
(110,486,cs),
(110,226,o),
(264,-20,o),
(520,-20,cs),
(700,-20,o),
(836,100,o),
(926,184,c),
(956,0,l),
(1104,0,l),
(1104,1602,l),
(914,1602,l)
);
}
);
width = 1280;
},
{
layerId = "B30F41D4-F94E-4E62-9315-7D5BF3371191";
shapes = (
{
closed = 1;
nodes = (
(965,295,l),
(840,166,o),
(716,95,o),
(584,95,cs),
(364,95,o),
(234,293,o),
(234,526,cs),
(234,789,o),
(410,966,o),
(697,966,cs),
(745,966,o),
(843,962,o),
(965,911,c)
);
},
{
closed = 1;
nodes = (
(965,1043,l),
(900,1061,o),
(819,1080,o),
(723,1080,cs),
(387,1080,o),
(125,845,o),
(125,511,cs),
(125,237,o),
(299,-20,o),
(558,-20,cs),
(738,-20,o),
(885,109,o),
(970,189,c),
(985,0,l),
(1069,0,l),
(1069,1602,l),
(965,1602,l)
);
}
);
width = 1260;
},
{
background = {
shapes = (
{
closed = 1;
nodes = (
(914,292,l),
(818,192,o),
(716,130,o),
(608,130,cs),
(426,130,o),
(310,308,o),
(310,526,cs),
(310,764,o),
(448,938,o),
(684,938,cs),
(734,938,o),
(816,930,o),
(914,888,c)
);
},
{
closed = 1;
nodes = (
(914,1054,l),
(860,1066,o),
(788,1080,o),
(708,1080,cs),
(374,1080,o),
(110,830,o),
(110,486,cs),
(110,226,o),
(264,-20,o),
(520,-20,cs),
(700,-20,o),
(836,100,o),
(926,184,c),
(956,0,l),
(1104,0,l),
(1104,1602,l),
(914,1602,l)
);
}
);
};
layerId = "E5022B42-6572-4579-AE6E-2F10A1751A6E";
shapes = (
{
closed = 1;
nodes = (
(819,319,l),
(784,282,o),
(722,259,o),
(677,259,cs),
(590,259,o),
(527,350,o),
(527,513,cs),
(527,667,o),
(583,826,o),
(729,826,cs),
(749,826,o),
(779,823,o),
(819,805,c)
);
},
{
closed = 1;
nodes = (
(819,1061,l),
(794,1071,o),
(731,1080,o),
(670,1080,cs),
(340,1080,o),
(73,813,o),
(73,480,cs),
(73,227,o),
(229,-20,o),
(485,-20,cs),
(625,-20,o),
(726,61,o),
(831,152,c),
(876,0,l),
(1265,0,l),
(1265,1602,l),
(819,1602,l)
);
}
);
width = 1397;
},
{
layerId = "09C3E491-E9AE-4DC0-8F4F-6A6E8897705E";
shapes = (
{
closed = 1;
nodes = (
(836,316,l),
(790,268,o),
(721,238,o),
(665,238,cs),
(561,238,o),
(488,344,o),
(488,515,cs),
(488,684,o),
(559,844,o),
(721,844,cs),
(746,844,o),
(786,840,o),
(836,818,c)
);
},
{
closed = 1;
nodes = (
(836,1060,l),
(806,1070,o),
(741,1080,o),
(677,1080,cs),
(346,1080,o),
(80,816,o),
(80,481,cs),
(80,227,o),
(235,-20,o),
(491,-20,cs),
(638,-20,o),
(746,68,o),
(848,158,c),
(890,0,l),
(1236,0,l),
(1236,1602,l),
(836,1602,l)
);
}
);
width = 1376;
}
);
leftKerningGroup = _c_Right;
unicode = 100;
},
{
glyphname = g;
layers = (
{
background = {
shapes = (
{
closed = 1;
nodes = (
(702,-47,ls),
(826,-47,o),
(943,-90,o),
(943,-202,cs),
(943,-323,o),
(805,-423,o),
(574,-423,cs),
(370,-423,o),
(256,-345,o),
(256,-254,cs),
(256,-160,o),
(374,-84,o),
(450,-47,c)
);
},
{
closed = 1;
nodes = (
(280,-65,o),
(109,-175,o),
(109,-315,cs),
(109,-459,o),
(292,-556,o),
(525,-556,cs),
(869,-556,o),
(1078,-345,o),
(1078,-168,cs),
(1078,-22,o),
(934,91,o),
(742,91,cs),
(447,91,ls),
(377,91,o),
(332,120,o),
(332,166,cs),
(332,223,o),
(403,273,o),
(458,308,c),
(496,303,o),
(530,299,o),
(562,299,cs),
(773,299,o),
(989,473,o),
(989,692,cs),
(989,794,o),
(942,888,o),
(894,929,c),
(1151,929,l),
(1188,1060,l),
(998,1060,ls),
(952,1060,o),
(856,1046,o),
(811,1021,c),
(760,1054,o),
(673,1080,o),
(591,1080,cs),
(396,1080,o),
(156,933,o),
(156,681,cs),
(156,537,o),
(235,419,o),
(361,349,c),
(279,291,o),
(184,204,o),
(184,117,cs),
(184,45,o),
(249,-2,o),
(324,-28,c)
);
},
{
closed = 1;
nodes = (
(297,853,o),
(428,956,o),
(572,956,cs),
(726,956,o),
(849,838,o),
(849,687,cs),
(849,530,o),
(717,423,o),
(573,423,cs),
(420,423,o),
(297,545,o),
(297,696,cs)
);
}
);
};
layerId = "C8089C2F-C663-459E-AF34-3AEDB7904EA9";
shapes = (
{
closed = 1;
nodes = (
(701,-60,ls),
(819,-60,o),
(923,-102,o),
(923,-200,cs),
(923,-309,o),
(797,-402,o),
(580,-402,cs),
(390,-402,o),
(285,-331,o),
(285,-246,cs),
(285,-162,o),
(386,-95,o),
(454,-60,c)
);
},
{
closed = 1;
nodes = (
(257,-83,o),
(95,-184,o),
(95,-318,cs),
(95,-462,o),
(282,-556,o),
(524,-556,cs),
(891,-556,o),
(1103,-339,o),
(1103,-158,cs),
(1103,-2,o),
(944,102,o),
(752,102,cs),
(469,102,ls),
(402,102,o),
(359,131,o),
(359,174,cs),
(359,227,o),
(424,273,o),
(473,303,c),
(506,299,o),
(535,296,o),
(564,296,cs),
(788,296,o),
(1011,472,o),
(1011,688,cs),
(1011,806,o),
(947,900,o),
(929,910,c),
(1165,910,l),
(1205,1060,l),
(1025,1060,ls),
(964,1060,o),
(878,1044,o),
(834,1019,c),
(778,1055,o),
(689,1080,o),
(602,1080,cs),
(382,1080,o),
(143,921,o),
(143,663,cs),
(143,526,o),
(210,401,o),
(357,330,c),
(265,270,o),
(169,198,o),
(169,111,cs),
(169,38,o),
(235,-12,o),
(317,-40,c)
);
},
{
closed = 1;
nodes = (
(323,842,o),
(435,938,o),
(575,938,cs),
(725,938,o),
(831,829,o),
(831,685,cs),
(831,537,o),
(719,438,o),
(578,438,cs),
(429,438,o),
(323,550,o),
(323,694,cs)
);
}
);
width = 1235;
},
{
layerId = "B30F41D4-F94E-4E62-9315-7D5BF3371191";
shapes = (
{
closed = 1;
nodes = (
(716,-29,ls),
(850,-29,o),
(967,-84,o),
(967,-200,cs),
(967,-338,o),
(795,-444,o),
(569,-444,cs),
(366,-444,o),
(238,-360,o),
(238,-259,cs),
(238,-162,o),
(362,-64,o),
(454,-29,c)
);
},
{
closed = 1;
nodes = (
(239,-52,o),
(122,-142,o),
(122,-271,cs),
(122,-427,o),
(300,-556,o),
(555,-556,cs),
(860,-556,o),
(1078,-368,o),
(1078,-185,cs),
(1078,-49,o),
(960,77,o),
(747,77,cs),
(436,77,ls),
(360,77,o),
(317,140,o),
(317,181,cs),
(317,236,o),
(391,277,o),
(455,312,c),
(497,306,o),
(535,301,o),
(568,301,cs),
(757,301,o),
(989,472,o),
(989,695,cs),
(989,779,o),
(958,875,o),
(882,945,c),
(1161,945,l),
(1196,1060,l),
(994,1060,ls),
(960,1060,o),
(854,1048,o),
(807,1023,c),
(760,1053,o),
(671,1080,o),
(597,1080,cs),
(431,1080,o),
(170,943,o),
(170,694,cs),
(170,542,o),
(265,430,o),
(372,365,c),
(285,310,o),
(198,240,o),
(198,155,cs),
(198,83,o),
(259,12,o),
(324,-4,c)
);
},
{
closed = 1;
nodes = (
(281,862,o),
(430,971,o),
(580,971,cs),
(740,971,o),
(878,845,o),
(878,689,cs),
(878,524,o),
(728,411,o),
(580,411,cs),
(420,411,o),
(281,541,o),
(281,698,cs)
);
}
);
width = 1239;
},
{
background = {
shapes = (
{
closed = 1;
nodes = (
(701,-60,ls),
(819,-60,o),
(923,-92,o),
(923,-204,cs),
(923,-327,o),
(799,-424,o),
(578,-424,cs),
(391,-424,o),
(275,-354,o),
(275,-260,cs),
(275,-163,o),
(396,-91,o),
(444,-60,c)
);
},
{
closed = 1;
nodes = (
(257,-83,o),
(95,-184,o),
(95,-318,cs),
(95,-462,o),
(282,-556,o),
(524,-556,cs),
(891,-556,o),
(1103,-339,o),
(1103,-158,cs),
(1103,-2,o),
(944,92,o),
(752,92,cs),
(459,92,ls),
(393,92,o),
(349,122,o),
(349,170,cs),
(349,230,o),
(419,274,o),
(463,302,c),
(501,298,o),
(531,294,o),
(565,294,cs),
(787,294,o),
(1011,470,o),
(1011,692,cs),
(1011,804,o),
(955,898,o),
(905,936,c),
(1163,936,l),
(1205,1060,l),
(1025,1060,ls),
(964,1060,o),
(878,1044,o),
(834,1019,c),
(778,1055,o),
(688,1080,o),
(604,1080,cs),
(382,1080,o),
(143,904,o),
(143,659,cs),
(143,532,o),
(207,400,o),
(357,328,c),
(265,268,o),
(169,198,o),
(169,111,cs),
(169,38,o),
(235,-12,o),
(317,-40,c)
);
},
{
closed = 1;
nodes = (
(323,862,o),
(435,958,o),
(575,958,cs),
(725,958,o),
(831,849,o),
(831,685,cs),
(831,517,o),
(719,418,o),
(578,418,cs),
(429,418,o),
(323,530,o),
(323,694,cs)
);
}
);
};
layerId = "E5022B42-6572-4579-AE6E-2F10A1751A6E";
shapes = (
{
closed = 1;
nodes = (
(695,-123,ls),
(791,-123,o),
(827,-159,o),
(827,-194,cs),
(827,-242,o),
(758,-302,o),
(608,-302,cs),
(487,-302,o),
(425,-264,o),
(425,-207,cs),
(425,-173,o),
(443,-151,o),
(473,-123,c)
);
},
{
closed = 1;
nodes = (
(144,-169,o),
(28,-228,o),
(28,-334,cs),
(28,-475,o),
(236,-556,o),
(515,-556,cs),
(1003,-556,o),
(1226,-311,o),
(1226,-111,cs),
(1226,95,o),
(990,156,o),
(798,156,cs),
(577,156,ls),
(521,156,o),
(492,182,o),
(492,214,cs),
(492,248,o),
(525,271,o),
(545,280,c),
(552,281,o),
(561,281,o),
(569,281,cs),
(862,281,o),
(1117,450,o),
(1117,697,cs),
(1117,740,o),
(1114,766,o),
(1098,805,c),
(1234,805,l),
(1289,1060,l),
(1155,1060,ls),
(1022,1060,o),
(985,1032,o),
(946,1010,c),
(867,1059,o),
(745,1080,o),
(630,1080,cs),
(294,1080,o),
(59,898,o),
(59,650,cs),
(59,528,o),
(115,368,o),
(346,296,c),
(222,236,o),
(95,176,o),
(95,78,cs),
(95,11,o),
(153,-56,o),
(284,-101,c)
);
},
{
closed = 1;
nodes = (
(448,787,o),
(515,848,o),
(592,848,cs),
(671,848,o),
(745,783,o),
(745,675,cs),
(745,574,o),
(679,513,o),
(602,513,cs),
(523,513,o),
(448,578,o),
(448,685,cs)
);
}
);
width = 1282;
},
{
layerId = "09C3E491-E9AE-4DC0-8F4F-6A6E8897705E";
shapes = (
{
closed = 1;
nodes = (
(696,-112,ls),
(796,-112,o),
(844,-149,o),
(844,-195,cs),
(844,-254,o),
(765,-320,o),
(603,-320,cs),
(470,-320,o),
(400,-276,o),
(400,-214,cs),
(400,-171,o),
(433,-141,o),
(470,-112,c)
);
},
{
closed = 1;
nodes = (
(164,-154,o),
(40,-220,o),
(40,-331,cs),
(40,-473,o),
(244,-556,o),
(517,-556,cs),
(983,-556,o),
(1204,-316,o),
(1204,-119,cs),
(1204,78,o),
(982,146,o),
(790,146,cs),
(558,146,ls),
(500,146,o),
(468,173,o),
(468,207,cs),
(468,244,o),
(507,271,o),
(532,284,c),
(544,284,o),
(556,284,o),
(568,284,cs),
(849,284,o),
(1098,454,o),
(1098,695,cs),
(1098,752,o),
(1084,790,o),
(1068,824,c),
(1222,824,l),
(1274,1060,l),
(1132,1060,ls),
(1012,1060,o),
(966,1034,o),
(926,1012,c),
(851,1058,o),
(735,1080,o),
(625,1080,cs),
(310,1080,o),
(74,902,o),
(74,652,cs),
(74,528,o),
(132,374,o),
(348,302,c),
(230,242,o),
(108,180,o),
(108,84,cs),
(108,16,o),
(168,-48,o),
(290,-90,c)
);
},
{
closed = 1;
nodes = (
(426,797,o),
(501,864,o),
(589,864,cs),
(681,864,o),
(760,791,o),
(760,677,cs),
(760,567,o),
(686,500,o),
(598,500,cs),
(506,500,o),
(426,573,o),
(426,687,cs)
);
}
);
width = 1274;
}
);
unicode = 103;
},
{
glyphname = r;
layers = (
{
background = {
shapes = (
{
closed = 1;
nodes = (
(184,0,l),
(327,0,l),
(327,602,l),
(448,845,o),
(548,934,o),
(692,934,cs),
(718,934,o),
(751,931,o),
(768,925,c),
(783,1055,l),
(749,1073,o),
(724,1080,o),
(684,1080,cs),
(507,1080,o),
(416,944,o),
(319,752,c),
(298,1060,l),
(184,1060,l)
);
}
);
};
guides = (
{
angle = 90;
position = "{804, 0}";
}
);
layerId = "C8089C2F-C663-459E-AF34-3AEDB7904EA9";
shapes = (
{
closed = 1;
nodes = (
(176,0,l),
(366,0,l),
(366,590,l),
(456,752,o),
(536,882,o),
(726,882,cs),
(748,882,o),
(772,880,o),
(796,874,c),
(816,1052,l),
(794,1072,o),
(756,1080,o),
(718,1080,cs),
(528,1080,o),
(429,888,o),
(354,742,c),
(324,1060,l),
(176,1060,l)
);
}
);
width = 876;
},
{
guides = (
{
angle = 90;
position = "{804, 0}";
}
);
layerId = "B30F41D4-F94E-4E62-9315-7D5BF3371191";
shapes = (
{
closed = 1;
nodes = (
(191,0,l),
(295,0,l),
(295,612,l),
(447,932,o),
(594,977,o),
(666,977,cs),
(692,977,o),
(734,973,o),
(745,967,c),
(756,1057,l),
(712,1074,o),
(696,1080,o),
(662,1080,cs),
(519,1080,o),
(405,990,o),
(290,760,c),
(277,1060,l),
(191,1060,l)
);
}
);
width = 807;
},
{
background = {
shapes = (
{
closed = 1;
nodes = (
(176,0,l),
(366,0,l),
(366,778,l),
(468,874,o),
(564,936,o),
(674,936,cs),
(800,936,o),
(892,856,o),
(892,700,cs),
(892,0,l),
(1082,0,l),
(1082,710,ls),
(1082,930,o),
(958,1088,o),
(764,1088,cs),
(598,1088,o),
(448,972,o),
(354,884,c),
(324,1060,l),
(176,1060,l)
);
}
);
};
guides = (
{
angle = 90;
position = "{804, 0}";
}
);
layerId = "E5022B42-6572-4579-AE6E-2F10A1751A6E";
shapes = (
{
closed = 1;
nodes = (
(132,0,l),
(578,0,l),
(578,614,l),
(626,645,o),
(755,658,o),
(855,658,cs),
(892,658,o),
(972,656,o),
(998,650,c),
(1047,1046,l),
(999,1068,o),
(940,1080,o),
(902,1080,cs),
(703,1080,o),
(647,899,o),
(566,754,c),
(516,1060,l),
(132,1060,l)
);
}
);
width = 1107;
},
{
guides = (
{
angle = 90;
position = "{804, 0}";
}
);
layerId = "09C3E491-E9AE-4DC0-8F4F-6A6E8897705E";
shapes = (
{
closed = 1;
nodes = (
(140,0,l),
(540,0,l),
(540,610,l),
(596,664,o),
(716,698,o),
(832,698,cs),
(866,698,o),
(936,696,o),
(962,690,c),
(1006,1047,l),
(962,1069,o),
(907,1080,o),
(869,1080,cs),
(672,1080,o),
(608,897,o),
(528,752,c),
(482,1060,l),
(140,1060,l)
);
}
);
width = 1066;
}
);
leftKerningGroup = _m_Right;
rightKerningGroup = _r_Left;
unicode = 114;
},
{
glyphname = e;
layers = (
{
background = {
shapes = (
{
closed = 1;
nodes = (
(983,177,l),
(887,126,o),
(754,115,o),
(688,115,cs),
(426,115,o),
(268,282,o),
(268,510,c),
(1013,510,l),
(1020,556,o),
(1022,607,o),
(1022,635,cs),
(1022,910,o),
(829,1080,o),
(606,1080,cs),
(357,1080,o),
(118,867,o),
(118,515,cs),
(118,159,o),
(362,-20,o),
(615,-20,cs),
(736,-20,o),
(895,21,o),
(983,83,c)
);
},
{
closed = 1;
nodes = (
(268,624,l),
(274,785,o),
(402,949,o),
(587,949,cs),
(738,949,o),
(882,839,o),
(882,624,c)
);
}
);
};
layerId = "C8089C2F-C663-459E-AF34-3AEDB7904EA9";
shapes = (
{
closed = 1;
nodes = (
(1012,198,l),
(910,148,o),
(788,140,o),
(727,140,cs),
(480,140,o),
(308,272,o),
(308,502,c),
(1032,502,l),
(1040,548,o),
(1042,594,o),
(1042,624,cs),
(1042,928,o),
(866,1080,o),
(639,1080,cs),
(360,1080,o),
(110,852,o),
(110,502,cs),
(110,164,o),
(344,-20,o),
(616,-20,cs),
(740,-20,o),
(910,18,o),
(1012,90,c)
);
},
{
closed = 1;
nodes = (
(308,620,l),
(308,789,o),
(438,928,o),
(599,928,cs),
(742,928,o),
(862,819,o),
(862,620,c)
);
}
);
width = 1162;
},
{
layerId = "B30F41D4-F94E-4E62-9315-7D5BF3371191";
shapes = (
{
closed = 1;
nodes = (
(959,160,l),
(868,108,o),
(726,95,o),
(656,95,cs),
(382,95,o),
(235,290,o),
(235,517,c),
(997,517,l),
(1004,563,o),
(1006,618,o),
(1006,644,cs),
(1006,895,o),
(799,1080,o),
(579,1080,cs),
(355,1080,o),
(125,879,o),
(125,526,cs),
(125,155,o),
(377,-20,o),
(614,-20,cs),
(733,-20,o),
(883,22,o),
(959,72,c)
);
},
{
closed = 1;
nodes = (
(235,627,l),
(246,782,o),
(373,966,o),
(577,966,cs),
(735,966,o),
(898,855,o),
(898,627,c)
);
}
);
width = 1135;
},
{
background = {
shapes = (
{
closed = 1;
nodes = (
(1012,188,l),
(910,138,o),
(788,130,o),
(727,130,cs),
(480,130,o),
(308,262,o),
(308,522,c),
(1032,522,l),
(1040,568,o),
(1042,614,o),
(1042,644,cs),
(1042,928,o),
(866,1080,o),
(639,1080,cs),
(360,1080,o),
(110,852,o),
(110,502,cs),
(110,164,o),
(344,-20,o),
(616,-20,cs),
(740,-20,o),
(910,18,o),
(1012,90,c)
);
},
{
closed = 1;
nodes = (
(308,640,l),
(308,809,o),
(438,948,o),
(599,948,cs),
(742,948,o),
(862,839,o),
(862,640,c)
);
}
);
};
layerId = "E5022B42-6572-4579-AE6E-2F10A1751A6E";
shapes = (
{
closed = 1;
nodes = (
(1122,298,l),
(1022,270,o),
(916,259,o),
(830,259,cs),
(643,259,o),
(530,304,o),
(530,463,c),
(1176,463,l),
(1180,480,o),
(1188,522,o),
(1188,587,cs),
(1188,906,o),
(987,1080,o),
(693,1080,cs),
(365,1080,o),
(73,864,o),
(73,484,cs),
(73,169,o),
(272,-20,o),
(659,-20,cs),
(797,-20,o),
(949,3,o),
(1122,124,c)
);
},
{
closed = 1;
nodes = (
(530,588,l),
(530,754,o),
(576,826,o),
(661,826,cs),
(742,826,o),
(789,761,o),
(789,588,c)
);
}
);
width = 1259;
},
{
layerId = "09C3E491-E9AE-4DC0-8F4F-6A6E8897705E";
shapes = (
{
closed = 1;
nodes = (
(1102,280,l),
(1002,248,o),
(893,238,o),
(812,238,cs),
(614,238,o),
(490,298,o),
(490,470,c),
(1150,470,l),
(1155,492,o),
(1162,535,o),
(1162,594,cs),
(1162,910,o),
(965,1080,o),
(683,1080,cs),
(364,1080,o),
(80,862,o),
(80,487,cs),
(80,168,o),
(285,-20,o),
(651,-20,cs),
(787,-20,o),
(942,6,o),
(1102,118,c)
);
},
{
closed = 1;
nodes = (
(490,594,l),
(490,760,o),
(551,844,o),
(650,844,cs),
(742,844,o),
(802,771,o),
(802,594,c)
);
}
);
width = 1242;
}
);
leftKerningGroup = _c_Right;
rightKerningGroup = _e_Left;
unicode = 101;
},
{
glyphname = o;
layers = (
{
layerId = "C8089C2F-C663-459E-AF34-3AEDB7904EA9";
shapes = (
{
closed = 1;
nodes = (
(932,-20,o),
(1174,236,o),
(1174,558,cs),
(1174,836,o),
(994,1080,o),
(676,1080,cs),
(350,1080,o),
(110,820,o),
(110,500,cs),
(110,220,o),
(292,-20,o),
(606,-20,cs)
);
},
{
closed = 1;
nodes = (
(436,132,o),
(310,336,o),
(310,546,cs),
(310,760,o),
(440,928,o),
(634,928,cs),
(846,928,o),
(972,722,o),
(972,512,cs),
(972,298,o),
(842,132,o),
(648,132,cs)
);
}
);
width = 1284;
},
{
layerId = "B30F41D4-F94E-4E62-9315-7D5BF3371191";
shapes = (
{
closed = 1;
nodes = (
(908,-20,o),
(1145,223,o),
(1145,538,cs),
(1145,816,o),
(963,1080,o),
(658,1080,cs),
(363,1080,o),
(125,833,o),
(125,518,cs),
(125,236,o),
(314,-20,o),
(617,-20,cs)
);
},
{
closed = 1;
nodes = (
(378,94,o),
(234,321,o),
(234,528,cs),
(234,751,o),
(398,966,o),
(639,966,cs),
(891,966,o),
(1037,742,o),
(1037,532,cs),
(1037,313,o),
(878,94,o),
(632,94,cs)
);
}
);
width = 1269;
},
{
background = {
shapes = (
{
closed = 1;
nodes = (
(932,-28,o),
(1174,236,o),
(1174,558,cs),
(1174,836,o),
(994,1088,o),
(676,1088,cs),
(350,1088,o),
(110,820,o),
(110,500,cs),
(110,220,o),
(292,-28,o),
(606,-28,cs)
);
},
{
closed = 1;
nodes = (
(436,104,o),
(310,316,o),
(310,546,cs),
(310,780,o),
(440,956,o),
(634,956,cs),
(846,956,o),
(972,742,o),
(972,512,cs),
(972,278,o),
(842,104,o),
(648,104,cs)
);
}
);
};
layerId = "E5022B42-6572-4579-AE6E-2F10A1751A6E";
shapes = (
{
closed = 1;
nodes = (
(1042,-20,o),
(1298,220,o),
(1298,557,cs),
(1298,845,o),
(1112,1080,o),
(722,1080,cs),
(320,1080,o),
(73,829,o),
(73,502,cs),
(73,226,o),
(251,-20,o),
(649,-20,cs)
);
},
{
closed = 1;
nodes = (
(597,234,o),
(529,330,o),
(529,540,cs),
(529,742,o),
(591,826,o),
(680,826,cs),
(785,826,o),
(843,713,o),
(843,518,cs),
(843,307,o),
(774,234,o),
(692,234,cs)
);
}
);
width = 1372;
},
{
layerId = "09C3E491-E9AE-4DC0-8F4F-6A6E8897705E";
shapes = (
{
closed = 1;
nodes = (
(1022,-20,o),
(1276,223,o),
(1276,557,cs),
(1276,843,o),
(1091,1080,o),
(714,1080,cs),
(325,1080,o),
(80,827,o),
(80,502,cs),
(80,225,o),
(258,-20,o),
(641,-20,cs)
);
},
{
closed = 1;
nodes = (
(568,216,o),
(490,331,o),
(490,541,cs),
(490,745,o),
(564,844,o),
(672,844,cs),
(796,844,o),
(866,715,o),
(866,517,cs),
(866,305,o),
(786,216,o),
(684,216,cs)
);
}
);
width = 1356;
}
);
leftKerningGroup = _c_Right;
unicode = 111;
},
{
glyphname = a;
layers = (
{
background = {
shapes = (
{
closed = 1;
nodes = (
(767,89,o),
(786,-20,o),
(895,-20,cs),
(948,-20,o),
(1006,8,o),
(1062,46,c),
(1062,138,l),
(1030,123,o),
(990,115,o),
(971,115,cs),
(901,115,o),
(898,196,o),
(898,226,cs),
(898,780,ls),
(898,971,o),
(804,1080,o),
(558,1080,cs),
(463,1080,o),
(337,1063,o),
(186,975,c),
(220,850,l),
(238,840,l),
(309,904,o),
(438,949,o),
(534,949,cs),
(667,949,o),
(760,861,o),
(760,734,cs),
(760,632,l),
(653,632,ls),
(227,632,o),
(130,428,o),
(130,264,cs),
(130,62,o),
(281,-20,o),
(410,-20,cs),
(569,-20,o),
(695,107,o),
(756,159,c)
);
},
{
closed = 1;
nodes = (
(760,286,l),
(627,149,o),
(542,115,o),
(463,115,cs),
(361,115,o),
(291,191,o),
(291,307,cs),
(291,414,o),
(327,518,o),
(672,518,cs),
(760,518,l)
);
}
);
};
layerId = "C8089C2F-C663-459E-AF34-3AEDB7904EA9";
shapes = (
{
closed = 1;
nodes = (
(766,78,o),
(796,-20,o),
(904,-20,cs),
(964,-20,o),
(1030,10,o),
(1094,54,c),
(1094,160,l),
(1064,146,o),
(1030,140,o),
(1011,140,cs),
(944,140,o),
(938,213,o),
(938,248,cs),
(938,770,ls),
(938,976,o),
(818,1080,o),
(570,1080,cs),
(462,1080,o),
(330,1060,o),
(174,974,c),
(214,828,l),
(232,818,l),
(308,882,o),
(436,928,o),
(532,928,cs),
(660,928,o),
(748,848,o),
(748,726,cs),
(748,634,l),
(658,634,ls),
(237,634,o),
(120,441,o),
(120,268,cs),
(120,81,o),
(257,-20,o),
(399,-20,cs),
(556,-20,o),
(682,102,o),
(748,158,c)
);
},
{
closed = 1;
nodes = (
(748,286,l),
(632,170,o),
(554,140,o),
(482,140,cs),
(388,140,o),
(320,207,o),
(320,319,cs),
(320,424,o),
(361,518,o),
(672,518,cs),
(748,518,l)
);
}
);
width = 1149;
},
{
layerId = "B30F41D4-F94E-4E62-9315-7D5BF3371191";
shapes = (
{
closed = 1;
nodes = (
(777,91,o),
(820,-20,o),
(926,-20,cs),
(979,-20,o),
(1012,6,o),
(1063,39,c),
(1063,120,l),
(1028,104,o),
(985,95,o),
(962,95,cs),
(895,95,o),
(889,186,o),
(889,208,cs),
(889,752,ls),
(889,931,o),
(811,1080,o),
(555,1080,cs),
(477,1080,o),
(348,1065,o),
(199,976,c),
(225,883,l),
(243,873,l),
(312,927,o),
(449,966,o),
(545,966,cs),
(687,966,o),
(784,881,o),
(784,750,cs),
(784,630,l),
(662,630,ls),
(252,630,o),
(140,463,o),
(140,293,cs),
(140,92,o),
(301,-20,o),
(441,-20,cs),
(594,-20,o),
(726,104,o),
(777,160,c)
);
},
{
closed = 1;
nodes = (
(784,286,l),
(645,143,o),
(543,95,o),
(455,95,cs),
(321,95,o),
(249,183,o),
(249,299,cs),
(249,406,o),
(326,518,o),
(685,518,cs),
(784,518,l)
);
}
);
width = 1124;
},
{
background = {
shapes = (
{
closed = 1;
nodes = (
(766,78,o),
(796,-20,o),
(904,-20,cs),
(964,-20,o),
(1030,10,o),
(1094,54,c),
(1094,150,l),
(1064,136,o),
(1030,130,o),
(1011,130,cs),
(944,130,o),
(938,203,o),
(938,238,cs),
(938,770,ls),
(938,976,o),
(818,1080,o),
(570,1080,cs),
(462,1080,o),
(330,1060,o),
(174,974,c),
(214,848,l),
(232,838,l),
(308,902,o),
(436,948,o),
(532,948,cs),
(660,948,o),
(748,868,o),
(748,746,cs),
(748,624,l),
(658,624,ls),
(237,624,o),
(120,431,o),
(120,258,cs),
(120,81,o),
(257,-20,o),
(399,-20,cs),
(556,-20,o),
(682,102,o),
(748,158,c)
);
},
{
closed = 1;
nodes = (
(748,276,l),
(632,160,o),
(554,130,o),
(482,130,cs),
(388,130,o),
(320,197,o),
(320,309,cs),
(320,414,o),
(361,508,o),
(672,508,cs),
(748,508,l)
);
}
);
};
layerId = "E5022B42-6572-4579-AE6E-2F10A1751A6E";
shapes = (
{
closed = 1;
nodes = (
(759,22,o),
(846,-20,o),
(949,-20,cs),
(1043,-20,o),
(1147,20,o),
(1247,91,c),
(1247,265,l),
(1230,258,o),
(1222,259,o),
(1205,259,cs),
(1151,259,o),
(1133,297,o),
(1133,353,cs),
(1133,719,ls),
(1133,1000,o),
(886,1080,o),
(630,1080,cs),
(458,1080,o),
(295,1044,o),
(114,969,c),
(185,718,l),
(203,708,l),
(302,772,o),
(424,826,o),
(522,826,cs),
(623,826,o),
(687,782,o),
(687,685,cs),
(687,641,l),
(680,641,ls),
(283,641,o),
(71,502,o),
(71,289,cs),
(71,171,o),
(138,-20,o),
(347,-20,cs),
(494,-20,o),
(619,76,o),
(707,151,c)
);
},
{
closed = 1;
nodes = (
(687,284,l),
(656,270,o),
(611,259,o),
(576,259,cs),
(518,259,o),
(459,285,o),
(459,377,cs),
(459,471,o),
(525,516,o),
(672,516,cs),
(687,516,l)
);
}
);
width = 1272;
},
{
layerId = "09C3E491-E9AE-4DC0-8F4F-6A6E8897705E";
shapes = (
{
closed = 1;
nodes = (
(760,32,o),
(837,-20,o),
(941,-20,cs),
(1029,-20,o),
(1126,18,o),
(1220,84,c),
(1220,246,l),
(1200,238,o),
(1188,238,o),
(1170,238,cs),
(1114,238,o),
(1098,282,o),
(1098,334,cs),
(1098,728,ls),
(1098,996,o),
(874,1080,o),
(619,1080,cs),
(459,1080,o),
(301,1047,o),
(125,970,c),
(190,738,l),
(208,728,l),
(303,792,o),
(426,844,o),
(524,844,cs),
(630,844,o),
(698,794,o),
(698,692,cs),
(698,640,l),
(676,640,ls),
(275,640,o),
(80,491,o),
(80,285,cs),
(80,155,o),
(159,-20,o),
(356,-20,cs),
(505,-20,o),
(630,81,o),
(714,152,c)
);
},
{
closed = 1;
nodes = (
(698,284,l),
(652,252,o),
(601,238,o),
(559,238,cs),
(495,238,o),
(434,271,o),
(434,367,cs),
(434,463,o),
(496,516,o),
(672,516,cs),
(698,516,l)
);
}
);
width = 1250;
}
);
leftKerningGroup = _a_Right;
rightKerningGroup = _a_Left;
unicode = 97;
},
{
glyphname = y;
layers = (
{
background = {
shapes = (
{
closed = 0;
nodes = (
(615,0,l),
(1015,1060,l)
);
}
);
};
layerId = "C8089C2F-C663-459E-AF34-3AEDB7904EA9";
shapes = (
{
closed = 1;
nodes = (
(456,0,l),
(492,0,l),
(270,-536,l),
(454,-536,l),
(1050,1060,l),
(854,1060,l),
(622,344,l),
(574,150,l),
(554,150,l),
(506,344,l),
(274,1060,l),
(60,1060,l)
);
}
);
width = 1110;
},
{
layerId = "B30F41D4-F94E-4E62-9315-7D5BF3371191";
shapes = (
{
closed = 1;
nodes = (
(472,0,l),
(517,0,l),
(274,-536,l),
(385,-536,l),
(1005,1060,l),
(889,1060,l),
(593,284,l),
(552,145,l),
(532,145,l),
(488,284,l),
(192,1060,l),
(60,1060,l)
);
}
);
width = 1065;
},
{
background = {
shapes = (
{
closed = 1;
nodes = (
(456,0,l),
(652,0,l),
(1050,1060,l),
(854,1060,l),
(616,326,l),
(574,152,l),
(554,152,l),
(510,326,l),
(274,1060,l),
(60,1060,l)
);
}
);
};
layerId = "E5022B42-6572-4579-AE6E-2F10A1751A6E";
shapes = (
{
closed = 1;
nodes = (
(334,0,l),
(557,0,l),
(324,-536,l),
(701,-536,l),
(1167,1060,l),
(809,1060,l),
(697,527,l),
(663,308,l),
(643,308,l),
(606,527,l),
(497,1060,l),
(23,1060,l)
);
}
);
width = 1190;
},
{
layerId = "09C3E491-E9AE-4DC0-8F4F-6A6E8897705E";
shapes = (
{
closed = 1;
nodes = (
(356,0,l),
(545,0,l),
(314,-536,l),
(657,-536,l),
(1146,1060,l),
(817,1060,l),
(684,494,l),
(647,280,l),
(627,280,l),
(588,494,l),
(457,1060,l),
(30,1060,l)
);
}
);
width = 1176;
}
);
unicode = 121;
},
{
glyphname = bar;
layers = (
{
background = {
shapes = (
{
closed = 1;
nodes = (
(227,-552,l),
(425,-512,l),
(417,-374,o),
(411,-258,o),
(411,-126,cs),
(411,1646,l),
(213,1604,l),
(221,1470,o),
(227,1354,o),
(227,1222,cs)
);
}
);
};
layerId = "C8089C2F-C663-459E-AF34-3AEDB7904EA9";
shapes = (
{
closed = 1;
nodes = (
(250,-536,l),
(385,-536,l),
(385,1602,l),
(250,1602,l)
);
}
);
width = 635;
},
{
layerId = "B30F41D4-F94E-4E62-9315-7D5BF3371191";
shapes = (
{
closed = 1;
nodes = (
(263,-536,l),
(334,-536,l),
(334,1602,l),
(263,1602,l)
);
}
);
width = 599;
},
{
background = {
shapes = (
{
closed = 1;
nodes = (
(227,-552,l),
(425,-512,l),
(417,-374,o),
(411,-258,o),
(411,-126,cs),
(411,1646,l),
(213,1604,l),
(221,1470,o),
(227,1354,o),
(227,1222,cs)
);
}
);
};
layerId = "E5022B42-6572-4579-AE6E-2F10A1751A6E";
shapes = (
{
closed = 1;
nodes = (
(213,-537,l),
(519,-537,l),
(519,1602,l),
(213,1602,l)
);
}
);
width = 732;
},
{
layerId = "09C3E491-E9AE-4DC0-8F4F-6A6E8897705E";
shapes = (
{
closed = 1;
nodes = (
(220,-537,l),
(495,-537,l),
(495,1602,l),
(220,1602,l)
);
}
);
width = 715;
}
);
unicode = 124;
},
{
glyphname = percent;
layers = (
{
background = {
shapes = (
{
closed = 1;
nodes = (
(421,0,l),
(552,0,l),
(1501,1464,l),
(1367,1464,l)
);
},
{
closed = 1;
nodes = (
(725,700,o),
(862,878,o),
(862,1107,cs),
(862,1303,o),
(762,1485,o),
(541,1485,cs),
(330,1485,o),
(185,1320,o),
(185,1083,cs),
(185,888,o),
(282,700,o),
(507,700,cs)
);
},
{
closed = 1;
nodes = (
(411,818,o),
(334,936,o),
(334,1101,cs),
(334,1273,o),
(417,1365,o),
(521,1365,cs),
(639,1365,o),
(713,1248,o),
(713,1088,cs),
(713,921,o),
(633,818,o),
(526,818,cs)
);
},
{
closed = 1;
nodes = (
(1598,-21,o),
(1735,157,o),
(1735,386,cs),
(1735,582,o),
(1635,764,o),
(1414,764,cs),
(1203,764,o),
(1058,599,o),
(1058,362,cs),
(1058,168,o),
(1155,-21,o),
(1380,-21,cs)
);
},
{
closed = 1;
nodes = (
(1284,97,o),
(1207,215,o),
(1207,380,cs),
(1207,552,o),
(1290,644,o),
(1395,644,cs),
(1513,644,o),
(1587,527,o),
(1587,367,cs),
(1587,200,o),
(1507,97,o),
(1399,97,cs)
);
}
);
};
guides = (
{
position = "{0, 1180}";
},
{
angle = 90;
position = "{56, 0}";
}
);
layerId = "C8089C2F-C663-459E-AF34-3AEDB7904EA9";
shapes = (
{
closed = 1;
nodes = (
(447,0,l),
(609,0,l),
(1557,1464,l),
(1393,1464,l)
);
},
{
closed = 1;
nodes = (
(746,686,o),
(894,872,o),
(894,1109,cs),
(894,1315,o),
(778,1485,o),
(558,1485,cs),
(334,1485,o),
(180,1309,o),
(180,1066,cs),
(180,862,o),
(293,686,o),
(516,686,cs)
);
},
{
closed = 1;
nodes = (
(431,826,o),
(358,937,o),
(358,1093,cs),
(358,1255,o),
(435,1344,o),
(534,1344,cs),
(645,1344,o),
(716,1233,o),
(716,1081,cs),
(716,923,o),
(641,826,o),
(540,826,cs)
);
},
{
closed = 1;
nodes = (
(1675,-21,o),
(1823,165,o),
(1823,402,cs),
(1823,608,o),
(1707,778,o),
(1487,778,cs),
(1263,778,o),
(1109,602,o),
(1109,359,cs),
(1109,155,o),
(1222,-21,o),
(1445,-21,cs)
);
},
{
closed = 1;
nodes = (
(1360,119,o),
(1287,230,o),
(1287,386,cs),
(1287,548,o),
(1364,637,o),
(1463,637,cs),
(1574,637,o),
(1645,526,o),
(1645,374,cs),
(1645,216,o),
(1570,119,o),
(1469,119,cs)
);
}
);
width = 2003;
},
{
guides = (
{
position = "{0, 1180}";
},
{
angle = 90;
position = "{56, 0}";
}
);
layerId = "B30F41D4-F94E-4E62-9315-7D5BF3371191";
shapes = (
{
closed = 1;
nodes = (
(400,0,l),
(491,0,l),
(1441,1464,l),
(1346,1464,l)
);
},
{
closed = 1;
nodes = (
(708,711,o),
(836,883,o),
(836,1105,cs),
(836,1293,o),
(749,1485,o),
(527,1485,cs),
(327,1485,o),
(189,1329,o),
(189,1097,cs),
(189,909,o),
(273,711,o),
(500,711,cs)
);
},
{
closed = 1;
nodes = (
(395,811,o),
(314,935,o),
(314,1108,cs),
(314,1288,o),
(402,1382,o),
(510,1382,cs),
(634,1382,o),
(711,1260,o),
(711,1094,cs),
(711,919,o),
(626,811,o),
(515,811,cs)
);
},
{
closed = 1;
nodes = (
(1520,-21,o),
(1648,150,o),
(1648,373,cs),
(1648,561,o),
(1562,753,o),
(1340,753,cs),
(1139,753,o),
(1002,597,o),
(1002,364,cs),
(1002,179,o),
(1086,-21,o),
(1312,-21,cs)
);
},
{
closed = 1;
nodes = (
(1207,79,o),
(1127,203,o),
(1127,375,cs),
(1127,555,o),
(1215,650,o),
(1325,650,cs),
(1449,650,o),
(1525,528,o),
(1525,361,cs),
(1525,187,o),
(1441,79,o),
(1327,79,cs)
);
}
);
width = 1843;
},
{
background = {
shapes = (
{
closed = 1;
nodes = (
(447,0,l),
(604,0,l),
(1552,1464,l),
(1393,1464,l)
);
},
{
closed = 1;
nodes = (
(746,674,o),
(894,870,o),
(894,1107,cs),
(894,1313,o),
(778,1493,o),
(558,1493,cs),
(334,1493,o),
(180,1307,o),
(180,1064,cs),
(180,860,o),
(293,674,o),
(516,674,cs)
);
},
{
closed = 1;
nodes = (
(431,794,o),
(358,905,o),
(358,1091,cs),
(358,1283,o),
(435,1372,o),
(534,1372,cs),
(645,1372,o),
(716,1261,o),
(716,1079,cs),
(716,891,o),
(641,794,o),
(540,794,cs)
);
},
{
closed = 1;
nodes = (
(1670,-28,o),
(1819,168,o),
(1819,405,cs),
(1819,611,o),
(1702,791,o),
(1482,791,cs),
(1259,791,o),
(1104,605,o),
(1104,362,cs),
(1104,158,o),
(1217,-28,o),
(1441,-28,cs)
);
},
{
closed = 1;
nodes = (
(1356,93,o),
(1282,204,o),
(1282,390,cs),
(1282,582,o),
(1360,671,o),
(1459,671,cs),
(1569,671,o),
(1641,560,o),
(1641,378,cs),
(1641,190,o),
(1565,93,o),
(1464,93,cs)
);
}
);
};
guides = (
{
position = "{0, 1180}";
},
{
angle = 90;
position = "{56, 0}";
}
);
layerId = "E5022B42-6572-4579-AE6E-2F10A1751A6E";
shapes = (
{
closed = 1;
nodes = (
(572,0,l),
(910,0,l),
(1855,1465,l),
(1518,1465,l)
);
},
{
closed = 1;
nodes = (
(839,618,o),
(1050,794,o),
(1050,1068,cs),
(1050,1322,o),
(867,1485,o),
(623,1485,cs),
(364,1485,o),
(156,1304,o),
(156,1032,cs),
(156,777,o),
(338,618,o),
(582,618,cs)
);
},
{
closed = 1;
nodes = (
(530,864,o),
(475,942,o),
(475,1058,cs),
(475,1167,o),
(524,1239,o),
(597,1239,cs),
(673,1239,o),
(729,1160,o),
(729,1043,cs),
(729,933,o),
(679,864,o),
(606,864,cs)
);
},
{
closed = 1;
nodes = (
(2062,-20,o),
(2273,156,o),
(2273,430,cs),
(2273,685,o),
(2090,847,o),
(1846,847,cs),
(1588,847,o),
(1379,667,o),
(1379,394,cs),
(1379,139,o),
(1562,-20,o),
(1805,-20,cs)
);
},
{
closed = 1;
nodes = (
(1753,226,o),
(1698,304,o),
(1698,420,cs),
(1698,530,o),
(1747,602,o),
(1821,602,cs),
(1897,602,o),
(1953,522,o),
(1953,406,cs),
(1953,295,o),
(1902,226,o),
(1829,226,cs)
);
}
);
width = 2429;
},
{
guides = (
{
position = "{0, 1180}";
},
{
angle = 90;
position = "{56, 0}";
}
);
layerId = "09C3E491-E9AE-4DC0-8F4F-6A6E8897705E";
shapes = (
{
closed = 1;
nodes = (
(550,0,l),
(856,0,l),
(1802,1465,l),
(1496,1465,l)
);
},
{
closed = 1;
nodes = (
(822,630,o),
(1022,808,o),
(1022,1075,cs),
(1022,1321,o),
(851,1485,o),
(611,1485,cs),
(359,1485,o),
(160,1305,o),
(160,1038,cs),
(160,792,o),
(330,630,o),
(570,630,cs)
);
},
{
closed = 1;
nodes = (
(512,857,o),
(454,941,o),
(454,1064,cs),
(454,1183,o),
(508,1258,o),
(586,1258,cs),
(668,1258,o),
(727,1173,o),
(727,1050,cs),
(727,931,o),
(672,857,o),
(594,857,cs)
);
},
{
closed = 1;
nodes = (
(1993,-20,o),
(2193,158,o),
(2193,425,cs),
(2193,671,o),
(2022,835,o),
(1782,835,cs),
(1530,835,o),
(1331,655,o),
(1331,388,cs),
(1331,142,o),
(1501,-20,o),
(1741,-20,cs)
);
},
{
closed = 1;
nodes = (
(1683,207,o),
(1625,291,o),
(1625,414,cs),
(1625,533,o),
(1679,608,o),
(1757,608,cs),
(1839,608,o),
(1898,523,o),
(1898,400,cs),
(1898,281,o),
(1843,207,o),
(1765,207,cs)
);
}
);
width = 2353;
}
);
unicode = 37;
},
{
glyphname = zero;
layers = (
{
background = {
shapes = (
{
closed = 1;
nodes = (
(1148,326,o),
(970,114,o),
(736,114,cs),
(492,114,o),
(312,344,o),
(312,745,cs),
(312,1145,o),
(492,1351,o),
(726,1351,cs),
(970,1351,o),
(1148,1128,o),
(1148,727,cs)
);
},
{
closed = 1;
nodes = (
(1301,1163,o),
(1074,1485,o),
(746,1485,cs),
(419,1485,o),
(160,1166,o),
(160,720,cs),
(160,308,o),
(381,-20,o),
(713,-20,cs),
(1044,-20,o),
(1301,308,o),
(1301,749,cs)
);
}
);
};
layerId = "C8089C2F-C663-459E-AF34-3AEDB7904EA9";
shapes = (
{
closed = 1;
nodes = (
(1110,342,o),
(956,135,o),
(739,135,cs),
(510,135,o),
(353,366,o),
(353,747,cs),
(353,1128,o),
(510,1330,o),
(726,1330,cs),
(955,1330,o),
(1110,1105,o),
(1110,723,c)
);
},
{
closed = 1;
nodes = (
(1316,1183,o),
(1092,1485,o),
(758,1485,cs),
(420,1485,o),
(148,1175,o),
(148,706,cs),
(148,285,o),
(368,-20,o),
(704,-20,cs),
(1046,-20,o),
(1316,297,o),
(1316,761,c)
);
}
);
width = 1464;
},
{
layerId = "B30F41D4-F94E-4E62-9315-7D5BF3371191";
shapes = (
{
closed = 1;
nodes = (
(1179,313,o),
(981,97,o),
(734,97,cs),
(477,97,o),
(278,326,o),
(278,743,cs),
(278,1159,o),
(477,1368,o),
(726,1368,cs),
(982,1368,o),
(1179,1147,o),
(1179,730,cs)
);
},
{
closed = 1;
nodes = (
(1289,1147,o),
(1059,1485,o),
(736,1485,cs),
(418,1485,o),
(170,1159,o),
(170,731,cs),
(170,327,o),
(392,-20,o),
(720,-20,cs),
(1042,-20,o),
(1289,317,o),
(1289,739,cs)
);
}
);
width = 1459;
},
{
background = {
shapes = (
{
closed = 1;
nodes = (
(1110,322,o),
(956,115,o),
(739,115,cs),
(510,115,o),
(353,346,o),
(353,747,cs),
(353,1148,o),
(510,1350,o),
(726,1350,cs),
(955,1350,o),
(1110,1125,o),
(1110,723,cs)
);
},
{
closed = 1;
nodes = (
(1316,1183,o),
(1092,1485,o),
(758,1485,cs),
(420,1485,o),
(148,1175,o),
(148,706,cs),
(148,285,o),
(368,-20,o),
(704,-20,cs),
(1046,-20,o),
(1316,297,o),
(1316,761,cs)
);
}
);
};
layerId = "E5022B42-6572-4579-AE6E-2F10A1751A6E";
shapes = (
{
closed = 1;
nodes = (
(925,439,o),
(885,237,o),
(744,237,cs),
(603,237,o),
(554,443,o),
(554,742,cs),
(554,1022,o),
(594,1228,o),
(736,1228,cs),
(877,1228,o),
(925,1019,o),
(925,719,cs)
);
},
{
closed = 1;
nodes = (
(1389,1252,o),
(1141,1485,o),
(765,1485,cs),
(386,1485,o),
(90,1247,o),
(90,707,cs),
(90,210,o),
(340,-20,o),
(715,-20,cs),
(1093,-20,o),
(1389,214,o),
(1389,755,cs)
);
}
);
width = 1479;
},
{
layerId = "09C3E491-E9AE-4DC0-8F4F-6A6E8897705E";
shapes = (
{
closed = 1;
nodes = (
(958,422,o),
(898,219,o),
(743,219,cs),
(586,219,o),
(518,429,o),
(518,743,cs),
(518,1041,o),
(579,1246,o),
(734,1246,cs),
(891,1246,o),
(958,1034,o),
(958,720,c)
);
},
{
closed = 1;
nodes = (
(1376,1240,o),
(1132,1485,o),
(764,1485,cs),
(392,1485,o),
(100,1234,o),
(100,707,cs),
(100,223,o),
(345,-20,o),
(713,-20,cs),
(1085,-20,o),
(1376,229,o),
(1376,756,c)
);
}
);
width = 1476;
}
);
unicode = 48;
},
{
glyphname = one;
layers = (
{
background = {
shapes = (
{
closed = 1;
nodes = (
(362,0,l),
(362,740,l),
(343,754,l),
(258,712,o),
(118,676,o),
(51,676,c),
(51,633,l),
(263,633,l),
(263,0,l)
);
}
);
};
layerId = "C8089C2F-C663-459E-AF34-3AEDB7904EA9";
shapes = (
{
closed = 1;
nodes = (
(706,0,l),
(706,1465,l),
(607,1465,l),
(504,1358,o),
(350,1299,o),
(90,1299,c),
(90,1194,l),
(510,1194,l),
(510,0,l)
);
}
);
width = 946;
},
{
layerId = "B30F41D4-F94E-4E62-9315-7D5BF3371191";
shapes = (
{
closed = 1;
nodes = (
(664,0,l),
(664,1465,l),
(620,1465,l),
(517,1358,o),
(326,1299,o),
(103,1299,c),
(103,1230,l),
(559,1230,l),
(559,0,l)
);
}
);
width = 926;
},
{
background = {
shapes = (
{
closed = 1;
nodes = (
(362,0,l),
(362,740,l),
(343,754,l),
(258,712,o),
(118,676,o),
(51,676,c),
(51,633,l),
(263,633,l),
(263,0,l)
);
}
);
};
layerId = "E5022B42-6572-4579-AE6E-2F10A1751A6E";
shapes = (
{
closed = 1;
nodes = (
(830,0,l),
(830,1465,l),
(570,1465,l),
(467,1358,o),
(313,1299,o),
(53,1299,c),
(53,1097,l),
(379,1097,l),
(379,0,l)
);
}
);
width = 997;
},
{
layerId = "09C3E491-E9AE-4DC0-8F4F-6A6E8897705E";
shapes = (
{
closed = 1;
nodes = (
(808,0,l),
(808,1465,l),
(577,1465,l),
(474,1358,o),
(320,1299,o),
(60,1299,c),
(60,1114,l),
(402,1114,l),
(402,0,l)
);
}
);
width = 988;
}
);
unicode = 49;
},
{
glyphname = two;
layers = (
{
background = {
shapes = (
{
closed = 1;
nodes = (
(120,0,l),
(1037,0,l),
(1063,133,l),
(356,133,l),
(795,525,o),
(1015,855,o),
(1015,1109,cs),
(1015,1338,o),
(831,1485,o),
(601,1485,cs),
(463,1485,o),
(314,1433,o),
(199,1344,c),
(199,1237,l),
(294,1295,o),
(435,1336,o),
(540,1336,cs),
(673,1336,o),
(809,1269,o),
(809,1069,cs),
(809,841,o),
(649,556,o),
(120,65,c)
);
}
);
};
layerId = "C8089C2F-C663-459E-AF34-3AEDB7904EA9";
shapes = (
{
closed = 1;
nodes = (
(120,0,l),
(1034,0,l),
(1063,155,l),
(384,155,l),
(801,547,o),
(1015,855,o),
(1015,1109,cs),
(1015,1338,o),
(831,1485,o),
(601,1485,cs),
(463,1485,o),
(314,1432,o),
(199,1343,c),
(199,1226,l),
(294,1284,o),
(435,1325,o),
(540,1325,cs),
(673,1325,o),
(809,1259,o),
(809,1069,cs),
(809,841,o),
(649,556,o),
(120,65,c)
);
}
);
width = 1223;
},
{
layerId = "B30F41D4-F94E-4E62-9315-7D5BF3371191";
shapes = (
{
closed = 1;
nodes = (
(138,0,l),
(998,0,l),
(1018,117,l),
(344,117,l),
(761,505,o),
(980,860,o),
(980,1105,cs),
(980,1343,o),
(789,1485,o),
(585,1485,cs),
(470,1485,o),
(336,1437,o),
(221,1341,c),
(221,1259,l),
(330,1331,o),
(473,1363,o),
(576,1363,cs),
(731,1363,o),
(871,1299,o),
(871,1089,cs),
(871,856,o),
(669,523,o),
(138,49,c)
);
}
);
width = 1205;
},
{
background = {
shapes = (
{
closed = 1;
nodes = (
(120,0,l),
(1037,0,l),
(1063,133,l),
(356,133,l),
(795,525,o),
(1015,855,o),
(1015,1109,cs),
(1015,1338,o),
(831,1485,o),
(601,1485,cs),
(463,1485,o),
(314,1433,o),
(199,1344,c),
(199,1237,l),
(294,1295,o),
(435,1336,o),
(540,1336,cs),
(673,1336,o),
(809,1269,o),
(809,1069,cs),
(809,841,o),
(649,556,o),
(120,65,c)
);
}
);
};
layerId = "E5022B42-6572-4579-AE6E-2F10A1751A6E";
shapes = (
{
closed = 1;
nodes = (
(71,0,l),
(1129,0,l),
(1182,257,l),
(564,257,l),
(964,641,o),
(1106,853,o),
(1106,1090,cs),
(1106,1344,o),
(943,1485,o),
(646,1485,cs),
(444,1485,o),
(257,1419,o),
(142,1332,c),
(142,1142,l),
(198,1166,o),
(284,1206,o),
(390,1206,cs),
(523,1206,o),
(641,1145,o),
(641,979,cs),
(641,792,o),
(482,586,o),
(73,108,c)
);
}
);
width = 1269;
},
{
layerId = "09C3E491-E9AE-4DC0-8F4F-6A6E8897705E";
shapes = (
{
closed = 1;
nodes = (
(80,0,l),
(1112,0,l),
(1161,239,l),
(532,239,l),
(935,624,o),
(1090,853,o),
(1090,1093,cs),
(1090,1343,o),
(923,1485,o),
(638,1485,cs),
(447,1485,o),
(267,1421,o),
(152,1334,c),
(152,1157,l),
(215,1187,o),
(311,1227,o),
(417,1227,cs),
(550,1227,o),
(671,1165,o),
(671,995,cs),
(671,801,o),
(512,581,o),
(81,100,c)
);
}
);
width = 1261;
}
);
unicode = 50;
},
{
glyphname = three;
layers = (
{
background = {
shapes = (
{
closed = 1;
nodes = (
(132,0,l),
(1016,0,l),
(1040,134,l),
(364,134,l),
(781,524,o),
(998,858,o),
(998,1107,cs),
(998,1341,o),
(810,1485,o),
(594,1485,cs),
(469,1485,o),
(328,1437,o),
(213,1347,c),
(213,1249,l),
(316,1315,o),
(458,1351,o),
(562,1351,cs),
(707,1351,o),
(845,1281,o),
(845,1080,cs),
(845,849,o),
(662,538,o),
(132,56,c)
);
}
);
};
layerId = "C8089C2F-C663-459E-AF34-3AEDB7904EA9";
shapes = (
{
closed = 1;
nodes = (
(991,1345,o),
(825,1485,o),
(593,1485,cs),
(440,1485,o),
(296,1423,o),
(185,1335,c),
(185,1219,l),
(280,1282,o),
(427,1325,o),
(535,1325,cs),
(667,1325,o),
(787,1271,o),
(787,1151,cs),
(787,985,o),
(560,874,o),
(407,822,c),
(407,705,l),
(603,722,o),
(815,663,o),
(815,467,cs),
(815,275,o),
(613,155,o),
(170,155,c),
(170,0,l),
(813,0,o),
(1021,275,o),
(1021,486,cs),
(1021,642,o),
(904,786,o),
(670,822,c),
(670,832,l),
(882,946,o),
(991,1046,o),
(991,1191,cs)
);
}
);
width = 1191;
},
{
layerId = "B30F41D4-F94E-4E62-9315-7D5BF3371191";
shapes = (
{
closed = 1;
nodes = (
(960,1369,o),
(790,1485,o),
(573,1485,cs),
(429,1485,o),
(331,1436,o),
(209,1348,c),
(209,1264,l),
(313,1335,o),
(452,1363,o),
(562,1363,cs),
(731,1363,o),
(854,1286,o),
(854,1164,cs),
(854,1005,o),
(638,867,o),
(458,813,c),
(458,727,l),
(632,726,o),
(884,667,o),
(884,476,cs),
(884,280,o),
(620,117,o),
(197,117,c),
(197,0,l),
(784,0,o),
(994,235,o),
(994,466,cs),
(994,646,o),
(868,771,o),
(646,806,c),
(646,810,l),
(820,877,o),
(960,1037,o),
(960,1186,cs)
);
}
);
width = 1191;
},
{
background = {
shapes = (
{
closed = 1;
nodes = (
(991,1343,o),
(825,1485,o),
(594,1485,cs),
(440,1485,o),
(296,1424,o),
(185,1336,c),
(185,1230,l),
(280,1293,o),
(427,1336,o),
(536,1336,cs),
(667,1336,o),
(787,1271,o),
(787,1140,c),
(778,946,o),
(558,863,o),
(407,812,c),
(407,705,l),
(603,722,o),
(815,647,o),
(815,451,cs),
(815,259,o),
(613,115,o),
(170,115,c),
(170,-20,l),
(813,-20,o),
(1021,271,o),
(1021,470,cs),
(1021,626,o),
(894,766,o),
(650,812,c),
(650,822,l),
(861,936,o),
(991,1043,o),
(991,1184,cs)
);
}
);
};
layerId = "E5022B42-6572-4579-AE6E-2F10A1751A6E";
shapes = (
{
closed = 1;
nodes = (
(1071,1345,o),
(926,1485,o),
(634,1485,cs),
(444,1485,o),
(238,1425,o),
(117,1334,c),
(117,1144,l),
(189,1172,o),
(283,1206,o),
(388,1206,cs),
(490,1206,o),
(606,1161,o),
(606,1063,cs),
(606,922,o),
(387,876,o),
(269,848,c),
(269,645,l),
(480,657,o),
(630,607,o),
(630,469,cs),
(630,385,o),
(595,257,o),
(97,257,c),
(97,0,l),
(892,0,o),
(1094,258,o),
(1094,491,cs),
(1094,680,o),
(962,797,o),
(755,843,c),
(755,865,l),
(955,973,o),
(1071,1052,o),
(1071,1193,cs)
);
}
);
width = 1191;
},
{
layerId = "09C3E491-E9AE-4DC0-8F4F-6A6E8897705E";
shapes = (
{
closed = 1;
nodes = (
(1057,1345,o),
(908,1485,o),
(627,1485,cs),
(443,1485,o),
(248,1425,o),
(129,1334,c),
(129,1157,l),
(205,1192,o),
(309,1227,o),
(414,1227,cs),
(522,1227,o),
(638,1181,o),
(638,1079,cs),
(638,933,o),
(418,876,o),
(294,843,c),
(294,656,l),
(502,669,o),
(663,617,o),
(663,469,cs),
(663,365,o),
(598,239,o),
(110,239,c),
(110,0,l),
(878,0,o),
(1081,261,o),
(1081,490,cs),
(1081,673,o),
(952,795,o),
(740,839,c),
(740,859,l),
(942,968,o),
(1057,1051,o),
(1057,1193,cs)
);
}
);
width = 1191;
}
);
unicode = 51;
},
{
glyphname = four;
layers = (
{
background = {
shapes = (
{
closed = 1;
nodes = (
(100,437,l),
(772,437,l),
(772,0,l),
(960,0,l),
(960,437,l),
(1168,437,l),
(1207,570,l),
(960,570,l),
(960,1465,l),
(711,1465,l),
(100,525,l)
);
},
{
closed = 1;
nodes = (
(277,570,l),
(655,1152,l),
(762,1354,l),
(782,1354,l),
(772,1125,l),
(772,570,l)
);
}
);
};
layerId = "C8089C2F-C663-459E-AF34-3AEDB7904EA9";
shapes = (
{
closed = 1;
nodes = (
(100,417,l),
(772,417,l),
(772,0,l),
(960,0,l),
(960,417,l),
(1168,417,l),
(1207,570,l),
(960,570,l),
(960,1465,l),
(691,1465,l),
(100,525,l)
);
},
{
closed = 1;
nodes = (
(297,570,l),
(655,1152,l),
(762,1354,l),
(782,1354,l),
(772,1125,l),
(772,570,l)
);
}
);
width = 1297;
},
{
layerId = "B30F41D4-F94E-4E62-9315-7D5BF3371191";
shapes = (
{
closed = 1;
nodes = (
(122,433,l),
(814,433,l),
(814,0,l),
(916,0,l),
(916,433,l),
(1137,433,l),
(1174,546,l),
(916,546,l),
(916,1465,l),
(773,1465,l),
(122,520,l)
);
},
{
closed = 1;
nodes = (
(268,546,l),
(691,1152,l),
(804,1350,l),
(824,1350,l),
(814,1110,l),
(814,546,l)
);
}
);
width = 1268;
},
{
background = {
shapes = (
{
closed = 1;
nodes = (
(100,437,l),
(772,437,l),
(772,0,l),
(960,0,l),
(960,437,l),
(1168,437,l),
(1207,570,l),
(960,570,l),
(960,1465,l),
(711,1465,l),
(100,525,l)
);
},
{
closed = 1;
nodes = (
(277,570,l),
(655,1152,l),
(762,1354,l),
(782,1354,l),
(772,1125,l),
(772,570,l)
);
}
);
};
layerId = "E5022B42-6572-4579-AE6E-2F10A1751A6E";
shapes = (
{
closed = 1;
nodes = (
(39,374,l),
(660,374,l),
(660,0,l),
(1113,0,l),
(1113,374,l),
(1290,374,l),
(1332,632,l),
(1113,632,l),
(1113,1465,l),
(532,1465,l),
(39,512,l)
);
},
{
closed = 1;
nodes = (
(376,632,l),
(558,993,l),
(648,1203,l),
(668,1203,l),
(660,1002,l),
(660,632,l)
);
}
);
width = 1374;
},
{
layerId = "09C3E491-E9AE-4DC0-8F4F-6A6E8897705E";
shapes = (
{
closed = 1;
nodes = (
(50,382,l),
(680,382,l),
(680,0,l),
(1086,0,l),
(1086,382,l),
(1268,382,l),
(1310,621,l),
(1086,621,l),
(1086,1465,l),
(560,1465,l),
(50,514,l)
);
},
{
closed = 1;
nodes = (
(362,621,l),
(575,1021,l),
(668,1230,l),
(688,1230,l),
(680,1024,l),
(680,621,l)
);
}
);
width = 1360;
}
);
unicode = 52;
},
{
glyphname = five;
layers = (
{
layerId = "C8089C2F-C663-459E-AF34-3AEDB7904EA9";
shapes = (
{
closed = 1;
nodes = (
(180,809,l),
(312,809,ls),
(579,809,o),
(743,715,o),
(743,509,cs),
(743,327,o),
(614,155,o),
(190,155,c),
(190,0,l),
(753,0,o),
(941,323,o),
(941,547,cs),
(941,796,o),
(717,965,o),
(352,965,c),
(390,1310,l),
(913,1310,l),
(939,1465,l),
(248,1465,l)
);
}
);
width = 1111;
},
{
layerId = "B30F41D4-F94E-4E62-9315-7D5BF3371191";
shapes = (
{
closed = 1;
nodes = (
(211,842,l),
(339,842,ls),
(595,842,o),
(821,739,o),
(821,511,cs),
(821,311,o),
(650,117,o),
(225,117,c),
(225,0,l),
(722,0,o),
(916,268,o),
(916,520,cs),
(916,774,o),
(710,960,o),
(332,960,c),
(377,1348,l),
(897,1348,l),
(915,1465,l),
(279,1465,l)
);
}
);
width = 1113;
},
{
background = {
shapes = (
{
closed = 1;
nodes = (
(182,845,l),
(525,845,o),
(743,737,o),
(743,499,cs),
(743,317,o),
(614,107,o),
(190,107,c),
(190,-28,l),
(753,-28,o),
(941,313,o),
(941,537,cs),
(941,786,o),
(707,962,o),
(333,988,c),
(370,1331,l),
(913,1331,l),
(939,1465,l),
(248,1465,l)
);
}
);
};
layerId = "E5022B42-6572-4579-AE6E-2F10A1751A6E";
shapes = (
{
closed = 1;
nodes = (
(95,723,l),
(239,723,ls),
(389,723,o),
(531,653,o),
(531,504,cs),
(531,371,o),
(418,257,o),
(96,257,c),
(96,0,l),
(833,0,o),
(1010,328,o),
(1010,557,cs),
(1010,813,o),
(785,980,o),
(403,980,c),
(424,1208,l),
(956,1208,l),
(1000,1465,l),
(165,1465,l)
);
}
);
width = 1107;
},
{
layerId = "09C3E491-E9AE-4DC0-8F4F-6A6E8897705E";
shapes = (
{
closed = 1;
nodes = (
(110,738,l),
(252,738,ls),
(423,738,o),
(569,664,o),
(569,505,cs),
(569,363,o),
(453,239,o),
(113,239,c),
(113,0,l),
(819,0,o),
(998,327,o),
(998,555,cs),
(998,810,o),
(773,977,o),
(394,977,c),
(418,1226,l),
(948,1226,l),
(989,1465,l),
(180,1465,l)
);
}
);
width = 1108;
}
);
unicode = 53;
},
{
glyphname = six;
layers = (
{
background = {
shapes = (
{
closed = 1;
nodes = (
(571,699,l),
(611,715,o),
(649,727,o),
(700,727,cs),
(864,727,o),
(959,601,o),
(959,438,cs),
(959,259,o),
(844,125,o),
(674,125,cs),
(468,125,o),
(353,322,o),
(353,601,cs),
(353,926,o),
(510,1321,o),
(1046,1321,cs),
(1060,1321,l),
(1060,1465,l),
(1037,1465,ls),
(459,1465,o),
(148,978,o),
(148,565,cs),
(148,264,o),
(314,-20,o),
(643,-20,cs),
(948,-20,o),
(1165,224,o),
(1165,468,cs),
(1165,696,o),
(975,861,o),
(782,861,cs),
(705,861,o),
(637,835,o),
(571,788,c)
);
}
);
};
layerId = "C8089C2F-C663-459E-AF34-3AEDB7904EA9";
shapes = (
{
closed = 1;
nodes = (
(571,685,l),
(610,699,o),
(653,707,o),
(696,707,cs),
(868,707,o),
(959,581,o),
(959,435,cs),
(959,270,o),
(844,135,o),
(674,135,cs),
(468,135,o),
(353,332,o),
(353,601,cs),
(353,916,o),
(510,1310,o),
(1046,1310,cs),
(1060,1310,l),
(1060,1465,l),
(1037,1465,ls),
(459,1465,o),
(148,978,o),
(148,565,cs),
(148,264,o),
(314,-20,o),
(643,-20,cs),
(948,-20,o),
(1165,224,o),
(1165,468,cs),
(1165,696,o),
(975,861,o),
(781,861,cs),
(705,861,o),
(637,836,o),
(571,794,c)
);
}
);
width = 1313;
},
{
layerId = "B30F41D4-F94E-4E62-9315-7D5BF3371191";
shapes = (
{
closed = 1;
nodes = (
(522,707,l),
(572,723,o),
(629,732,o),
(687,732,cs),
(913,732,o),
(1008,576,o),
(1008,430,cs),
(1008,252,o),
(868,97,o),
(663,97,cs),
(424,97,o),
(282,307,o),
(282,572,cs),
(282,898,o),
(497,1348,o),
(1010,1348,cs),
(1022,1348,l),
(1022,1465,l),
(1021,1465,ls),
(483,1465,o),
(172,983,o),
(172,570,cs),
(172,268,o),
(338,-20,o),
(632,-20,cs),
(901,-20,o),
(1120,220,o),
(1120,452,cs),
(1120,676,o),
(917,850,o),
(723,850,cs),
(652,850,o),
(595,827,o),
(522,779,c)
);
}
);
width = 1291;
},
{
background = {
shapes = (
{
closed = 1;
nodes = (
(571,699,l),
(611,715,o),
(649,727,o),
(700,727,cs),
(864,727,o),
(959,601,o),
(959,438,cs),
(959,259,o),
(844,125,o),
(674,125,cs),
(468,125,o),
(353,322,o),
(353,601,cs),
(353,926,o),
(510,1321,o),
(1046,1321,cs),
(1060,1321,l),
(1060,1465,l),
(1037,1465,ls),
(459,1465,o),
(148,978,o),
(148,565,cs),
(148,264,o),
(314,-20,o),
(643,-20,cs),
(948,-20,o),
(1165,224,o),
(1165,468,cs),
(1165,696,o),
(975,861,o),
(782,861,cs),
(705,861,o),
(637,835,o),
(571,788,c)
);
}
);
};
layerId = "E5022B42-6572-4579-AE6E-2F10A1751A6E";
shapes = (
{
closed = 1;
nodes = (
(704,658,l),
(712,658,o),
(715,658,o),
(722,658,cs),
(799,658,o),
(829,587,o),
(829,463,cs),
(829,316,o),
(778,237,o),
(711,237,cs),
(586,237,o),
(542,417,o),
(542,625,cs),
(542,987,o),
(689,1208,o),
(1092,1208,cs),
(1160,1208,l),
(1160,1465,l),
(1080,1465,ls),
(394,1465,o),
(77,962,o),
(77,555,cs),
(77,254,o),
(251,-20,o),
(673,-20,cs),
(1072,-20,o),
(1293,235,o),
(1293,512,cs),
(1293,750,o),
(1124,891,o),
(947,891,cs),
(847,891,o),
(754,841,o),
(704,805,c)
);
}
);
width = 1370;
},
{
layerId = "09C3E491-E9AE-4DC0-8F4F-6A6E8897705E";
shapes = (
{
closed = 1;
nodes = (
(680,663,l),
(694,665,o),
(704,667,o),
(717,667,cs),
(811,667,o),
(852,586,o),
(852,458,cs),
(852,308,o),
(790,219,o),
(704,219,cs),
(565,219,o),
(508,402,o),
(508,621,cs),
(508,974,o),
(657,1226,o),
(1084,1226,cs),
(1142,1226,l),
(1142,1465,l),
(1072,1465,ls),
(406,1465,o),
(90,965,o),
(90,557,cs),
(90,256,o),
(262,-20,o),
(668,-20,cs),
(1050,-20,o),
(1270,233,o),
(1270,504,cs),
(1270,740,o),
(1097,886,o),
(917,886,cs),
(822,886,o),
(733,840,o),
(680,803,c)
);
}
);
width = 1360;
}
);
unicode = 54;
},
{
glyphname = seven;
layers = (
{
background = {
shapes = (
{
closed = 1;
nodes = (
(820,1331,l),
(606,897,o),
(410,465,o),
(230,0,c),
(431,0,l),
(585,461,o),
(770,899,o),
(984,1400,c),
(985,1465,l),
(126,1465,l),
(100,1331,l)
);
}
);
};
layerId = "C8089C2F-C663-459E-AF34-3AEDB7904EA9";
shapes = (
{
closed = 1;
nodes = (
(795,1310,l),
(589,876,o),
(410,465,o),
(230,0,c),
(431,0,l),
(585,461,o),
(770,899,o),
(984,1400,c),
(985,1465,l),
(126,1465,l),
(100,1310,l)
);
}
);
width = 1067;
},
{
layerId = "B30F41D4-F94E-4E62-9315-7D5BF3371191";
shapes = (
{
closed = 1;
nodes = (
(839,1348,l),
(629,903,o),
(448,489,o),
(257,0,c),
(360,0,l),
(523,465,o),
(745,897,o),
(973,1422,c),
(972,1465,l),
(128,1465,l),
(109,1348,l)
);
}
);
width = 1036;
},
{
background = {
shapes = (
{
closed = 1;
nodes = (
(820,1331,l),
(606,897,o),
(410,465,o),
(230,0,c),
(431,0,l),
(585,461,o),
(770,899,o),
(984,1400,c),
(985,1465,l),
(126,1465,l),
(100,1331,l)
);
}
);
};
layerId = "E5022B42-6572-4579-AE6E-2F10A1751A6E";
shapes = (
{
closed = 1;
nodes = (
(679,1208,l),
(483,802,o),
(308,399,o),
(155,0,c),
(618,0,l),
(748,450,o),
(895,905,o),
(1069,1343,c),
(1069,1465,l),
(121,1465,l),
(76,1208,l)
);
}
);
width = 1149;
},
{
layerId = "09C3E491-E9AE-4DC0-8F4F-6A6E8897705E";
shapes = (
{
closed = 1;
nodes = (
(700,1226,l),
(502,815,o),
(326,411,o),
(168,0,c),
(585,0,l),
(719,452,o),
(873,904,o),
(1054,1353,c),
(1054,1465,l),
(122,1465,l),
(80,1226,l)
);
}
);
width = 1134;
}
);
unicode = 55;
},
{
glyphname = nine;
layers = (
{
background = {
shapes = (
{
closed = 1;
nodes = (
(757,774,l),
(712,757,o),
(661,748,o),
(610,748,cs),
(419,748,o),
(315,885,o),
(315,1036,cs),
(315,1204,o),
(444,1351,o),
(635,1351,cs),
(857,1351,o),
(987,1150,o),
(987,869,cs),
(987,563,o),
(828,134,o),
(265,134,cs),
(262,134,l),
(262,0,l),
(273,0,ls),
(829,0,o),
(1139,484,o),
(1139,898,cs),
(1139,1199,o),
(974,1485,o),
(664,1485,cs),
(379,1485,o),
(162,1243,o),
(162,1006,cs),
(162,780,o),
(357,610,o),
(554,610,cs),
(625,610,o),
(688,630,o),
(757,673,c)
);
}
);
};
layerId = "C8089C2F-C663-459E-AF34-3AEDB7904EA9";
shapes = (
{
closed = 1;
nodes = (
(742,780,l),
(703,766,o),
(660,758,o),
(617,758,cs),
(445,758,o),
(354,884,o),
(354,1030,cs),
(354,1195,o),
(469,1330,o),
(639,1330,cs),
(845,1330,o),
(960,1133,o),
(960,864,cs),
(960,549,o),
(803,155,o),
(267,155,cs),
(253,155,l),
(253,0,l),
(276,0,ls),
(854,0,o),
(1165,487,o),
(1165,900,cs),
(1165,1201,o),
(999,1485,o),
(670,1485,cs),
(365,1485,o),
(148,1241,o),
(148,997,cs),
(148,769,o),
(338,604,o),
(532,604,cs),
(608,604,o),
(676,629,o),
(742,671,c)
);
}
);
width = 1313;
},
{
layerId = "B30F41D4-F94E-4E62-9315-7D5BF3371191";
shapes = (
{
closed = 1;
nodes = (
(769,758,l),
(719,742,o),
(662,733,o),
(604,733,cs),
(378,733,o),
(283,889,o),
(283,1035,cs),
(283,1213,o),
(424,1368,o),
(628,1368,cs),
(867,1368,o),
(1009,1158,o),
(1009,893,cs),
(1009,567,o),
(794,117,o),
(282,117,cs),
(269,117,l),
(269,0,l),
(271,0,ls),
(809,0,o),
(1120,482,o),
(1120,895,cs),
(1120,1197,o),
(954,1485,o),
(659,1485,cs),
(390,1485,o),
(172,1245,o),
(172,1013,cs),
(172,789,o),
(374,615,o),
(568,615,cs),
(639,615,o),
(696,638,o),
(769,686,c)
);
}
);
width = 1291;
},
{
background = {
shapes = (
{
closed = 1;
nodes = (
(742,766,l),
(702,750,o),
(664,738,o),
(613,738,cs),
(449,738,o),
(354,862,o),
(354,1030,cs),
(354,1214,o),
(469,1350,o),
(639,1350,cs),
(845,1350,o),
(960,1151,o),
(960,868,cs),
(960,537,o),
(803,134,o),
(267,134,cs),
(253,134,l),
(253,0,l),
(276,0,ls),
(854,0,o),
(1165,487,o),
(1165,900,cs),
(1165,1201,o),
(999,1485,o),
(670,1485,cs),
(365,1485,o),
(148,1241,o),
(148,997,cs),
(148,769,o),
(338,604,o),
(531,604,cs),
(608,604,o),
(676,630,o),
(742,677,c)
);
}
);
};
layerId = "E5022B42-6572-4579-AE6E-2F10A1751A6E";
shapes = (
{
closed = 1;
nodes = (
(667,807,l),
(658,807,o),
(655,807,o),
(649,807,cs),
(572,807,o),
(541,878,o),
(541,1002,cs),
(541,1149,o),
(592,1228,o),
(660,1228,cs),
(784,1228,o),
(829,1048,o),
(829,840,cs),
(829,478,o),
(681,257,o),
(278,257,cs),
(210,257,l),
(210,0,l),
(291,0,ls),
(976,0,o),
(1293,503,o),
(1293,910,cs),
(1293,1211,o),
(1120,1485,o),
(697,1485,cs),
(298,1485,o),
(77,1230,o),
(77,953,cs),
(77,715,o),
(247,574,o),
(424,574,cs),
(523,574,o),
(616,624,o),
(667,660,c)
);
}
);
width = 1370;
},
{
layerId = "09C3E491-E9AE-4DC0-8F4F-6A6E8897705E";
shapes = (
{
closed = 1;
nodes = (
(680,802,l),
(666,800,o),
(656,798,o),
(643,798,cs),
(549,798,o),
(508,879,o),
(508,1007,cs),
(508,1157,o),
(570,1246,o),
(656,1246,cs),
(795,1246,o),
(852,1063,o),
(852,844,cs),
(852,491,o),
(703,239,o),
(276,239,cs),
(218,239,l),
(218,0,l),
(288,0,ls),
(954,0,o),
(1270,500,o),
(1270,908,cs),
(1270,1209,o),
(1098,1485,o),
(692,1485,cs),
(310,1485,o),
(90,1232,o),
(90,961,cs),
(90,725,o),
(263,579,o),
(443,579,cs),
(538,579,o),
(627,625,o),
(680,662,c)
);
}
);
width = 1360;
}
);
unicode = 57;
},
